<?xml version="1.0" encoding="UTF-8"?>
<svg width="384px" height="384px" viewBox="0 0 384 384" version="1.1" xmlns="http://www.w3.org/2000/svg" xmlns:xlink="http://www.w3.org/1999/xlink">
    <!-- Generator: Sketch 55.2 (78181) - https://sketchapp.com -->
    <title>facebook</title>
    <desc>Created with Sketch.</desc>
    <g id="Page-1" stroke="none" stroke-width="1" fill="none" fill-rule="evenodd">
        <g id="facebook" fill="#FFFFFF" fill-rule="nonzero">
            <path d="M362.8,0 L21.2,0 C9.5,0 0,9.5 0,21.2 L0,362.8 C0,374.5 9.5,384 21.2,384 L192,384 L192,232 L146.1,232 L146.1,176 L192,176 L192,134.6 C192,85 226.4,58 270.7,58 C291.9,58 314.7,59.6 320,60.3 L320,112.1 L284.7,112.1 C260.6,112.1 256,123.5 256,140.3 L256,176 L313.4,176 L305.9,232 L256,232 L256,384 L362.8,384 C374.5,384 384,374.5 384,362.8 L384,21.2 C384,9.5 374.5,0 362.8,0 Z" id="Path"></path>
        </g>
    </g>
</svg>