<?xml version="1.0" encoding="UTF-8"?>
<svg width="46px" height="46px" viewBox="0 0 46 46" version="1.1" xmlns="http://www.w3.org/2000/svg" xmlns:xlink="http://www.w3.org/1999/xlink">
    <!-- Generator: Sketch 58 (84663) - https://sketch.com -->
    <title>GLOBE</title>
    <desc>Created with Sketch.</desc>
    <g id="Page-1" stroke="none" stroke-width="1" fill="none" fill-rule="evenodd">
        <g id="Desktop-Sales-Site" transform="translate(-465.000000, -2832.000000)" fill="#C0FF02">
            <g id="features_02" transform="translate(140.000000, 2635.000000)">
                <g id="Features">
                    <g id="Left-col">
                        <g id="Feature" transform="translate(0.000000, 197.000000)">
                            <path d="M353.96,43.129 C355.601,41.388 356.969,38.936 357.985,36 L364.472,36 C361.818,39.358 358.169,41.885 353.96,43.129 L353.96,43.129 Z M331.528,36 L338.014,36 C339.032,38.936 340.399,41.388 342.04,43.129 C337.831,41.885 334.182,39.358 331.528,36 L331.528,36 Z M342.04,2.871 C340.216,4.807 338.729,7.62 337.686,11 L330.78,11 C333.473,7.143 337.422,4.236 342.04,2.871 L342.04,2.871 Z M365.22,11 L358.314,11 C357.272,7.62 355.783,4.807 353.96,2.871 C358.578,4.236 362.527,7.143 365.22,11 L365.22,11 Z M359.987,22 C359.92,18.797 359.529,15.75 358.863,13 L366,13 C366.148,13 366.287,12.963 366.414,12.905 C367.908,15.625 368.795,18.716 368.949,22 L359.987,22 Z M349,34 L349,24 L357.976,24 C357.894,27.658 357.369,31.066 356.507,34 L349,34 Z M349,43.894 L349,36 L355.844,36 C354.207,40.351 351.773,43.316 349,43.894 L349,43.894 Z M347,36 L347,43.894 C344.227,43.316 341.793,40.351 340.156,36 L347,36 Z M338.024,24 L347,24 L347,34 L339.493,34 C338.631,31.066 338.106,27.658 338.024,24 L338.024,24 Z M347,13 L347,22 L338.024,22 C338.097,18.755 338.508,15.696 339.205,13 L347,13 Z M347,2.106 L347,11 L339.8,11 C341.428,6.105 344.019,2.728 347,2.106 L347,2.106 Z M356.795,13 C357.492,15.696 357.903,18.755 357.976,22 L349,22 L349,13 L356.795,13 Z M349,11 L349,2.106 C351.981,2.728 354.572,6.105 356.2,11 L349,11 Z M329.53,13 L337.137,13 C336.471,15.75 336.08,18.797 336.012,22 L327.05,22 C327.204,18.755 328.067,15.696 329.53,13 L329.53,13 Z M327.05,24 L336.012,24 C336.088,27.597 336.572,30.997 337.395,34 L330.136,34 C328.325,31.066 327.223,27.658 327.05,24 L327.05,24 Z M365.863,34 L358.606,34 C359.428,30.997 359.912,27.597 359.987,24 L368.949,24 C368.776,27.658 367.675,31.066 365.863,34 L365.863,34 Z M348,3.55271368e-15 C335.297,3.55271368e-15 325,10.297 325,23 C325,35.703 335.297,46 348,46 C360.703,46 371,35.703 371,23 C371,10.297 360.703,3.55271368e-15 348,3.55271368e-15 L348,3.55271368e-15 Z" id="GLOBE"></path>
                        </g>
                    </g>
                </g>
            </g>
        </g>
    </g>
</svg>