<?xml version="1.0" encoding="UTF-8"?>
<svg width="384px" height="384px" viewBox="0 0 384 384" version="1.1" xmlns="http://www.w3.org/2000/svg" xmlns:xlink="http://www.w3.org/1999/xlink">
    <!-- Generator: Sketch 55.2 (78181) - https://sketchapp.com -->
    <title>instagram</title>
    <desc>Created with Sketch.</desc>
    <g id="Page-1" stroke="none" stroke-width="1" fill="none" fill-rule="evenodd">
        <g id="instagram" fill-rule="nonzero">
            <path d="M272,32 C293.2,32 313.3,40.4 328.5,55.5 C343.7,70.6 352,90.8 352,112 L352,272 C352,293.2 343.6,313.3 328.5,328.5 C313.4,343.7 293.2,352 272,352 L112,352 C90.8,352 70.7,343.6 55.5,328.5 C40.3,313.4 32,293.2 32,272 L32,112 C32,90.8 40.4,70.7 55.5,55.5 C70.6,40.3 90.8,32 112,32 L272,32 L272,32 Z M272,0 L112,0 C50.4,0 0,50.4 0,112 L0,272 C0,333.6 50.4,384 112,384 L272,384 C333.6,384 384,333.6 384,272 L384,112 C384,50.4 333.6,0 272,0 Z" id="Shape" fill="#FFFFFF"></path>
            <path d="M296,112 C282.7,112 272,101.3 272,88 C272,74.7 282.7,64 296,64 C309.2,64 320,74.7 320,88 C320,101.3 309.2,112 296,112 Z M192,128 C227.3,128 256,156.7 256,192 C256,227.3 227.3,256 192,256 C156.7,256 128,227.3 128,192 C128,156.7 156.7,128 192,128 L192,128 Z M192,96 C139,96 96,139 96,192 C96,245 139,288 192,288 C245,288 288,245 288,192 C288,139 245,96 192,96 Z" id="Shape" fill="#000000"></path>
            <path d="M296,112 C282.7,112 272,101.3 272,88 C272,74.7 282.7,64 296,64 C309.2,64 320,74.7 320,88 C320,101.3 309.2,112 296,112 Z M192,128 C227.3,128 256,156.7 256,192 C256,227.3 227.3,256 192,256 C156.7,256 128,227.3 128,192 C128,156.7 156.7,128 192,128 L192,128 Z M192,96 C139,96 96,139 96,192 C96,245 139,288 192,288 C245,288 288,245 288,192 C288,139 245,96 192,96 Z" id="Shape" fill="#FFFFFF"></path>
        </g>
    </g>
</svg>