<svg viewBox="0 0 524.29 286.97" xmlns="http://www.w3.org/2000/svg"><g transform="translate(-133.44 -162.41)"><path d="m263.29 374.45c-1.2 6.36-1.81 9.55-3 15.93l-14.29 2.07c4.84-25.84 7.28-38.68 12.16-64.2l64.58-8c10.57-1.3 13.31 3.18 11.51 12.29-1.39 7-2.09 10.49-3.47 17.51-2.14 10.8-6.75 15.87-17.3 17.34zm56-36.62c.71-3.61-.38-5.27-4.12-4.79l-45.07 5.75c-1.8 9.4-2.7 14.11-4.5 23.55l45-6.1c3.73-.51 5.55-2.57 6.35-6.65.95-4.71 1.41-7.06 2.34-11.76z" fill="#003"/><path d="m419.84 367.2c1-4.71 1.46-7.06 2.43-11.75l58.55-8.26c3.73-.52 5.67-2.58 6.42-6.08l.6-2.8c.69-3.24-.33-5.05-4.06-4.54l-44.39 6c-10.46 1.42-13.26-3-11.42-11.8l1.6-7.65c1.84-8.81 6.67-14.06 17.15-15.35l62.4-7.7c-1 4.52-1.49 6.78-2.48 11.31l-57.18 7.29c-3.82.49-5.65 2.45-6.38 5.9l-.5 2.39c-.71 3.37.34 5.13 4.16 4.62l44.32-5.78c10.55-1.4 13.34 2.86 11.47 11.47l-1.75 8.09c-1.86 8.62-6.69 13.9-17.23 15.43z" fill="#003"/><path d="m506.17 354.67c1-4.57 1.48-6.85 2.47-11.4l58.55-8.27a7 7 0 0 0 6.44-5.91c.24-1.08.36-1.63.61-2.71.7-3.13-.31-4.88-4-4.37l-44.4 6c-10.46 1.42-13.24-2.83-11.37-11.38.65-3 1-4.45 1.63-7.41 1.87-8.54 6.72-13.64 17.19-14.93l62.4-7.69c-1 4.37-1.51 6.56-2.51 10.94l-57.18 7.34c-3.83.49-5.66 2.39-6.4 5.74-.21.92-.31 1.39-.51 2.31-.72 3.27.31 5 4.14 4.46l44.32-5.86c10.55-1.4 13.32 2.7 11.43 11-.72 3.13-1.07 4.7-1.78 7.83-1.9 8.35-6.74 13.48-17.28 15z" fill="#003"/><path d="m404.55 310.21c-.4.08-24.85 3.2-41.38 5.24-12.84 1.58-20.21 9.08-22.88 22.49-3.34 16.8-5 25.23-8.33 42.18l14.26-2.12c1.25-6.29 1.87-9.44 3.12-15.72l50.36-7c-1.24 6.1-1.87 9.16-3.11 15.29l14.26-2.07c3.38-16.48 5.07-24.69 8.47-41 2.68-13.05-1.93-18.88-14.77-17.29zm-52.84 40.2c1-5.15 1.55-7.73 2.58-12.87 1.12-5.58 4.14-8.72 9.24-9.37l37.19-4.76c3.83-.47 5 2.62 4 7.38-1.05 5.11-1.58 7.67-2.63 12.79z" fill="#003"/><path d="m160.33 340.28-15 1.85c-4.77 26.57-7.14 39.93-11.87 66.83l15-2.18c4.71-26.78 7.09-40.07 11.87-66.5z" fill="#003"/><path d="m243.18 330.06-14.39 1.78-.63.08-14.39 1.77c-4.83 26-7.23 39-12 65.34l29.34-4.26c4.8-26.05 7.22-38.99 12.07-64.71z" fill="#003"/><path d="m197.92 335.64-6.8.84-8.22 1-6.8.84c-4.8 26.3-7.18 39.54-11.94 66.17l21.77-3.17c4.78-26.43 7.18-39.57 11.99-65.68z" fill="#0056a7"/><path d="m366.74 412.78a3.26 3.26 0 0 1 .68 2.17v3.7a3.24 3.24 0 0 1 -.68 2.19 2.38 2.38 0 0 1 -1.9.79 2.42 2.42 0 0 1 -.86-.16 2.08 2.08 0 0 1 -.79-.5.05.05 0 0 0 -.07 0 .08.08 0 0 0 0 .07v3.7a.2.2 0 0 1 -.06.15.2.2 0 0 1 -.16.07h-1.68a.24.24 0 0 1 -.22-.22v-12.39a.18.18 0 0 1 .07-.15.21.21 0 0 1 .15-.07h1.68a.24.24 0 0 1 .16.07.2.2 0 0 1 .06.15v.22a.07.07 0 0 0 .05.07s.06 0 .1-.07a2.29 2.29 0 0 1 1.61-.58 2.35 2.35 0 0 1 1.86.79zm-1.74 1.38a1 1 0 0 0 -.82-.36 1 1 0 0 0 -.79.36 1.44 1.44 0 0 0 -.31 1v3.38a1.37 1.37 0 0 0 .31.94 1 1 0 0 0 .79.36 1 1 0 0 0 .82-.36 1.37 1.37 0 0 0 .31-.94v-3.38a1.44 1.44 0 0 0 -.31-1z" fill="#003"/><path d="m369.68 420.82a2.8 2.8 0 0 1 -.87-2.17v-3.65a2.83 2.83 0 0 1 .87-2.17 3.38 3.38 0 0 1 2.38-.81 3.42 3.42 0 0 1 2.4.81 2.84 2.84 0 0 1 .88 2.17v3.68a2.8 2.8 0 0 1 -.87 2.17 3.39 3.39 0 0 1 -2.41.81 3.33 3.33 0 0 1 -2.38-.84zm3.21-1.4a1.31 1.31 0 0 0 .32-.94v-3.36a1.36 1.36 0 0 0 -.32-.94 1.14 1.14 0 0 0 -1.65 0 1.39 1.39 0 0 0 -.31.95v3.36a1.35 1.35 0 0 0 .31.94 1 1 0 0 0 .82.36 1.05 1.05 0 0 0 .83-.37z" fill="#003"/><path d="m378 421.28-2-8.93v-.07c0-.11.06-.16.2-.16h1.61c.14 0 .22.06.23.2l1 5.69s0 .05.05.05 0 0 .06-.05l1-5.69c0-.14.09-.2.24-.2h1.43c.14 0 .22.06.23.2l1 5.7s0 .06.05.06 0 0 .06-.06l1-5.7c0-.14.09-.2.23-.2h1.6q.22 0 .18.24l-2 8.89a.22.22 0 0 1 -.24.2h-1.64c-.15 0-.23-.07-.24-.2l-1-5.34s0-.06-.05-.06-.05 0-.06.06l-.95 5.34c0 .13-.09.2-.24.2h-1.59a.23.23 0 0 1 -.16-.17z" fill="#003"/><path d="m393.43 417.52a.2.2 0 0 1 -.15.06h-4a.09.09 0 0 0 -.1.1v.82a1.36 1.36 0 0 0 .32.93 1 1 0 0 0 .8.37 1 1 0 0 0 .72-.27 1.27 1.27 0 0 0 .4-.68.23.23 0 0 1 .23-.19l1.63.08a.25.25 0 0 1 .16.06.19.19 0 0 1 0 .17 2.8 2.8 0 0 1 -.93 2 4 4 0 0 1 -4.62-.11 2.79 2.79 0 0 1 -.87-2.17v-3.69a2.8 2.8 0 0 1 .87-2.15 3.87 3.87 0 0 1 4.74 0 2.8 2.8 0 0 1 .87 2.15v2.42a.18.18 0 0 1 -.07.1zm-4-3.34a1.41 1.41 0 0 0 -.32.94v.82c0 .06 0 .09.1.09h2.06a.08.08 0 0 0 .09-.09v-.82a1.39 1.39 0 0 0 -.31-.95 1 1 0 0 0 -.82-.35 1 1 0 0 0 -.77.36z" fill="#003"/><path d="m399.55 412.21a.24.24 0 0 1 .11.27l-.29 1.7c0 .15-.1.19-.26.13a1.67 1.67 0 0 0 -.47-.07 1.77 1.77 0 0 0 -.41.05 1.15 1.15 0 0 0 -.83.58 2.19 2.19 0 0 0 -.32 1.2v5.17a.23.23 0 0 1 -.06.16.25.25 0 0 1 -.16.06h-1.68a.25.25 0 0 1 -.16-.06.23.23 0 0 1 -.06-.16v-8.89a.2.2 0 0 1 .06-.15.26.26 0 0 1 .16-.07h1.68a.26.26 0 0 1 .16.07.2.2 0 0 1 .06.15v.85s0 .07 0 .08 0 0 .05-.07a1.67 1.67 0 0 1 1.61-1.18 1.39 1.39 0 0 1 .81.18z" fill="#003"/><path d="m406.84 417.52a.23.23 0 0 1 -.16.06h-4c-.06 0-.09 0-.09.1v.82a1.36 1.36 0 0 0 .31.93 1 1 0 0 0 .81.37 1 1 0 0 0 .72-.27 1.2 1.2 0 0 0 .39-.68.24.24 0 0 1 .24-.19l1.63.08a.2.2 0 0 1 .15.06.2.2 0 0 1 .05.17 2.85 2.85 0 0 1 -.94 2 3.32 3.32 0 0 1 -2.24.69 3.38 3.38 0 0 1 -2.37-.8 2.79 2.79 0 0 1 -.87-2.17v-3.69a2.8 2.8 0 0 1 .87-2.15 3.86 3.86 0 0 1 4.73 0 2.8 2.8 0 0 1 .87 2.15v2.42a.2.2 0 0 1 -.1.1zm-4-3.34a1.4 1.4 0 0 0 -.31.94v.82a.08.08 0 0 0 .09.09h2.07a.08.08 0 0 0 .09-.09v-.82a1.39 1.39 0 0 0 -.31-.95 1.06 1.06 0 0 0 -.82-.35 1 1 0 0 0 -.79.36z" fill="#003"/><path d="m412.62 408.74a.2.2 0 0 1 .15-.06h1.68a.21.21 0 0 1 .16.06.25.25 0 0 1 .06.16v12.36a.25.25 0 0 1 -.06.16.21.21 0 0 1 -.16.06h-1.68a.2.2 0 0 1 -.15-.06.21.21 0 0 1 -.07-.16v-.26a.08.08 0 0 0 0-.07.07.07 0 0 0 -.08 0 2.28 2.28 0 0 1 -1.64.64 2.33 2.33 0 0 1 -1.9-.81 3.18 3.18 0 0 1 -.68-2.16v-3.6a3.22 3.22 0 0 1 .68-2.17 2.38 2.38 0 0 1 1.9-.79 2.69 2.69 0 0 1 .86.15 2.2 2.2 0 0 1 .78.51s.05 0 .08 0 0 0 0-.07v-3.73a.21.21 0 0 1 .07-.16zm-.43 10.78a1.36 1.36 0 0 0 .36-.76v-3.9a1.32 1.32 0 0 0 -.36-.76 1 1 0 0 0 -.73-.28 1.06 1.06 0 0 0 -.83.35 1.45 1.45 0 0 0 -.31.95v3.38a1.42 1.42 0 0 0 .31.94 1 1 0 0 0 .83.36 1.05 1.05 0 0 0 .73-.28z" fill="#003"/><path d="m425.79 412.78a3.22 3.22 0 0 1 .68 2.17v3.71a3.23 3.23 0 0 1 -.68 2.16 2.33 2.33 0 0 1 -1.9.81 2.26 2.26 0 0 1 -1.64-.64.07.07 0 0 0 -.08 0 .08.08 0 0 0 0 .07v.22a.21.21 0 0 1 -.07.16.2.2 0 0 1 -.15.06h-1.69a.2.2 0 0 1 -.15-.06.26.26 0 0 1 -.07-.16v-12.38a.26.26 0 0 1 .07-.16.2.2 0 0 1 .15-.06h1.69a.2.2 0 0 1 .15.06.21.21 0 0 1 .07.16v3.69s0 .06 0 .07a.13.13 0 0 0 .1-.07 2.21 2.21 0 0 1 .78-.46 2.78 2.78 0 0 1 .83-.14 2.38 2.38 0 0 1 1.91.79zm-1.73 1.39a1.06 1.06 0 0 0 -.83-.35 1 1 0 0 0 -.73.28 1.27 1.27 0 0 0 -.36.76v3.9a1.29 1.29 0 0 0 .36.76 1.05 1.05 0 0 0 .73.28 1 1 0 0 0 .83-.36 1.42 1.42 0 0 0 .31-.94v-3.38a1.45 1.45 0 0 0 -.31-.95z" fill="#003"/><path d="m427.71 425.06a.41.41 0 0 1 0-.16v-1.32a.25.25 0 0 1 .05-.15.19.19 0 0 1 .13-.07 2.9 2.9 0 0 0 .95-.15 1.1 1.1 0 0 0 .56-.53 3.31 3.31 0 0 0 .3-1.14v-.11l-2.3-9.08v-.07c0-.11.07-.16.2-.16h1.79c.15 0 .23.06.24.2l1.12 6.05s0 .06.05.06 0 0 .06-.06l1.07-6.05a.21.21 0 0 1 .24-.2h1.81c.17 0 .24.08.2.24l-2.45 9.6a7.7 7.7 0 0 1 -.73 1.94 2.12 2.12 0 0 1 -1.08.92 5.72 5.72 0 0 1 -2 .27h-.09s-.09.01-.12-.03z" fill="#003"/><path d="m485.88 403.08c.1-4.7-1.93-8.77-6.52-10.71a19.69 19.69 0 0 0 -9.73-1 37.22 37.22 0 0 0 -12.13 3.63c-14.23 7.25-19.71 22.14-9 22.56.23 0-4.57-7 14-15.87-9.8 13.68-25.56 47.47-6.77 47.67a.66.66 0 0 0 .51-.17.4.4 0 0 0 .21-.44 63.57 63.57 0 0 1 2.06-22.33 37.79 37.79 0 0 0 18.62-7.87c4.33-3.51 8.57-8.93 8.71-15.48zm-19.17 14a19 19 0 0 1 -5.2 1.13 81.47 81.47 0 0 1 9.05-16 1.07 1.07 0 0 0 -.5-1.63 23.49 23.49 0 0 0 -2.71-.87c2.44-.82 6.78-1.39 9.24-.07a4.67 4.67 0 0 1 2.41 5.4 14.5 14.5 0 0 1 -3.43 5.92 22.5 22.5 0 0 1 -8.86 6.13zm24.72-11.24a4.08 4.08 0 0 0 3.73-3.69 3 3 0 0 0 -3-3.43 4.07 4.07 0 0 0 -3.73 3.65 3 3 0 0 0 3 3.47zm10.34 15.19c.2.9 1.47 1 2.22.74a9 9 0 0 0 2.35-1.65 34.6 34.6 0 0 0 3.65-3.91c.43-.55.85-1.13 1.23-1.72a.13.13 0 0 1 .23.12 22.69 22.69 0 0 1 -1.4 4.14 25.23 25.23 0 0 1 -3.78 6.31 11.63 11.63 0 0 1 -4.71 3.52c-1.59.57-3.91.7-5.36-.25a3.23 3.23 0 0 1 -1.21-1.45 8 8 0 0 1 -.19-4.53 20.25 20.25 0 0 1 -5.68 6.44 6.4 6.4 0 0 1 -4.75 1.08 3.61 3.61 0 0 1 -2.37-1.8c-.93-1.64-.59-3.86-.14-5.59 1.29-4.92 2.63-7.56 5.22-14.15a1.31 1.31 0 0 1 1.27-.89 9.46 9.46 0 0 1 3.32.71c1.24.54 1.49 1.35.93 2.59-1.62 3-7.22 12.53-2.57 12.39 1.23 0 2.72-1.51 4.07-3.23 3.12-4 5.54-10 7.58-14.72-2.5.57-3.85-.33-5.53-2a4.3 4.3 0 0 0 -.47-3.88 1.34 1.34 0 0 1 2-.32l.7.42a4.12 4.12 0 0 0 3.17.44c.67-.14 1.32-.38 2.06-.57a4 4 0 0 0 -1.44-3.62s0 0 0-.06a7.5 7.5 0 0 1 .71-.67 3.56 3.56 0 0 1 2.54-.78 3.9 3.9 0 0 1 2.74 1.35 5.24 5.24 0 0 1 .93 2.64c.9-.14 2.18-.25 3-.29 2.25-.11 5.11.11 6.44 2.19a2.46 2.46 0 0 1 .22.39c-.82.8-1.59 1.64-2.32 2.5-2.61-.57-6.42.21-8.27.66-.86 2.65-2.06 5.52-2.84 7.28-1.7 3.88-3.88 8.41-3.47 10.29zm82.08-16.17c-.33 1.29-.6 2.91-1 4.51a14.22 14.22 0 0 1 -1.63 4.06c-.8 1.24-2 2.42-3.07 2.52-3.73.39-.59-6.93 1-10.52a12.5 12.5 0 0 0 .63-1.59 1.86 1.86 0 0 0 -.11-1.23 2.26 2.26 0 0 0 -1.62-1.3 6.07 6.07 0 0 0 -2.5-.29 1 1 0 0 0 -.84.73c-.4.86-.73 2.14-1 3.07-.8 2.39-1.45 4.55-1.92 6.46-.22.89-.4 1.72-.55 2.5a14.88 14.88 0 0 1 -1 1.38 4.42 4.42 0 0 1 -2.46 1.83c-4.2.43.12-8.8 1.27-11.61a2.14 2.14 0 0 0 -1.35-2.88 10.94 10.94 0 0 0 -2.46-.37.94.94 0 0 0 -.29 0c-.67.09-.89.64-1 1.26 0 .17-.08.34-.11.5a4.17 4.17 0 0 0 -3.88-1.24c-2.67.27-5 2.07-6.88 4.51 1.67-5.83-.11-11.32-5.56-13.62a18.56 18.56 0 0 0 -9.18-1 34.75 34.75 0 0 0 -11.44 3.46c-13.42 6.84-18.59 20.88-8.49 21.27.22 0-4.31-6.6 13.25-15-9.25 12.9-24.11 44.78-6.39 45a.63.63 0 0 0 .48-.16c.13-.1.26-.24.2-.42a59.82 59.82 0 0 1 1.95-21.07c10.38-1.5 17.73-6.37 21.86-11.93-.94 3-1.19 5.94-.55 8 1.15 3.66 5.12 3 7.51 1a15.62 15.62 0 0 0 3.51-4.35c-.1 2.51.74 4.36 3 4.68a5.32 5.32 0 0 0 3.07-.47 12.58 12.58 0 0 0 4.59-4.59c0 3.05 1.62 4.72 4.63 4.42 1.55-.16 4-1.31 4.87-2.86-.2.74-.41 1.42-.64 2.06a40.31 40.31 0 0 1 -2.42 5.37c-1.56 2.6-3.42 3.83-5.5 3.91-2.34.28-3.75-2.09-1-4.9l.07-.06a1.53 1.53 0 0 1 .18-.18l.07-.08a.15.15 0 0 0 -.11-.25h-.33c-10.16 1.22-9.45 12 1 11a14.4 14.4 0 0 0 8.07-3.87c2-1.95 3.92-6.41 4.69-9.18.59-2.11 1.16-4.26 1.71-6.33.44-1.59.86-3.1 1.26-4.51.21-.74.43-1.45.65-2.12.95-2.92 1.71-6.11 3-8.58s-1.62-2.85-3.23-2.77a3 3 0 0 0 -2 .63c-.92.86-1.58 3.78-1.93 5.12zm-48.39 12a17.82 17.82 0 0 1 -4.91 1.07 77.3 77.3 0 0 1 8.54-15.1 1 1 0 0 0 -.47-1.54 23.37 23.37 0 0 0 -2.55-.82c2.29-.77 6.39-1.32 8.71-.07a4.41 4.41 0 0 1 2.28 5.09 13.71 13.71 0 0 1 -3.24 5.59 21.17 21.17 0 0 1 -8.36 5.78zm19.84.68c-.65-.18-1.08-1.07-.93-2.9.32-3.84 3.65-8.57 5.92-8.21 1.14.21 1.44 1.29 1.15 2.37a29.31 29.31 0 0 1 -1.68 5c-1 2.41-3.06 4.15-4.46 3.77zm37.5-17.4v-1.65h-.49v-.51h1.56v.51h-.49v1.65zm3.83 0h-.55l-.13-.93a1.5 1.5 0 0 1 0-.22 2.11 2.11 0 0 1 0-.26c0 .09 0 .2-.08.34v.06l-.3 1h-.39l-.29-1v-.06a2.26 2.26 0 0 1 -.08-.34v.24.24l-.12.93h-.69l.33-2.16h.58l.33 1.12a0 0 0 0 0 0 0 1.85 1.85 0 0 1 .06.26.69.69 0 0 1 0-.13 1.46 1.46 0 0 0 0-.17l.33-1.11h.59z" fill="#003" fill-rule="evenodd"/></g><path d="m457.52 182.25v-4.71h-1.38v-1.45h4.44v1.45h-1.38v4.7z" fill="#003" fill-rule="evenodd"/><path d="m601.9 344.65h-1.57l-.33-2.65c0-.19-.05-.4-.07-.63s0-.48-.06-.75a8.6 8.6 0 0 1 -.23 1c0 .08 0 .14-.06.18l-.83 2.89h-1.15l-.84-2.89a1.32 1.32 0 0 0 0-.18 6.85 6.85 0 0 1 -.23-1c0 .24 0 .47-.06.69s0 .46-.08.69l-.36 2.66h-1.56l1-6.16h1.53l.93 3.18v.11a4.37 4.37 0 0 1 .16.72 2.7 2.7 0 0 1 .06-.36c0-.13.08-.29.13-.48l.93-3.17h1.79z" fill="#003" fill-rule="evenodd" transform="translate(-133.44 -162.41)"/><path d="m411.67 286.39c-3.13-12.55-5.44-21.85-9.1-36.59l-.12-.49.11-.5c4.38-19.59 6.53-29.14 11-48.64 2.57-12 7.7-19.76 25.28-21l66.1-5.06c2.09-.16 4.08-.24 5.93-.24 10.27 0 17.23 2.46 21.27 7.52 4.74 5.93 5.38 15.07 2.07 29.65-6.19 27.33-18.7 41.61-38.24 43.68-.66.06-1.31.11-2 .14 3.31 3.47 8.86 9.2 14 14.47 4.17 4.3 8.45 8.73 12 12.46l3 3.13-4.31.51c-8.8 1-15.49 1.89-21.95 2.7s-13.2 1.66-22 2.71l-1.33.15-.73-1.11c-3.65-5.55-7.3-11.46-10.82-17.18-3.25-5.28-6.62-10.74-10-15.89l-.07-.11c-2.54-4.49-4.94-8.74-1.43-16.66 3.12-7.05 9.95-10.65 22.85-12l.61-.07.72-.07c9.76-.94 13.13-3.68 15-12.24.81-3.64.78-5.93-.07-7s-2.52-1.37-5.42-1.37c-1.07 0-2.28.06-3.71.18l-18.94 1.65c-4.35.37-6.57 2.19-7.41 6.05l-.09.43c-6.54 30.13-10.14 46.72-16.82 78.4l-.32 1.52-1.55.18-2.86.36c-3.88.51-10.37 1.35-15.87 2l-1.88.21z" fill="#003" transform="translate(-133.44 -162.41)"/><path d="m489.29 253c2.12-.22 4.29-.18 6.41-.4 24.74-2.61 32.82-26.38 36.36-42 5.32-23.43 1.37-36.47-27-34.3l-66.06 5.01c-16.33 1.16-20.89 8-23.32 19.34-4.4 19.34-6.59 29.06-11 48.63 4.55 18.36 7 28.28 11.57 46.55 7.64-.86 17.41-2.18 18.72-2.33 6.72-31.82 10.24-48 16.92-78.83 1.05-4.83 4-7.3 9.33-7.76l19-1.64c10.62-.92 13.6 1.29 11.49 10.81s-6.38 12.92-16.99 13.92c-.85.08-.46.06-1.3.14-12.42 1.33-18.42 4.65-21.12 10.76-3.05 6.9-1.13 10.36 1.34 14.73 7 10.75 13.79 22.42 20.78 33.05 17.65-2.08 26.35-3.32 44-5.4-11.18-11.62-29.18-30.06-29.13-30.28z" fill="#0056a7" transform="translate(-133.44 -162.41)"/><path d="m146 328.33c7.44-40.88 15.54-84.79 23.42-127l.31-1.63 44.54-3.4-.54 2.78c-7.55 39.25-15.16 80.15-22.52 119.71l-1.32 7.12-1.58.19c-7.95.94-13.93 1.66-19.91 2.38s-12 1.45-20 2.39l-2.9.35z" fill="#003" transform="translate(-133.44 -162.41)"/><path d="m148.13 328.72c16-1.89 24-2.89 39.94-4.77 7.65-41.16 15.64-84.19 23.55-125.29l-40.06 3.06c-7.78 41.67-15.83 85.28-23.43 127z" fill="#0056a7" transform="translate(-133.44 -162.41)"/><path d="m555.68 278c7.27-32.16 10.94-48.19 18-78.65l-32.08 2.78.66-2.89c2.47-10.8 3.71-16.19 6.19-26.92l.36-1.55 108.87-8.32-.68 2.85c-2.52 10.3-3.79 15.47-6.31 25.85l-.36 1.51-32.09 2.78c-7.35 30.86-11 46.63-18.48 78.76l-.34 1.48-44.42 5.26z" fill="#003" transform="translate(-133.44 -162.41)"/><path d="m654.92 164.79-104.32 8c-2.49 10.73-3.72 16.11-6.2 26.92l32.1-2.78c-7.52 32.27-11.27 48.57-18.71 81.52l39.87-4.72c7.51-32.45 11.28-48.51 18.85-80.28l32.1-2.79c2.52-10.4 3.78-15.57 6.31-25.87z" fill="#0056a7" transform="translate(-133.44 -162.41)"/><path d="m239.91 318.47c-11.93-18.12-18.52-28.19-29.36-44.9-7.14-11.51-6.11-19.42 4.07-31.37 16.93-19.81 25.2-29.34 42.18-48.55l.58-.65 54.27-4.15-4.21 4.15c-12.78 12.56-22.61 22.94-33 33.92-6.84 7.22-13.9 14.68-22.24 23.22-4.58 5-4.6 6.54-.16 12.09 8.23 10.49 14.56 18 21.26 26 5.49 6.52 11.17 13.26 18.06 21.87l2.43 3-3.86.45c-8.74 1-23.39 2.86-34.09 4.18-6.61.82-11.91 1.48-13.86 1.71l-1.33.16z" fill="#003" transform="translate(-133.44 -162.41)"/><path d="m289.67 311.4c-15.09-18.85-24.19-28.52-39.33-47.83-5.11-6.39-5.06-9.15.3-14.95 21.08-21.6 34.12-36.36 55.28-57.17l-33.61 2.55-13.89 1.06c-16.9 19.12-25.33 28.82-42.16 48.52-10.23 12-10.13 18.75-3.9 28.79 11.39 17.54 18 27.65 29.36 44.9 5.15-.59 33.91-4.21 47.95-5.87z" fill="#0056a7" transform="translate(-133.44 -162.41)"/><path d="m299 311.83c-9.1-11.37-13.53-17-22.6-28.45l-.92-1.16.76-1.28c19.06-32.06 28.41-47.44 47.6-78.34l.09-.13c7.1-9.8 12.87-15.85 33-17.38 1.56-.11 3.08-.17 4.52-.17 16.22 0 21.62 7.41 23.3 13.62 9.82 39.75 14.71 59.5 24.47 98.81l.59 2.38-46.63 5.53-4.84-23.26-41.71 4.58c-5.49 9.64-8.37 14.72-14.1 24.92l-1.57 2.8zm50.29-83.71c-5.95 9.95-9.72 16.38-15 25.62l19.13-1.92-3-17.23z" fill="#003" transform="translate(-133.44 -162.41)"/><path d="m407.1 297.87c-9.76-39.31-14.65-59.06-24.45-98.76-2.34-8.66-10.89-13-25.57-11.86-19.26 1.45-24.51 6.93-31.45 16.49-19.09 30.74-28.61 46.41-47.57 78.31 9 11.45 13.56 17.14 22.58 28.43 5.86-10.41 8.79-15.59 14.66-25.89l44.76-4.91c.08.41.12.61.21 1 1.84 8.88 2.76 13.31 4.61 22.18l10.73-1.27zm-56.73-75.82c.77 4.29 4.31 24.51 5.59 31.69l-14 1.4-11.58 1.16c7.3-12.98 11.37-19.89 19.99-34.25z" fill="#0056a7" transform="translate(-133.44 -162.41)"/></svg>