<?xml version="1.0" encoding="UTF-8"?>
<svg width="46px" height="46px" viewBox="0 0 46 46" version="1.1" xmlns="http://www.w3.org/2000/svg" xmlns:xlink="http://www.w3.org/1999/xlink">
    <!-- Generator: Sketch 58 (84663) - https://sketch.com -->
    <title>COMMUNICATION</title>
    <desc>Created with Sketch.</desc>
    <g id="Page-1" stroke="none" stroke-width="1" fill="none" fill-rule="evenodd">
        <g id="Desktop-Sales-Site" transform="translate(-457.000000, -3196.000000)" fill="#C0FF02">
            <g id="features_02" transform="translate(140.000000, 2635.000000)">
                <g id="Features">
                    <g id="Left-col">
                        <g id="Feature" transform="translate(0.000000, 553.000000)">
                            <path d="M330.373,34 L334,34 L334,35 L334,36 L324,36 L324,35 L324,34 L330.373,34 Z M331,28 L344,28 L344,29 L344,30 L343.007,30 L339,30 L331,30 L329,30 L324,30 L324,29 L324,28 L329,28 L331,28 Z M361,31.009 C361,32.105 360.104,33 359.004,33 L356.429,33 L356,33 L354.429,33 L354.429,35 L354.429,38.196 L351,35.056 L351,35 L351,33 L351,31 L351,29 L351,23.991 C351,21.79 349.209,20 347.004,20 L331,20 L331,15 L331,11.991 C331,10.895 331.895,10 332.996,10 L359.004,10 C360.111,10 361,10.889 361,11.991 L361,31.009 Z M349,43.009 C349,44.111 348.111,45 347.004,45 L334.602,45 L331.619,45 L329.994,46.47 L329.407,47 L326,50.081 L326,47 L326,46.47 L326,45 L324,45 L320.996,45 C319.895,45 319,44.105 319,43.009 L319,41 L319,35 L319,29 L319,23.991 C319,23.628 319.103,23.293 319.272,23 C319.616,22.404 320.254,22 320.996,22 L324,22 L329,22 L331,22 L347.004,22 C347.741,22 348.379,22.406 348.725,23 C348.894,23.293 349,23.629 349,23.991 L349,29 L349,31 L349,33 L349,33.224 L349,35 L349,35.936 L349,43.009 Z M359.004,8 L332.996,8 C330.791,8 329,9.79 329,11.991 L329,15 L329,20 L324,20 L320.996,20 C318.785,20 317,21.784 317,23.991 L317,43.009 C317,45.21 318.791,47 320.996,47 L324,47 L324,52.333 C324,53.2 325.027,53.656 325.671,53.075 L332.391,47 L347.004,47 C347.72,47 348.381,46.798 348.962,46.47 C350.174,45.785 351,44.501 351,43.009 L351,37.768 L354.753,41.205 C355.131,41.551 355.642,41.529 356,41.279 C356.25,41.105 356.429,40.825 356.429,40.468 L356.429,35 L359.004,35 C361.209,35 363,33.21 363,31.009 L363,11.991 C363,9.784 361.215,8 359.004,8 L359.004,8 Z" id="COMMUNICATION"></path>
                        </g>
                    </g>
                </g>
            </g>
        </g>
    </g>
</svg>