<?xml version="1.0" encoding="UTF-8"?>
<svg width="33px" height="44px" viewBox="0 0 33 44" version="1.1" xmlns="http://www.w3.org/2000/svg" xmlns:xlink="http://www.w3.org/1999/xlink">
    <!-- Generator: Sketch 58 (84663) - https://sketch.com -->
    <title>UX</title>
    <desc>Created with Sketch.</desc>
    <g id="Page-1" stroke="none" stroke-width="1" fill="none" fill-rule="evenodd">
        <g id="Desktop-Sales-Site" transform="translate(-466.000000, -3010.000000)" fill="#C0FF02">
            <g id="features_02" transform="translate(140.000000, 2635.000000)">
                <g id="Features">
                    <g id="Left-col">
                        <g id="Feature" transform="translate(0.000000, 375.000000)">
                            <path d="M339.0157,15.479 L339.0157,11.493 C339.0157,10.67 339.6847,10 340.5077,10 C341.3307,10 341.9997,10.67 341.9997,11.493 L341.9997,15.979 L341.9997,17.711 L341.9997,17.768 L341.9997,27.711 C341.9997,28.264 342.4477,28.711 342.9997,28.711 C343.5527,28.711 343.9997,28.264 343.9997,27.711 L343.9997,19.768 C344.4847,19.768 344.9627,19.592 345.3367,19.255 C345.4667,19.139 345.6867,19 345.9997,19 C346.5287,19 346.9567,19.398 346.9967,19.926 C347.0077,20.062 347.0467,20.188 347.0827,20.316 C347.0307,20.437 346.9997,20.57 346.9997,20.711 L346.9997,28.711 C346.9997,29.264 347.4477,29.711 347.9997,29.711 C348.5527,29.711 348.9997,29.264 348.9997,28.711 L348.9997,21.774 C349.4847,21.772 349.9607,21.595 350.3337,21.258 C350.4637,21.14 350.6847,21 350.9997,21 C351.5607,21 351.9997,21.443 351.9997,22.009 L351.9997,23.711 L351.9997,23.765 L351.9997,29.711 C351.9997,30.264 352.4477,30.711 352.9997,30.711 C353.5527,30.711 353.9997,30.264 353.9997,29.711 L353.9997,25.765 C354.4827,25.765 354.9597,25.59 355.3337,25.255 C355.4637,25.139 355.6847,25 355.9997,25 C356.5517,25 356.9997,25.448 356.9997,25.999 L356.9997,33.008 C356.9997,37.966 352.9657,42 348.0077,42 C344.7407,42 341.7257,40.224 340.1387,37.363 C340.0927,37.28 340.0367,37.195 339.9787,37.12 L339.9537,37.086 L331.2407,24.523 C330.8517,23.963 330.9347,22.978 331.3957,22.511 C331.5847,22.325 331.8327,22.222 332.0957,22.222 C332.3597,22.222 332.6087,22.327 332.7987,22.517 L335.6017,25.318 C335.9847,25.701 336.4957,25.904 337.0157,25.904 C337.2737,25.904 337.5337,25.854 337.7817,25.752 C338.5287,25.442 339.0157,24.713 339.0157,23.904 L339.0157,15.479 Z M334.9697,14 L334.9697,14.001 L334.9697,14 Z M337.0157,14.001 L337.0157,23.904 L334.2127,21.102 C333.6257,20.515 332.8607,20.222 332.0957,20.222 C331.3337,20.222 330.5737,20.512 329.9897,21.089 C328.8377,22.253 328.6547,24.306 329.5977,25.664 L338.3107,38.226 C338.3367,38.262 338.3627,38.299 338.3897,38.334 C340.2657,41.714 343.8697,44 348.0077,44 C354.0797,44 358.9997,39.078 358.9997,33.008 L358.9997,33.004 L358.9997,33.001 L358.9997,25.999 C358.9997,24.342 357.6567,23 355.9997,23 C355.2327,23 354.5317,23.289 353.9997,23.765 L353.9997,23.711 L353.9997,22.009 C353.9997,20.336 352.6567,19 350.9997,19 C350.2287,19 349.5237,19.293 348.9917,19.775 C348.8727,18.214 347.5787,17 345.9997,17 C345.2327,17 344.5317,17.29 343.9997,17.768 L343.9997,17.711 L343.9997,14.001 L337.0157,14.001 Z M346.0957,14.001 L346.0957,14 L346.0957,14.001 Z M340.5077,8 C342.4367,8 343.9997,9.568 343.9997,11.493 L343.9997,11.493 L343.9997,14 L337.0157,14 L337.0157,11.493 C337.0157,9.564 338.5827,8 340.5077,8 Z M350.997,-1.0658141e-13 C354.865,-1.0658141e-13 358,3.142 358,7 C358,10.866 354.873,14 350.997,14 L350.997,14 L346.096,14 L346.096,12 L350.997,12 C353.766,12 356,9.765 356,7 C356,4.244 353.758,2 350.997,2 L350.997,2 L333.003,2 C330.234,2 328,4.235 328,7 C328,9.756 330.243,12 333.003,12 L333.003,12 L334.97,12 L334.97,14 L333.003,14 C329.135,14 326,10.858 326,7 C326,3.134 329.127,-1.0658141e-13 333.003,-1.0658141e-13 L333.003,-1.0658141e-13 Z" id="UX"></path>
                        </g>
                    </g>
                </g>
            </g>
        </g>
    </g>
</svg>