<?xml version="1.0" encoding="UTF-8"?>
<svg width="403px" height="422px" viewBox="0 0 403 422" version="1.1" xmlns="http://www.w3.org/2000/svg" xmlns:xlink="http://www.w3.org/1999/xlink">
    <!-- Generator: Sketch 55.2 (78181) - https://sketchapp.com -->
    <title>PitPayPitPassApp</title>
    <desc>Created with Sketch.</desc>
    <defs>
        <path d="M8.912,0.98032 C10.4864612,0.98032 11.875234,1.3665028 13.07836,2.13888 C14.281486,2.9112572 15.2172367,3.99553969 15.88564,5.39176 C16.5540433,6.78798031 16.88824,8.37727109 16.88824,10.15968 C16.88824,12.8332934 16.1827137,14.9870052 14.77164,16.62088 C13.3605663,18.2547548 11.4964916,19.07168 9.17936,19.07168 L5.39176,19.07168 C5.24322592,19.07168 5.16896,19.1459459 5.16896,19.29448 L5.16896,31.68216 C5.16896,31.8306941 5.11697385,31.9569461 5.013,32.06092 C4.90902615,32.1648939 4.78277408,32.21688 4.63424,32.21688 L0.53472,32.21688 C0.386185924,32.21688 0.259933853,32.1648939 0.15596,32.06092 C0.0519861468,31.9569461 0,31.8306941 0,31.68216 L0,1.51504 C0,1.36650592 0.0519861468,1.24025385 0.15596,1.13628 C0.259933853,1.03230615 0.386185924,0.98032 0.53472,0.98032 L8.912,0.98032 Z M8.06536,15.01672 C9.16451216,15.01672 10.0482767,14.5934042 10.71668,13.74676 C11.3850833,12.9001158 11.71928,11.7489939 11.71928,10.29336 C11.71928,8.80801924 11.3850833,7.62719105 10.71668,6.75084 C10.0482767,5.87448895 9.16451216,5.43632 8.06536,5.43632 L5.39176,5.43632 C5.24322592,5.43632 5.16896,5.51058592 5.16896,5.65912 L5.16896,14.79392 C5.16896,14.9424541 5.24322592,15.01672 5.39176,15.01672 L8.06536,15.01672 Z M22.77016,6.32752 C21.8492487,6.32752 21.0917363,6.0304563 20.4976,5.43632 C19.9034637,4.8421837 19.6064,4.08467127 19.6064,3.16376 C19.6064,2.24284873 19.9034637,1.4853363 20.4976,0.8912 C21.0917363,0.297063696 21.8492487,0 22.77016,0 C23.6910713,0 24.4411571,0.297063696 25.02044,0.8912 C25.5997229,1.4853363 25.88936,2.24284873 25.88936,3.16376 C25.88936,4.08467127 25.5922963,4.8421837 24.99816,5.43632 C24.4040237,6.0304563 23.6613645,6.32752 22.77016,6.32752 Z M20.76496,32.21688 C20.6164259,32.21688 20.4901739,32.1648939 20.3862,32.06092 C20.2822261,31.9569461 20.23024,31.8306941 20.23024,31.68216 L20.23024,9.98144 C20.23024,9.83290592 20.2822261,9.70665385 20.3862,9.60268 C20.4901739,9.49870615 20.6164259,9.44672 20.76496,9.44672 L24.86448,9.44672 C25.0130141,9.44672 25.1392661,9.49870615 25.24324,9.60268 C25.3472139,9.70665385 25.3992,9.83290592 25.3992,9.98144 L25.3992,31.68216 C25.3992,31.8306941 25.3472139,31.9569461 25.24324,32.06092 C25.1392661,32.1648939 25.0130141,32.21688 24.86448,32.21688 L20.76496,32.21688 Z M39.16824,12.56592 C39.16824,12.7144541 39.1162539,12.8407061 39.01228,12.94468 C38.9083061,13.0486539 38.7820541,13.10064 38.63352,13.10064 L35.8708,13.10064 C35.7222659,13.10064 35.648,13.1749059 35.648,13.32344 L35.648,24.99816 C35.648,26.0378985 35.8410914,26.758278 36.22728,27.15932 C36.6134686,27.560362 37.1927428,27.7460268 37.96512,27.71632 L38.27704,27.71632 C38.4255741,27.71632 38.5518261,27.7683061 38.6558,27.87228 C38.7597739,27.9762539 38.81176,28.1025059 38.81176,28.25104 L38.81176,31.68216 C38.81176,31.8306941 38.7597739,31.9569461 38.6558,32.06092 C38.5518261,32.1648939 38.4255741,32.21688 38.27704,32.21688 L36.762,32.21688 C34.7419366,32.21688 33.2194851,31.8455504 32.1946,31.10288 C31.1697149,30.3602096 30.65728,28.9640102 30.65728,26.91424 L30.65728,13.32344 C30.65728,13.1749059 30.5830141,13.10064 30.43448,13.10064 L28.87488,13.10064 C28.7263459,13.10064 28.6000939,13.0486539 28.49612,12.94468 C28.3921461,12.8407061 28.34016,12.7144541 28.34016,12.56592 L28.34016,9.98144 C28.34016,9.83290592 28.3921461,9.70665385 28.49612,9.60268 C28.6000939,9.49870615 28.7263459,9.44672 28.87488,9.44672 L30.43448,9.44672 C30.5830141,9.44672 30.65728,9.37245408 30.65728,9.22392 L30.65728,4.32232 C30.65728,4.17378592 30.7092661,4.04753385 30.81324,3.94356 C30.9172139,3.83958615 31.0434659,3.7876 31.192,3.7876 L35.11328,3.7876 C35.2618141,3.7876 35.3880661,3.83958615 35.49204,3.94356 C35.5960139,4.04753385 35.648,4.17378592 35.648,4.32232 L35.648,9.22392 C35.648,9.37245408 35.7222659,9.44672 35.8708,9.44672 L38.63352,9.44672 C38.7820541,9.44672 38.9083061,9.49870615 39.01228,9.60268 C39.1162539,9.70665385 39.16824,9.83290592 39.16824,9.98144 L39.16824,12.56592 Z M60.33424,0.98032 C61.9087012,0.98032 63.297474,1.3665028 64.5006,2.13888 C65.703726,2.9112572 66.6394767,3.99553969 67.30788,5.39176 C67.9762833,6.78798031 68.31048,8.37727109 68.31048,10.15968 C68.31048,12.8332934 67.6049537,14.9870052 66.19388,16.62088 C64.7828063,18.2547548 62.9187316,19.07168 60.6016,19.07168 L56.814,19.07168 C56.6654659,19.07168 56.5912,19.1459459 56.5912,19.29448 L56.5912,31.68216 C56.5912,31.8306941 56.5392139,31.9569461 56.43524,32.06092 C56.3312661,32.1648939 56.2050141,32.21688 56.05648,32.21688 L51.95696,32.21688 C51.8084259,32.21688 51.6821739,32.1648939 51.5782,32.06092 C51.4742261,31.9569461 51.42224,31.8306941 51.42224,31.68216 L51.42224,1.51504 C51.42224,1.36650592 51.4742261,1.24025385 51.5782,1.13628 C51.6821739,1.03230615 51.8084259,0.98032 51.95696,0.98032 L60.33424,0.98032 Z M59.4876,15.01672 C60.5867522,15.01672 61.4705167,14.5934042 62.13892,13.74676 C62.8073233,12.9001158 63.14152,11.7489939 63.14152,10.29336 C63.14152,8.80801924 62.8073233,7.62719105 62.13892,6.75084 C61.4705167,5.87448895 60.5867522,5.43632 59.4876,5.43632 L56.814,5.43632 C56.6654659,5.43632 56.5912,5.51058592 56.5912,5.65912 L56.5912,14.79392 C56.5912,14.9424541 56.6654659,15.01672 56.814,15.01672 L59.4876,15.01672 Z M79.22768,9.09024 C81.5745184,9.09024 83.4757261,9.7734865 84.93136,11.14 C86.3869939,12.5065135 87.1148,14.3037489 87.1148,16.53176 L87.1148,31.68216 C87.1148,31.8306941 87.0628139,31.9569461 86.95884,32.06092 C86.8548661,32.1648939 86.7286141,32.21688 86.58008,32.21688 L82.48056,32.21688 C82.3320259,32.21688 82.2057739,32.1648939 82.1018,32.06092 C81.9978261,31.9569461 81.94584,31.8306941 81.94584,31.68216 L81.94584,30.83552 C81.94584,30.7463996 81.9161336,30.6869868 81.85672,30.65728 C81.7973064,30.6275732 81.7378936,30.6572796 81.67848,30.7464 C80.6387415,31.9643794 79.1237166,32.57336 77.13336,32.57336 C75.4400715,32.57336 73.9473265,32.0906315 72.65508,31.12516 C71.3628335,30.1596885 70.71672,28.3995861 70.71672,25.8448 C70.71672,23.1711866 71.4965122,21.269979 73.05612,20.14112 C74.6157278,19.012261 76.7323066,18.44784 79.40592,18.44784 L81.72304,18.44784 C81.8715741,18.44784 81.94584,18.3735741 81.94584,18.22504 L81.94584,17.06648 C81.94584,15.9970347 81.6784827,15.1429765 81.14376,14.50428 C80.6090373,13.8655835 79.940644,13.54624 79.13856,13.54624 C78.5147169,13.54624 77.9948554,13.746758 77.57896,14.1478 C77.1630646,14.548842 76.9105604,15.0909833 76.82144,15.77424 C76.7917332,16.1307218 76.5986418,16.30896 76.24216,16.30896 L71.91984,16.30896 C71.5633582,16.30896 71.3999732,16.1307218 71.42968,15.77424 C71.5782141,13.7541766 72.3728595,12.1351794 73.81364,10.9172 C75.2544205,9.69922058 77.0590825,9.09024 79.22768,9.09024 Z M78.55928,28.2956 C79.4504845,28.2956 80.2377033,28.0133895 80.92096,27.44896 C81.6042167,26.8845305 81.94584,26.0973117 81.94584,25.08728 L81.94584,22.54736 C81.94584,22.3988259 81.8715741,22.32456 81.72304,22.32456 L79.40592,22.32456 C78.3958883,22.32456 77.5789631,22.5993439 76.95512,23.14892 C76.3312769,23.6984961 76.01936,24.4931415 76.01936,25.53288 C76.01936,26.4537913 76.257011,27.1444644 76.73232,27.60492 C77.207629,28.0653756 77.8166096,28.2956 78.55928,28.2956 Z" id="path-1"></path>
        <path d="M97.8092,32.48424 C95.4623616,32.48424 93.5908603,31.919819 92.19464,30.79096 C90.7984197,29.662101 90.10032,28.132223 90.10032,26.20128 L90.10032,25.88936 C90.10032,25.7408259 90.1523061,25.6145739 90.25628,25.5106 C90.3602539,25.4066261 90.4865059,25.35464 90.63504,25.35464 L94.4672,25.35464 C94.6157341,25.35464 94.7419861,25.4066261 94.84596,25.5106 C94.9499339,25.6145739 95.00192,25.7408259 95.00192,25.88936 L95.00192,26.11216 C95.00192,26.8251236 95.2767039,27.419251 95.82628,27.89456 C96.3758561,28.369869 97.051676,28.60752 97.85376,28.60752 C98.6261372,28.60752 99.2351178,28.3847222 99.68072,27.93912 C100.126322,27.4935178 100.34912,26.9290967 100.34912,26.24584 C100.34912,25.6517037 100.156029,25.154122 99.76984,24.75308 C99.3836514,24.352038 98.9677622,24.0475477 98.52216,23.8396 C98.0765578,23.6316523 97.2744858,23.290029 96.11592,22.81472 C94.4226315,22.1611701 93.0338588,21.3293917 91.94956,20.31936 C90.8652612,19.3093283 90.32312,17.8091566 90.32312,15.8188 C90.32312,13.7393229 90.9840867,12.1128992 92.30604,10.93948 C93.6279933,9.7660608 95.417802,9.17936 97.67552,9.17936 C99.9926516,9.17936 101.82702,9.79576717 103.17868,11.0286 C104.53034,12.2614328 105.20616,13.9175629 105.20616,15.99704 C105.20616,16.1455741 105.154174,16.2718261 105.0502,16.3758 C104.946226,16.4797739 104.819974,16.53176 104.67144,16.53176 L100.9284,16.53176 C100.779866,16.53176 100.653614,16.4797739 100.54964,16.3758 C100.445666,16.2718261 100.39368,16.1455741 100.39368,15.99704 L100.39368,15.72968 C100.39368,15.0167164 100.148602,14.422589 99.65844,13.94728 C99.1682775,13.471971 98.5518704,13.23432 97.8092,13.23432 C97.0368228,13.23432 96.4204156,13.4793975 95.95996,13.96956 C95.4995044,14.4597225 95.26928,15.0464233 95.26928,15.72968 C95.26928,16.2941095 95.4475182,16.7694114 95.804,17.1556 C96.1604818,17.5417886 96.5615178,17.8462789 97.00712,18.06908 C97.4527222,18.2918811 98.1953815,18.6260778 99.23512,19.07168 C100.482806,19.5766959 101.529956,20.0742775 102.3766,20.56444 C103.223244,21.0546025 103.965903,21.7527021 104.6046,22.65876 C105.243297,23.5648179 105.56264,24.6862333 105.56264,26.02304 C105.56264,28.0133966 104.86454,29.5878342 103.46832,30.7464 C102.0721,31.9049658 100.185745,32.48424 97.8092,32.48424 Z M114.87568,32.48424 C112.528842,32.48424 110.65734,31.919819 109.26112,30.79096 C107.8649,29.662101 107.1668,28.132223 107.1668,26.20128 L107.1668,25.88936 C107.1668,25.7408259 107.218786,25.6145739 107.32276,25.5106 C107.426734,25.4066261 107.552986,25.35464 107.70152,25.35464 L111.53368,25.35464 C111.682214,25.35464 111.808466,25.4066261 111.91244,25.5106 C112.016414,25.6145739 112.0684,25.7408259 112.0684,25.88936 L112.0684,26.11216 C112.0684,26.8251236 112.343184,27.419251 112.89276,27.89456 C113.442336,28.369869 114.118156,28.60752 114.92024,28.60752 C115.692617,28.60752 116.301598,28.3847222 116.7472,27.93912 C117.192802,27.4935178 117.4156,26.9290967 117.4156,26.24584 C117.4156,25.6517037 117.222509,25.154122 116.83632,24.75308 C116.450131,24.352038 116.034242,24.0475477 115.58864,23.8396 C115.143038,23.6316523 114.340966,23.290029 113.1824,22.81472 C111.489112,22.1611701 110.100339,21.3293917 109.01604,20.31936 C107.931741,19.3093283 107.3896,17.8091566 107.3896,15.8188 C107.3896,13.7393229 108.050567,12.1128992 109.37252,10.93948 C110.694473,9.7660608 112.484282,9.17936 114.742,9.17936 C117.059132,9.17936 118.8935,9.79576717 120.24516,11.0286 C121.59682,12.2614328 122.27264,13.9175629 122.27264,15.99704 C122.27264,16.1455741 122.220654,16.2718261 122.11668,16.3758 C122.012706,16.4797739 121.886454,16.53176 121.73792,16.53176 L117.99488,16.53176 C117.846346,16.53176 117.720094,16.4797739 117.61612,16.3758 C117.512146,16.2718261 117.46016,16.1455741 117.46016,15.99704 L117.46016,15.72968 C117.46016,15.0167164 117.215082,14.422589 116.72492,13.94728 C116.234758,13.471971 115.61835,13.23432 114.87568,13.23432 C114.103303,13.23432 113.486896,13.4793975 113.02644,13.96956 C112.565984,14.4597225 112.33576,15.0464233 112.33576,15.72968 C112.33576,16.2941095 112.513998,16.7694114 112.87048,17.1556 C113.226962,17.5417886 113.627998,17.8462789 114.0736,18.06908 C114.519202,18.2918811 115.261861,18.6260778 116.3016,19.07168 C117.549286,19.5766959 118.596436,20.0742775 119.44308,20.56444 C120.289724,21.0546025 121.032383,21.7527021 121.67108,22.65876 C122.309777,23.5648179 122.62912,24.6862333 122.62912,26.02304 C122.62912,28.0133966 121.93102,29.5878342 120.5348,30.7464 C119.13858,31.9049658 117.252225,32.48424 114.87568,32.48424 Z M147.53816,32.21688 C147.181678,32.21688 146.988587,32.053495 146.95888,31.72672 L146.11224,27.04792 C146.11224,26.8993859 146.023121,26.82512 145.84488,26.82512 L139.33912,26.82512 C139.160879,26.82512 139.07176,26.8993859 139.07176,27.04792 L138.22512,31.72672 C138.195413,32.053495 138.002322,32.21688 137.64584,32.21688 L133.59088,32.21688 C133.174985,32.21688 133.0116,32.0237886 133.10072,31.6376 L139.6956,1.51504 C139.755014,1.18826503 139.948105,1.02488 140.27488,1.02488 L144.99824,1.02488 C145.325015,1.02488 145.518106,1.18826503 145.57752,1.51504 L152.1724,31.6376 L152.1724,31.81584 C152.1724,32.0832013 152.009015,32.21688 151.68224,32.21688 L147.53816,32.21688 Z M139.87384,22.54736 C139.844133,22.6958941 139.918399,22.77016 140.09664,22.77016 L145.0428,22.77016 C145.221041,22.77016 145.295307,22.6958941 145.2656,22.54736 L142.68112,8.4664 C142.651413,8.37727955 142.606854,8.33272 142.54744,8.33272 C142.488026,8.33272 142.443467,8.37727955 142.41376,8.4664 L139.87384,22.54736 Z M164.47096,9.09024 C166.461317,9.09024 168.006048,9.73635354 169.1052,11.0286 C170.204352,12.3208465 170.75392,14.0809489 170.75392,16.30896 L170.75392,25.31008 C170.75392,27.5975048 170.204352,29.3798869 169.1052,30.65728 C168.006048,31.9346731 166.461317,32.57336 164.47096,32.57336 C163.787703,32.57336 163.089604,32.4471079 162.37664,32.1946 C161.663676,31.9420921 161.024989,31.5336295 160.46056,30.9692 C160.401146,30.9097864 160.341734,30.8949332 160.28232,30.92464 C160.222906,30.9543468 160.1932,31.0137596 160.1932,31.10288 L160.1932,40.104 C160.1932,40.2525341 160.141214,40.3787861 160.03724,40.48276 C159.933266,40.5867339 159.807014,40.63872 159.65848,40.63872 L155.55896,40.63872 C155.410426,40.63872 155.284174,40.5867339 155.1802,40.48276 C155.076226,40.3787861 155.02424,40.2525341 155.02424,40.104 L155.02424,9.98144 C155.02424,9.83290592 155.076226,9.70665385 155.1802,9.60268 C155.284174,9.49870615 155.410426,9.44672 155.55896,9.44672 L159.65848,9.44672 C159.807014,9.44672 159.933266,9.49870615 160.03724,9.60268 C160.141214,9.70665385 160.1932,9.83290592 160.1932,9.98144 L160.1932,10.51616 C160.1932,10.6052804 160.230333,10.6572666 160.3046,10.67212 C160.378867,10.6869734 160.46056,10.6349873 160.54968,10.51616 C161.589419,9.56554191 162.896499,9.09024 164.47096,9.09024 Z M165.62952,16.71 C165.62952,15.7593819 165.377016,14.9870163 164.872,14.39288 C164.366984,13.7987437 163.698591,13.50168 162.8668,13.50168 C162.064716,13.50168 161.418602,13.7987437 160.92844,14.39288 C160.438278,14.9870163 160.1932,15.7593819 160.1932,16.71 L160.1932,24.9536 C160.1932,25.9042181 160.438278,26.6691571 160.92844,27.24844 C161.418602,27.8277229 162.064716,28.11736 162.8668,28.11736 C163.698591,28.11736 164.366984,27.8277229 164.872,27.24844 C165.377016,26.6691571 165.62952,25.9042181 165.62952,24.9536 L165.62952,16.71 Z M184.12192,9.09024 C186.112277,9.09024 187.657008,9.73635354 188.75616,11.0286 C189.855312,12.3208465 190.40488,14.0809489 190.40488,16.30896 L190.40488,25.31008 C190.40488,27.5975048 189.855312,29.3798869 188.75616,30.65728 C187.657008,31.9346731 186.112277,32.57336 184.12192,32.57336 C183.438663,32.57336 182.740564,32.4471079 182.0276,32.1946 C181.314636,31.9420921 180.675949,31.5336295 180.11152,30.9692 C180.052106,30.9097864 179.992694,30.8949332 179.93328,30.92464 C179.873866,30.9543468 179.84416,31.0137596 179.84416,31.10288 L179.84416,40.104 C179.84416,40.2525341 179.792174,40.3787861 179.6882,40.48276 C179.584226,40.5867339 179.457974,40.63872 179.30944,40.63872 L175.20992,40.63872 C175.061386,40.63872 174.935134,40.5867339 174.83116,40.48276 C174.727186,40.3787861 174.6752,40.2525341 174.6752,40.104 L174.6752,9.98144 C174.6752,9.83290592 174.727186,9.70665385 174.83116,9.60268 C174.935134,9.49870615 175.061386,9.44672 175.20992,9.44672 L179.30944,9.44672 C179.457974,9.44672 179.584226,9.49870615 179.6882,9.60268 C179.792174,9.70665385 179.84416,9.83290592 179.84416,9.98144 L179.84416,10.51616 C179.84416,10.6052804 179.881293,10.6572666 179.95556,10.67212 C180.029827,10.6869734 180.11152,10.6349873 180.20064,10.51616 C181.240379,9.56554191 182.547459,9.09024 184.12192,9.09024 Z M185.28048,16.71 C185.28048,15.7593819 185.027976,14.9870163 184.52296,14.39288 C184.017944,13.7987437 183.349551,13.50168 182.51776,13.50168 C181.715676,13.50168 181.069562,13.7987437 180.5794,14.39288 C180.089238,14.9870163 179.84416,15.7593819 179.84416,16.71 L179.84416,24.9536 C179.84416,25.9042181 180.089238,26.6691571 180.5794,27.24844 C181.069562,27.8277229 181.715676,28.11736 182.51776,28.11736 C183.349551,28.11736 184.017944,27.8277229 184.52296,27.24844 C185.027976,26.6691571 185.28048,25.9042181 185.28048,24.9536 L185.28048,16.71 Z" id="path-2"></path>
    </defs>
    <g id="Page-1" stroke="none" stroke-width="1" fill="none" fill-rule="evenodd">
        <g id="PitPayPitPassApp">
            <path d="M64.15,206.09 L64.91,205.33 L65.02,204.26 C66.4424792,188.973683 69.2064586,173.842067 73.28,159.04 C96.4,155.53 117.4,148.43 135.71,137.94 C152.28,128.45 166.49,116.1 176.81,102.24 C186.48,89.24 192.66,75.16 194.69,61.45 C196.11,51.89 196.15,37.79 188.32,24.91 C184.643264,18.8338658 179.646542,13.6628387 173.7,9.78 C163.79,3.29 150.99,4.26325641e-14 135.7,4.26325641e-14 C126.00107,0.0811181298 116.338937,1.20423214 106.88,3.35 C96.9462613,5.53426632 87.2124001,8.54473883 77.78,12.35 C69.4898418,15.6314929 61.4970897,19.6195048 53.89,24.27 C34.3,36.45 18.21,52.35 8.61,69.05 C4.09,76.92 1.32,84.41 0.38,91.31 C-0.62,98.44 0.53,104.74 3.62,109.51 C7.62,115.76 15.05,119.43 24.97,120.15 L29.36,120.47 L28.06,116.27 L27.88,115.63 C27.4896887,114.204319 27.2385138,112.744156 27.13,111.27 C26.8411435,106.186528 27.8747488,101.114972 30.13,96.55 C37.28,81.26 55.74,66.12 85.05,51.47 C79.05,60.21 72.99,69.88 66.71,80.85 C58.71,94.85 51.34,109.16 44.83,123.5 C39.0606893,136.062363 33.9667609,148.924032 29.57,162.03 C25.4765179,173.946488 22.4250667,186.195789 20.45,198.64 C17.06,221.5 19.97,238.3 29.09,248.64 C29.6633333,249.306667 30.26,249.926667 30.88,250.5 L34.28,253.74 L35.8,249.3 C36.8890488,246.146654 38.1577926,243.058265 39.6,240.05 C45.7884097,227.413773 54.0913155,215.928369 64.15,206.09 Z M126.52,51.71 C127.717528,50.0540567 128.06232,47.9296883 127.45,45.98 C126.849821,44.0562082 125.361531,42.5381526 123.45,41.9 C121.16,41.12 118.9,40.36 116.66,39.67 C121.061635,38.7874031 125.508289,38.146444 129.98,37.75 C131.86,37.6 133.69,37.53 135.4,37.53 C148.32,37.53 156.56,41.72 160.6,50.35 C163.23,55.96 162.48,62.89 158.38,70.92 C152.21,83.02 141.63,94.67 128.58,103.72 C115.53,112.77 101.79,118.06 87.66,119.48 C98.1020067,95.5398815 111.13293,72.8145691 126.52,51.71 L126.52,51.71 Z" id="Shape" fill="#BD2E2B"></path>
            <path d="M220.01,67.53 L220.56,67.53 C230.14,67.23 238.75,58.76 239.75,48.66 C240.288095,43.9126053 238.803615,39.157914 235.66,35.56 C232.766025,32.3853842 228.655499,30.5956686 224.36,30.64 L223.81,30.64 C214.23,30.95 205.62,39.33 204.63,49.34 C204.065483,54.1509463 205.549758,58.9775621 208.72,62.64 C211.610948,65.8094222 215.720561,67.5894052 220.01,67.53 L220.01,67.53 Z" id="Path" fill="#BD2E2B"></path>
            <path d="M189.45,102.51 C186.73,109.19 184.1,115.73 181.71,122.4 C179.23,129.33 177.1,136.26 175.18,143.58 C173.35,150.58 172.68,156.81 173.18,162.06 L173.4,164.31 L175.62,164.72 C177.38,165.05 179.13,165.46 180.82,165.93 C188.799795,168.050549 196.10242,172.182161 202.03,177.93 L203.44,179.32 L205.28,178.57 C217.68,173.49 228.21,160.77 234.98,150.74 C234.59,156.63 235.26,161.46 236.98,165.39 C238.289377,168.467317 240.477328,171.090075 243.27,172.93 C246.8,175.25 251.56,176.47 257.03,176.47 C261.433455,176.463858 265.804485,175.71676 269.96,174.26 C277.96,171.38 285.67,165.64 292.83,157.26 C300.297972,148.188065 306.383761,138.061932 310.89,127.21 C312.24,124.04 313.49,120.86 314.6,117.77 C315.3,115.77 316.03,113.71 316.54,111.84 C317.91,106.84 313.48,105.63 311.1,108.97 C310,110.51 308.88,112.04 307.7,113.52 C302.562402,120.013433 296.900024,126.073816 290.77,131.64 C289.16,133.09 284.25,137.48 280.2,139.1 C279.222673,139.470569 278.185199,139.657043 277.14,139.65 C276.4,139.65 272.68,139.51 272.14,136.82 C271.14,132.44 273.92,124.42 274.81,121.82 C277.36,114.34 280.61,107.01 283.75,99.91 C283.75,99.91 287.39,91.72 288.34,89.56 C293.98,76.74 298.16,66.06 301.44,56.07 C309.81,54.07 318.64,52.27 326.89,52.27 C332.1,52.27 336.4,53.03 339.67,54.52 C341.242046,55.1577921 342.662684,56.1185117 343.84,57.34 C345.034784,59.1098575 347.005772,60.1994793 349.14,60.27 C350.733522,60.2689685 352.24797,59.5756068 353.29,58.37 C354.419144,57.0388299 354.92502,55.2882778 354.68,53.56 C354.36,48.64 353.36,41.73 350.26,36.99 C345.49,29.58 336.26,25.83 322.89,25.83 C321.37,25.83 319.89,25.83 318.48,25.95 C313.68,26.2 309.56,26.57 305.95,27.07 C305.441479,22.914633 303.897599,18.9534955 301.46,15.55 C297.89,10.91 291.84,8.89 287.37,8.55 C286.87,8.51 286.373333,8.49 285.88,8.49 C281.645602,8.50120595 277.543488,9.96624675 274.26,12.64 C273.284399,13.4208213 272.356094,14.2589673 271.48,15.15 L269.09,17.56 L271.78,19.64 C276.33,23.16 277.17,29.37 277.17,33.45 C276.17,33.72 275.17,34.01 274.23,34.31 C272.35,34.87 270.58,35.4 268.78,35.79 C267.138879,36.1616323 265.462616,36.3560788 263.78,36.37 C260.69603,36.368239 257.67212,35.5171157 255.04,33.91 C254.5,33.6 253.97,33.27 253.44,32.91 C252.91,32.55 252.32,32.22 251.76,31.91 C250.284943,30.950972 248.578077,30.4085064 246.82,30.34 C244.685624,30.4224609 242.672856,31.3550316 241.23,32.93 L239.51,34.6 L240.75,36.6 C243.6,41.31 244.15,46.2 242.48,52 L241.99,53.72 L243.27,54.97 C249.68,61.28 255.27,65.18 263.38,65.18 C264.634446,65.178377 265.887333,65.0915102 267.13,64.92 L265.36,69.24 C261.71,77.77 257.94,86.59 253.92,95.11 C248.85,105.87 241.92,119.65 233.08,130.84 C223.75,142.69 218.23,145.28 215.25,145.37 L214.85,145.37 C212.63,145.37 211,144.81 210,143.69 C208.79,142.34 207.69,139.26 209.32,132.2 C210.83,125.67 213.78,118.91 216.19,113.76 C219.69,106.25 223.58,99.22 227.69,91.76 L228.96,89.44 C229.96,87.23 231.12,83.92 229.87,80.69 C228.95,78.31 226.93,76.47 223.68,75.06 C218.535506,72.9332619 213.044811,71.7673366 207.48,71.62 L207.08,71.62 C203.793777,71.6788156 200.894069,73.7837005 199.82,76.89 C196.82,84.62 193.66,92.3 190.53,99.98 L189.45,102.51 Z" id="Path" fill="#BD2E2B"></path>
            <path d="M301.55,298.33 C303.1,296.25 301.91,295.11 300.48,295.02 C299.387984,295.007948 298.301024,295.169979 297.26,295.5 C293.189507,296.519754 289.252627,298.013285 285.53,299.95 C280.700331,302.397869 276.472501,305.884634 273.15,310.16 C270.889658,313.11838 269.293422,316.529141 268.47,320.16 C267.706511,323.589199 267.795786,327.153325 268.73,330.54 C269.617589,333.705341 271.237972,336.617235 273.46,339.04 C275.82041,341.584518 278.689019,343.604809 281.88,344.97 C284.061595,345.918177 286.342459,346.619207 288.68,347.06 C291.215297,347.536939 293.790257,347.771331 296.37,347.76 C298.455974,347.756346 300.539804,347.626107 302.61,347.37 C304.832723,347.094313 307.039182,346.700422 309.22,346.19 C315.918684,344.428847 322.29724,341.620933 328.12,337.87 C333.896264,334.16294 339.04144,329.554563 343.36,324.22 C346.71,320.06 349.94,313.62 352.64,306.14 C355.452549,298.287955 357.488945,290.179214 358.72,281.93 C359.16,278.963333 359.583333,275.993333 359.99,273.02 C360.396667,270.046667 360.803333,267.073333 361.21,264.1 L361.95,258.65 C362.196667,256.836667 362.446667,255.02 362.7,253.2 C363.18,249.786667 363.666667,246.376667 364.16,242.97 C364.653333,239.563333 365.163333,236.156667 365.69,232.75 C365.936667,231.143333 366.203333,229.543333 366.49,227.95 C366.776667,226.356667 367.07,224.76 367.37,223.16 C367.696667,221.453333 368.006667,219.74 368.3,218.02 C368.593333,216.3 368.886667,214.583333 369.18,212.87 L369.31,212.08 L369.44,211.29 C370.22,206.7 371,202.02 372.01,197.44 C372.958356,192.916491 374.255567,188.47321 375.89,184.15 C376.591968,182.504795 376.932968,180.728187 376.89,178.94 C376.826546,177.450644 376.29461,176.019317 375.37,174.85 C374.244269,173.497743 372.750652,172.500841 371.07,171.98 C368.870201,171.275461 366.56948,170.937616 364.26,170.98 C363.071064,170.980213 361.882894,171.040289 360.7,171.16 C359.7,171.26 358.86,171.39 358.32,171.49 C356.718456,171.728393 355.144221,172.123627 353.62,172.67 C351.779748,173.338771 350.145904,174.476257 348.88,175.97 C347.23,177.97 346.05,181.42 345.14,185.49 C344.23,189.56 343.62,194.25 343.08,198.71 L342.98,199.52 L342.88,200.33 C342.65,202.17 342.46,204.03 342.3,205.87 C342.14,207.71 341.99,209.56 341.85,211.36 C341.73,212.92 341.61,214.47 341.47,216.02 C341.33,217.57 341.19,219.1 341.02,220.62 C340.52,223.84 340.02,226.85 339.36,229.82 C338.650975,232.920776 337.615186,235.937639 336.27,238.82 C334.989044,241.540926 333.347638,244.077032 331.39,246.36 C329.47,248.56 327.39,250.22 325.39,250.67 C325.059975,250.747112 324.7262,250.807191 324.39,250.85 C324.084874,250.889051 323.777614,250.90909 323.47,250.91 C323.017605,250.915853 322.566602,250.858636 322.13,250.74 C321.742269,250.631402 321.376688,250.455381 321.05,250.22 C320.193304,249.519713 319.577762,248.568421 319.29,247.5 C318.661924,245.331992 318.401652,243.074048 318.52,240.82 C318.609312,238.162214 318.873215,235.513171 319.31,232.89 C319.8,229.74 320.51,226.1 321.44,221.97 C322.11,219.02 322.87,216.02 323.69,212.97 C324.51,209.92 325.39,206.83 326.28,203.7 L326.46,203.06 L326.64,202.42 C327.01,201.14 327.37,199.9 327.69,198.62 C328.01,197.34 328.3,196.03 328.52,194.62 C328.79896,193.032159 328.79896,191.407841 328.52,189.82 C328.284415,188.515566 327.712195,187.295289 326.86,186.28 C326.116595,185.398523 325.169141,184.711962 324.1,184.28 C322.917264,183.823537 321.657597,183.599445 320.39,183.62 L319.68,183.62 C315.817544,183.741127 311.997906,184.466589 308.36,185.77 C304.64,187.18 302.59,189.11 301.36,191.23 C300.323413,193.283393 299.675839,195.510911 299.45,197.8 L299.33,198.51 L299.21,199.22 C298.97,200.91 298.66,202.84 298.3,204.97 C297.94,207.1 297.51,209.44 297.06,211.97 C296.13,217.14 295.06,222.97 294.2,228.81 C293.34,234.65 292.56,240.7 292.2,246.3 C291.61,247.47 291.03,248.56 290.46,249.58 C289.89,250.6 289.33,251.58 288.77,252.45 C287.346011,254.868 285.596289,257.078706 283.57,259.02 C282.589779,259.997702 281.379273,260.713001 280.05,261.1 C279.719884,261.176673 279.386132,261.236749 279.05,261.28 C278.741541,261.319234 278.430943,261.339272 278.12,261.34 C277.65767,261.346952 277.196609,261.289741 276.75,261.17 C276.352122,261.058886 275.976549,260.879558 275.64,260.64 C274.770767,259.941535 274.138598,258.991535 273.83,257.92 C273.17002,255.764337 272.879255,253.512603 272.97,251.26 C273.013434,248.335935 273.264062,245.418626 273.72,242.53 C274.15,239.66 274.72,236.9 275.23,234.53 C276.07,230.63 276.97,226.53 278.02,222.38 C279.07,218.23 280.27,213.83 281.73,209.32 C282.18324,208.076036 282.370605,206.750857 282.28,205.43 C282.187312,204.084338 281.823345,202.771335 281.21,201.57 C280.613043,200.383418 279.779219,199.331779 278.76,198.48 C277.763641,197.641756 276.606705,197.015649 275.36,196.64 C274.760535,196.469328 274.148683,196.34562 273.53,196.27 C272.843154,196.187136 272.15182,196.147059 271.46,196.15 C269.748232,196.149657 268.040389,196.313743 266.36,196.64 C265.297502,196.846642 264.246155,197.106975 263.21,197.42 C261.289492,198.053679 259.507602,199.048143 257.96,200.35 C256.577085,201.513772 255.487679,202.986868 254.78,204.65 C253.319726,203.694277 251.720993,202.969113 250.04,202.5 C248.258228,202.010708 246.417697,201.768444 244.57,201.78 C243.466713,201.781598 242.36459,201.851733 241.27,201.99 C240.073117,202.141973 238.884871,202.35559 237.71,202.63 C232.409554,203.908735 227.464331,206.36255 223.24,209.81 C219.291545,213.02314 215.808295,216.768895 212.89,220.94 C213.279701,214.496826 212.641725,208.032683 211,201.79 C209.487111,196.04336 206.894312,190.63717 203.36,185.86 C200.440582,181.948314 196.872245,178.566004 192.81,175.86 C188.566126,173.070759 183.908916,170.968265 179.01,169.63 C176.225164,168.855074 173.387689,168.283569 170.52,167.92 C167.465305,167.533702 164.389017,167.343313 161.31,167.34983 C157.433954,167.361673 153.562657,167.622208 149.72,168.13 C145.560409,168.679541 141.434181,169.457381 137.36,170.46 C128.70951,172.593705 120.268753,175.502118 112.14,179.15 C103.920459,182.808637 96.0398808,187.185621 88.59,192.23 C78.7343824,198.913768 69.7311794,206.775199 61.78,215.64 C54.3440939,223.859037 48.1058609,233.086774 43.25,243.05 C41.2622364,247.136757 39.6263189,251.385459 38.36,255.75 C37.2585773,259.566501 36.5877356,263.494279 36.36,267.46 C36.1226389,270.98445 36.460386,274.52404 37.36,277.94 C38.1583371,280.908723 39.5912999,283.668882 41.56,286.03 C43.6828796,288.510396 46.3914527,290.421521 49.44,291.59 C52.9565725,292.898097 56.6888495,293.529192 60.44,293.45 L61.36,293.45 L62.3,293.45 L64.62,293.35 L66.94,293.25 L65.81,291.01 L64.68,288.77 C64.4053149,288.155963 64.1616741,287.528504 63.95,286.89 C63.74,286.25 63.56,285.6 63.41,284.94 C62.9385115,282.787338 62.7802127,280.577891 62.94,278.38 C63.1181908,275.976126 63.5848759,273.602412 64.33,271.31 C66.6566667,263.976667 71.58,256.333333 79.1,248.38 C86.62,240.426667 96.7066667,232.2 109.36,223.7 C107.12,228.08 104.9,232.7 102.68,237.51 C100.46,242.32 98.25,247.44 96.02,252.83 C93.14,259.83 90.42,266.83 87.88,273.83 C85.34,280.83 82.98,287.93 80.81,294.96 C78.81,301.34 77.11,307.47 75.57,313.44 C74.03,319.41 72.7,325.22 71.57,330.96 C70.31,337.23 69.32,343.13 68.57,348.74 C67.82,354.35 67.39,359.67 67.18,364.74 C66.71,376.44 67.65,386.39 69.99,394.53 C72.33,402.67 76.05,408.99 81.15,413.45 C84.8021449,416.644756 89.1623214,418.92425 93.87,420.1 C98.00794,421.166571 102.266926,421.690961 106.54,421.661295 L107.36,421.661295 L108.25,421.661295 C109.304155,421.623234 110.342078,421.389192 111.31,420.97 C112.152338,420.592674 112.887707,420.011939 113.45,419.28 C114.284394,418.140332 114.707451,416.751296 114.65,415.34 C114.597948,413.990623 114.406939,412.650206 114.08,411.34 L114,410.94 L113.92,410.54 C113.64,409.19 113.36,407.72 113.1,406.23 C112.84,404.74 112.58,403.23 112.36,401.79 C111.91,398.88 111.51,395.87 111.16,392.79 C110.81,389.71 110.5,386.51 110.25,383.26 C109.66,375.68 109.36,368.18 109.34,360.8 C109.32,353.42 109.61,346.16 110.18,339.08 C110.38,336.53 110.63,334.01 110.91,331.54 C111.19,329.07 111.51,326.65 111.91,324.29 C122.077248,321.443164 131.972534,317.701896 141.48,313.11 C150.52131,308.73702 159.112359,303.488609 167.13,297.44 C172.986228,293.010978 178.474165,288.114976 183.54,282.8 C188.428323,277.679036 192.864837,272.145105 196.8,266.26 C196.337326,270.882707 196.2771,275.536869 196.62,280.17 C196.925034,285.087753 198.078719,289.915639 200.03,294.44 C201.147196,296.963197 202.770743,299.230036 204.8,301.1 C206.666379,302.795731 208.918073,304.010821 211.36,304.64 C212.054351,304.814617 212.759107,304.94488 213.47,305.03 C214.200038,305.117685 214.934715,305.161098 215.67,305.16 C218.865642,305.117861 222.020685,304.437895 224.95,303.16 C227.20704,302.194564 229.352885,300.987526 231.35,299.56 C232.236667,298.893333 233.093333,298.226667 233.92,297.56 C234.746667,296.893333 235.53,296.15 236.27,295.33 C238.399561,293.095643 240.330209,290.679824 242.04,288.11 C243.974763,285.198119 245.708782,282.157738 247.23,279.01 C248.71,285.25 251.52,288.91 254.6,291.01 C257.266436,292.7837 260.397517,293.729982 263.6,293.73 L264.01,293.73 C265.945684,293.687552 267.87213,293.449678 269.76,293.02 C272.6034,292.378831 275.311508,291.241425 277.76,289.66 C281.234183,287.303732 284.31246,284.411097 286.88,281.09 C289.43871,277.833911 291.713699,274.364554 293.68,270.72 C294.301022,273.046817 295.279326,275.263182 296.58,277.29 C297.7514,279.103138 299.266589,280.669285 301.04,281.9 C302.461981,282.873226 304.032358,283.609446 305.69,284.08 C307.473461,284.578794 309.318159,284.824529 311.17,284.81 C312.202887,284.808964 313.234767,284.745515 314.26,284.62 C315.352866,284.48453 316.437737,284.290922 317.51,284.04 C320.602181,283.318597 323.580195,282.174501 326.36,280.64 C329.103972,279.127019 331.61631,277.22761 333.82,275 C333.6,276.126667 333.363333,277.256667 333.11,278.39 C332.856667,279.523333 332.59,280.66 332.31,281.8 C331.76,284.02 330.75,287.35 329.69,290.57 C328.63,293.79 327.49,296.91 326.69,298.73 C324.1,304.63 321.1,309.19 317.61,312.47 C314.306986,315.634928 310.123751,317.726546 305.61,318.47 C305.158853,318.583575 304.701389,318.670393 304.24,318.73 C303.792311,318.788056 303.341434,318.818114 302.89,318.82 C302.044233,318.823256 301.202356,318.705393 300.39,318.47 C299.408859,318.189071 298.505542,317.686087 297.75,317 C296.853049,316.167752 296.214337,315.095131 295.91,313.91 C295.654178,312.904677 295.56966,311.863421 295.66,310.83 C296.024944,308.610499 296.758387,306.467628 297.83,304.49 C298.870315,302.322515 300.116013,300.259747 301.55,298.33 Z M181.77,223.83 C181.01,233.69 173.97,244.92 170.97,249.3 C162.52,261.65 150.58,272.37 138.2,278.73 C132.569289,281.643238 126.610283,283.872409 120.45,285.37 C127.341863,261.807626 136.766885,239.061504 148.56,217.53 C149.498525,215.80013 149.568901,213.729604 148.75,211.94 C147.957906,210.198686 146.382941,208.939457 144.51,208.55 L142.09,208.02 C140.97,207.77 139.83,207.52 138.68,207.28 C145.65577,204.629307 153.02998,203.178809 160.49,202.99 C163.744342,202.908991 166.986511,203.417168 170.06,204.49 C178.22,207.64 182.48,214.64 181.77,223.83 L181.77,223.83 Z M246.66,230.25 L246.49,231.47 C246.28,232.97 246.08,234.47 245.85,235.96 C244.977972,241.629571 243.718353,247.232703 242.08,252.73 C240.709882,257.64687 238.256576,262.194713 234.9,266.04 C232.29,268.9 229.48,270.53 227.19,270.53 C226.963591,270.545278 226.736409,270.545278 226.51,270.53 C223.72,270.14 222.51,264.82 222.29,259.97 C222.163084,254.963054 222.862461,249.969434 224.36,245.19 C226.037455,239.32467 228.746447,233.805098 232.36,228.89 C234.23,226.47 237.93,222.42 241.7,222.42 L241.7,219.42 L241.81,222.42 C243.159818,222.414448 244.443652,223.003329 245.32,224.03 C246.58458,225.838929 247.067563,228.080835 246.66,230.25 Z" id="Shape" fill="#BD2E2B"></path>
            <polygon id="Path" fill="#FFFFFF" points="385.33 175.94 385.33 168.4 383.12 168.4 383.12 166.06 390.24 166.06 390.24 168.4 388.02 168.4 388.02 175.94"></polygon>
            <path d="M402.88,175.94 L400.36,175.94 L399.78,171.67 C399.78,171.37 399.7,171.03 399.67,170.67 C399.64,170.31 399.61,169.9 399.58,169.46 C399.491407,169.990917 399.367804,170.515394 399.21,171.03 L399.12,171.32 L397.78,175.95 L395.99,175.95 L394.65,171.32 L394.57,171.03 C394.408363,170.519836 394.284692,169.998413 394.2,169.47 C394.2,169.84 394.14,170.21 394.11,170.58 C394.08,170.95 394.03,171.31 393.98,171.68 L393.36,175.94 L390.86,175.94 L392.38,166.07 L395.04,166.07 L396.53,171.16 L396.58,171.34 C396.701865,171.721336 396.788889,172.112941 396.84,172.51 C396.861753,172.314848 396.895146,172.121169 396.94,171.93 C396.94,171.72 397.06,171.46 397.14,171.16 L398.64,166.08 L401.36,166.08 L402.88,175.94 Z" id="Path" fill="#FFFFFF"></path>
            <path d="M83.79,120.9 C94.4954045,95.7856128 108.01517,71.9666711 124.09,49.9 C124.732833,49.0382449 124.925918,47.9214904 124.609744,46.893925 C124.29357,45.8663597 123.506087,45.0513183 122.49,44.7 C118.04526,43.1132379 113.514768,41.7777944 108.92,40.7 L102.92,39.4 L108.92,38.15 C115.781623,36.5778492 122.735357,35.4389331 129.74,34.74 C142.95,33.74 157.09,35.74 163.31,49.06 C166.88,56.69 164.7,65.12 161.05,72.27 C154.17,85.75 142.67,97.58 130.29,106.17 C116.74,115.64 101.62,121.64 85.07,122.71 L82.97,122.84 L83.79,120.9 Z M62.03,203.96 L62.03,203.96 C63.4978626,188.130547 66.3963687,172.466565 70.69,157.16 L70.92,156.35 L71.75,156.23 C93.59,153.03 115.01,146.34 134.21,135.33 C149.67,126.48 163.73,114.77 174.39,100.44 C182.96,88.92 189.59,75.3 191.71,61 C193.46,49.2 192.02,36.79 185.71,26.46 C182.267917,20.7631255 177.585011,15.9161473 172.01,12.28 C153.73,0.28 127.87,1.8 107.45,6.28 C97.6791689,8.44587165 88.1059909,11.4228557 78.83,15.18 C70.7002768,18.3959607 62.8615205,22.3036293 55.4,26.86 C38.16,37.58 21.34,52.86 11.13,70.59 C7.44,77 4.27,84.39 3.27,91.76 C2.53,97.25 2.98,103.17 6.06,107.92 C10.22,114.35 17.81,116.67 25.06,117.19 C24.9866667,116.95 24.9166667,116.706667 24.85,116.46 C24.4088584,114.847809 24.1242077,113.196835 24,111.53 C23.7107086,105.924671 24.8677626,100.33913 27.36,95.31 C37.74,73.13 68.68,55.85 89.63,45.91 L94.21,43.74 L91.21,47.85 C83.2872375,58.9736726 75.9441283,70.4990163 69.21,82.38 C61.32,96.15 54.02,110.33 47.46,124.78 C41.7543795,137.247437 36.7139678,150.008691 32.36,163.01 C28.3338181,174.729892 25.3227299,186.774245 23.36,199.01 C21.13,214.01 20.48,234.35 31.28,246.53 C31.7933333,247.11 32.33,247.67 32.89,248.21 C34.0150879,244.947159 35.3272629,241.751863 36.82,238.64 C43.2013555,225.737335 51.7256593,214.010922 62.03,203.96 L62.03,203.96 Z" id="Shape" fill="#FFFFFF"></path>
            <path d="M220.47,64.51 C228.98,64.24 235.95,56.6 236.77,48.34 C237.56,40.34 232.18,33.34 223.87,33.62 C215.56,33.9 208.4,41.42 207.59,49.62 C206.78,57.82 212.05,64.78 220.47,64.51 Z" id="Path" fill="#FFFFFF"></path>
            <path d="M273.62,17.23 C278.89,21.31 280.41,28.39 280.15,34.79 L280.15,35.79 L279.21,36.03 C275.95,36.86 272.75,38.03 269.46,38.73 C263.69,39.97 258.8,39.52 253.62,36.51 C252.51,35.87 251.44,35.17 250.33,34.51 C247.33,32.79 245.59,32.97 243.4,35.09 C246.8,40.72 247.25,46.59 245.4,52.87 C252.85,60.2 258.73,63.95 269.68,61.45 L272.19,60.88 L271.19,63.24 C266.4,74.34 261.76,85.48 256.61,96.42 C250.74,108.86 243.94,121.9 235.41,132.73 C231.17,138.11 222.75,148.18 215.31,148.41 C212.53,148.49 209.67,147.9 207.73,145.75 C204.49,142.15 205.36,135.87 206.35,131.58 C208.057941,125.023833 210.42674,118.657893 213.42,112.58 C217.3,104.25 221.74,96.35 226.17,88.32 C228.42,83.32 227.62,80.19 222.43,77.92 C217.61414,75.9155789 212.473757,74.8041447 207.26,74.64 C205.126418,74.6093962 203.221391,75.9712878 202.56,78 C199.19,86.58 195.71,95.11 192.24,103.64 C189.58,110.19 186.93,116.75 184.55,123.41 C182.08,130.3 179.95,137.25 178.1,144.33 C176.67,149.81 175.64,156.04 176.19,161.76 C178.023333,162.1 179.843333,162.523333 181.65,163.03 C190.117982,165.290534 197.866941,169.67966 204.16,175.78 C217.5,170.31 229.31,154.78 236.53,142.78 L240.21,136.64 L238.93,143.64 C237.77,150 237.08,158.09 239.76,164.18 C240.834879,166.72183 242.637028,168.88928 244.94,170.41 C251.42,174.66 261.94,173.95 268.94,171.41 C277.49,168.34 284.72,162.09 290.53,155.25 C297.801734,146.404753 303.728868,136.535182 308.12,125.96 C309.42,122.96 310.64,119.81 311.76,116.69 C312.43,114.82 313.14,112.77 313.76,110.69 C313.81,110.55 313.67,110.47 313.59,110.6 C312.47,112.2 311.3,113.76 310.09,115.29 C304.843096,121.929096 299.060368,128.126549 292.8,133.82 C289.64,136.65 285.31,140.25 281.34,141.82 C277.15,143.49 270.34,142.57 269.18,137.38 C268.18,132.6 270.4,125.27 271.95,120.74 C274.51,113.24 277.78,105.83 280.95,98.59 C282.48,95.14 284.02,91.7 285.54,88.25 C290.43,77.14 295.08,65.68 298.83,54.13 L299.05,53.44 L299.76,53.27 C311,50.56 329.42,46.46 340.87,51.69 C342.897511,52.5388252 344.716195,53.8183869 346.2,55.44 C348.65,58.71 352.11,56.9 351.64,53.65 C351.34,48.89 350.37,42.65 347.73,38.54 C341.73,29.24 328.6,28.35 318.63,28.87 C313.942964,29.0752682 309.269897,29.5258854 304.63,30.22 L303.26,30.44 L303.13,29.06 C302.73,25 301.55,20.58 299.03,17.3 C296.3,13.76 291.45,11.8 287.09,11.47 C283.121652,11.1385035 279.179168,12.3570896 276.09,14.87 C275.220361,15.6067295 274.395556,16.3948027 273.62,17.23 Z" id="Path" fill="#FFFFFF"></path>
            <path d="M107.98,418.64 C101.74,418.83 90.52,418.03 82.98,411.23 C70.79,400.59 69.4,379.88 69.98,364.87 C70.5634449,353.662307 72.0279657,342.517906 74.36,331.54 C76.8255586,319.490779 79.8927299,307.572533 83.55,295.83 C87.92,281.66 92.99,267.64 98.66,253.94 C103.492129,242.101977 108.929296,230.520044 114.95,219.24 L117.35,214.79 L113.1,217.52 C95.1,229.07 68.28,248.78 61.43,270.32 C59.7580586,275.205571 59.4129739,280.447407 60.43,285.51 C60.7662154,287.017891 61.2519516,288.4885 61.88,289.9 C61.95,290.05 62.02,290.21 62.1,290.37 C55.42,290.67 48.33,289.37 43.8,284.04 C39.95,279.52 38.98,273.32 39.27,267.57 C39.67,259.62 42.46,251.42 45.86,244.28 C55.32,224.45 72.14,206.94 90.18,194.67 C104.749771,184.837463 120.92174,177.619466 137.97,173.34 C150.8,170.22 165.21,168.89 178.08,172.5 C187.135372,174.871561 195.138963,180.200249 200.82,187.64 C209.38,199.05 211.16,213.91 209.05,227.64 L207.99,234.54 L211.46,228.54 C217.36,218.26 226.26,208.33 238.25,205.54 C244.11,204.18 250.09,204.28 254.76,208.54 L256.69,210.28 L256.93,207.69 C257.34,204.15 260.27,201.56 264.05,200.27 C266.42,199.55 271.17,198.57 274.35,199.49 C276.126128,200.026923 277.606262,201.26534 278.44813,202.918875 C279.289998,204.572409 279.420695,206.497867 278.81,208.25 C276.167193,216.667164 273.960921,225.215219 272.2,233.86 C270.838229,239.559752 270.057575,245.382833 269.87,251.24 C269.87,255.13 270.34,260.6 273.8,263.08 C275.835924,264.379404 278.337298,264.72631 280.65,264.03 C285.15,263.03 288.93,257.74 291.24,254.03 C292.59,251.86 293.82,249.61 294.96,247.33 L295.08,247.09 L295.08,246.82 C296,230.82 300.59,210.38 302.08,199.65 C302.89,194.96 302.84,191.04 309.29,188.59 C312.794194,187.32961 316.486153,186.670331 320.21,186.64 C325.57,186.64 326.05,190.55 325.49,194.15 C324.957636,197.104169 324.232758,200.020385 323.32,202.88 C321.61,208.88 319.8,215.26 318.44,221.31 C317.18,226.9 315.54,235.02 315.44,240.76 C315.37,244.63 315.77,250.15 319.21,252.65 C321.224544,253.946966 323.706859,254.294271 326,253.6 C331.57,252.31 336.57,245.06 338.89,240.1 C341.89,233.65 342.82,228.02 343.89,221.1 L343.89,221.05 C344.65,214.29 344.89,207.45 345.75,200.72 C346.42,195.36 347.75,181.9 351.07,177.89 C353,175.57 355.88,174.96 358.72,174.46 C362.48,173.8 370.25,173.36 372.89,176.69 C374.33,178.5 373.75,181.06 372.98,183.03 C369.54,191.84 367.9,201.69 366.33,211.03 C365.68,214.89 365.04,218.75 364.33,222.6 C363.71,225.82 363.13,229.05 362.63,232.3 C361.583333,239.12 360.583333,245.95 359.63,252.79 C358.29,262.35 357.07,271.94 355.63,281.49 C353.86,293.49 348.63,312.7 340.9,322.33 C332.550971,332.613456 321.14253,339.969221 308.33,343.33 C300.19,345.21 290.81,345.71 282.95,342.26 C277.49,339.86 273.12,335.61 271.48,329.77 C269.72,323.5 271.58,317.08 275.41,311.98 C280.69,304.98 289.46,300.54 297.85,298.43 C297.85,298.43 297.92,298.43 297.85,298.52 C295.22,301.98 292.85,306.27 292.53,310.68 C292.153045,313.86998 293.284431,317.053391 295.59,319.29 C298.47,321.94 302.53,322.38 306.2,321.47 C317.86,319.47 324.82,310.21 329.32,299.97 C331.610295,294.292765 333.544053,288.47813 335.11,282.56 C336.687514,276.224888 337.810373,269.785159 338.47,263.29 C334.6,270.64 328.4,278.38 316.66,281.1 C311.95,282.19 306.66,282.25 302.57,279.41 C298.02,276.29 296.17,270.64 295.57,265.41 L295.03,260.99 L293.1,264.99 C289.28,272.93 283.51,282.23 275.99,287.12 C272.264554,289.506866 267.913527,290.732115 263.49,290.64 C253.32,290.47 249.97,281.78 249.2,272.93 L248.75,267.71 L246.75,272.53 C243.66,279.81 239.55,287.4 234.02,293.15 C232.642709,294.579177 231.136306,295.878032 229.52,297.03 C224.7,300.47 218.01,303.18 212.02,301.67 C207.52,300.53 204.54,297.25 202.65,293.13 C198.13,283.33 198.88,269.02 200.76,258.66 L202.13,251.06 L198.34,257.79 C190.13,272.36 178.51,284.92 165.21,294.99 C148.76,307.45 129.78,316.15 109.94,321.64 L109.13,321.86 L109,322.69 C108.16,328.03 107.55,333.4 107.12,338.78 C105.969485,353.64203 105.992891,368.571651 107.19,383.43 C107.68,389.71 108.37,395.98 109.33,402.21 C109.76,405.01 110.33,408.21 110.92,411.11 C111.62,414.55 112.86,418.37 108.03,418.63 L107.98,418.64 Z M226.22,273.4 L226.22,273.4 C230.49,274 234.54,270.97 237.22,268.01 C240.880846,263.819492 243.562431,258.866247 245.07,253.51 C246.742009,247.880803 248.028324,242.14417 248.92,236.34 C249.21,234.43 249.46,232.52 249.73,230.61 C250.48,225.19 248.22,219.7 242.13,219.37 L242.13,219.37 C237.27,219.23 232.93,223.44 230.13,227.01 C226.275559,232.216015 223.380249,238.067588 221.58,244.29 C219.988166,249.373585 219.244876,254.684729 219.38,260.01 C219.57,264.36 220.64,272.63 226.19,273.41 L226.22,273.4 Z M116.9,287.21 L116.9,287.21 L116.33,289.21 L118.4,288.81 C125.814327,287.324627 132.981754,284.7997 139.69,281.31 C153.03,274.46 165.11,263.31 173.57,250.91 C178.66,243.47 184.18,233.07 184.88,223.98 C185.67,213.75 180.99,205.33 171.26,201.61 C160.18,197.37 142.4,201.79 132.06,206.79 L127.84,208.79 L132.5,209.23 C136.374739,209.725243 140.217761,210.443097 144.01,211.38 C144.968772,211.61006 145.763805,212.277109 146.156944,213.181329 C146.550083,214.085549 146.495669,215.121922 146.01,215.98 C133.662745,238.554918 123.897843,262.448905 116.9,287.21 L116.9,287.21 Z" id="Shape" fill="#FFFFFF"></path>
            <g id="Pit-Pass-App" transform="translate(145.211680, 370.683120)" fill-rule="nonzero">
                <g id="PitPa">
                    <use fill="#000000" xlink:href="#path-1"></use>
                    <use fill="#FFFFFF" xlink:href="#path-1"></use>
                </g>
                <g id="ssApp" fill="#FFFFFF">
                    <use xlink:href="#path-2"></use>
                    <use xlink:href="#path-2"></use>
                </g>
            </g>
        </g>
    </g>
</svg>