<?xml version="1.0" encoding="UTF-8"?>
<svg width="199px" height="197px" viewBox="0 0 199 197" version="1.1" xmlns="http://www.w3.org/2000/svg" xmlns:xlink="http://www.w3.org/1999/xlink">
    <!-- Generator: Sketch 55.2 (78181) - https://sketchapp.com -->
    <title>Pit Pay White</title>
    <desc>Created with Sketch.</desc>
    <g id="Page-1" stroke="none" stroke-width="1" fill="none" fill-rule="evenodd">
        <g id="Pit-Pay-White" fill="#FFFFFF" fill-rule="nonzero">
            <path d="M188.14,10.32 C181.577019,3.7031778 172.639597,-0.012946174 163.32,-3.37131572e-05 L35.14,-3.37131572e-05 C15.7415597,0.0495281856 0.0329742463,15.7715245 0,35.17 L0,161.17 C0.0494632738,180.556761 15.7532392,196.260537 35.14,196.31 L163.32,196.31 C182.706761,196.260537 198.410537,180.556761 198.460088,161.17 L198.460088,35.17 C198.480969,25.840008 194.764227,16.8902969 188.14,10.32 Z M190.76,161.17 C190.710604,176.298663 178.458663,188.550604 163.33,188.6 L68.09,188.6 C66.0794358,177.077826 65.8871022,165.311732 67.52,153.73 C85.77,148.68 97.81,138.29 103.95,127.4 C102.95,132.96 103.16,138.32 104.76,141.8 C107.66,148.1 114.6,145.95 118.44,141.95 C120.71497,139.435152 122.514178,136.527957 123.75,133.37 C124.14,137.89 126.05,141.02 130.11,141.09 C132.020577,141.118942 133.896657,140.579439 135.5,139.54 C138.37,137.68 140.8,134.19 142.68,130.28 C143.34,135.75 146.68,138.38 151.96,137.14 C154.7,136.51 158.85,133.9 160.04,130.93 C159.846667,132.263333 159.616667,133.54 159.35,134.76 C158.639446,138.160174 157.676786,141.502741 156.47,144.76 C154.26,149.76 151.21,152.39 147.47,153.01 C143.34,154.01 140.29,150.13 144.59,144.48 L144.69,144.35 L144.97,144 L145.08,143.84 C145.137567,143.750149 145.139058,143.635388 145.083843,143.544072 C145.028629,143.452755 144.92631,143.400763 144.82,143.41 L144.25,143.55 C126.33,148.04 130.05,167.27 148.57,162.98 C153.91457,161.581234 158.674663,158.516421 162.16,154.23 C165.35,150.23 167.49,141.97 168.24,136.85 C168.82,132.93 169.34,128.95 169.86,125.12 C170.28,122.18 170.69,119.38 171.08,116.76 C171.3,115.39 171.53,114.07 171.77,112.82 C172.77,107.38 173.44,101.5 175.29,96.76 C177.29,92.29 172.02,92.21 168.88,92.54 C167.575846,92.6251154 166.349843,93.1917853 165.44,94.13 C163.99,95.88 163.44,101.25 163.15,103.73 C162.86,106.21 162.72,109.08 162.39,112.04 C162.128422,114.669411 161.45345,117.241054 160.39,119.66 C159.26,122.07 157.29,124.46 155.48,124.88 C148.87,126.41 152.6,112.6 154.53,105.83 C154.933837,104.474743 155.267612,103.099589 155.53,101.71 C155.841797,100.5085 155.418907,99.2359123 154.45,98.46 C153.585995,97.9800104 152.587026,97.8006179 151.61,97.95 C150.241863,97.9719968 148.901041,98.3364254 147.71,99.01 C146.49,99.93 146.2,100.94 145.71,102.78 C144.99,105.29 143.6,111.22 143.19,113.7 C142.718374,116.865392 142.467767,120.059787 142.44,123.26 C141.56,125.01 139.09,128.71 136.98,129.13 C129.56,130.85 134.58,113.35 135.98,108.05 C137.1,104.41 135.36,103.05 132.98,103.05 C131.74565,103.050689 130.525478,103.313128 129.4,103.82 C128.081344,104.540558 127.210565,105.873 127.08,107.37 C125.123566,105.456225 122.324586,104.675377 119.66,105.3 C114.94,106.39 111.13,110.14 108.37,114.94 C110.03,104.12 105.6,94.69 95.37,91.81 C90.3,90.39 84.47,90.75 78.71,92.15 C71.6868049,93.9255885 65.022461,96.8991714 59.01,100.94 C36.53,116.23 30.46,142.54 48.63,140.94 C49.02,140.87 39.42,130.1 68.95,111.15 C57.95,131.41 43.32,174.46 54.52,188.63 L35.14,188.63 C19.9996675,188.580521 7.74292877,176.310378 7.71,161.17 L7.71,35.17 C7.75939563,20.0413369 20.0113369,7.78939563 35.14,7.74 L163.32,7.74 C178.452568,7.78390949 190.710575,20.0374488 190.76,35.17 L190.76,161.17 Z M81.44,107.67 C79.8712307,107.284527 78.2820657,106.987393 76.68,106.78 C80.62,104.88 87.82,102.98 92.27,104.68 C96.03,106.12 97.8,109.33 97.49,113.28 C97.21,116.89 94.97,121.08 92.96,124.02 C89.4705801,129.146039 84.7901808,133.349477 79.32,136.27 C76.6249064,137.666281 73.7466625,138.676191 70.77,139.27 C73.6249135,129.189717 77.6031927,119.462053 82.63,110.27 C82.8927692,109.772179 82.9089636,109.18044 82.6738154,108.668993 C82.4386672,108.157546 81.9789476,107.784617 81.43,107.66 L81.44,107.67 Z M112.66,128.01 C112.37,121.07 117.26,111.84 121.39,112.01 C123.48,112.12 124.27,114.01 124,116.01 C123.645151,119.153056 123.012681,122.258517 122.11,125.29 C120.79,129.83 117.57,133.4 114.98,133.04 C113.76,132.8 112.76,131.3 112.65,127.99 L112.66,128.01 Z" id="Shape"></path>
            <path d="M112.57,49.22 C116.356759,48.9191946 119.384801,45.9501126 119.76,42.17 C120.13,38.44 117.54,35.46 113.94,35.57 C110.178271,35.8729425 107.167865,38.816077 106.78,42.57 C106.38,46.36 108.98,49.34 112.57,49.22 Z" id="Path"></path>
            <path d="M99.35,33.17 C88.98,16.17 59.07,24.65 45.35,33.17 C23.15,46.97 15.7,70.45 33.96,71.09 C34.39,71.09 25.96,57.96 59.85,41.88 C44.51,63.18 20.91,111.88 36.7,125 C37.2046141,123.418893 37.8194547,121.875108 38.54,120.38 C41.1462673,115.087988 44.6401693,110.281758 48.87,106.17 C49.4688905,99.6698144 50.6537044,93.2370111 52.41,86.95 C92.64,81.05 109.28,49.46 99.35,33.17 Z M88.35,51.92 C85.3762414,57.3990661 81.1263588,62.0811402 75.96,65.57 C70.6167968,69.403888 64.3186604,71.6878275 57.76,72.17 C62.1205328,61.9558999 67.6221555,52.2676765 74.16,43.29 C74.5211849,42.801446 74.6283877,42.1701966 74.4487396,41.5897949 C74.2690914,41.0093932 73.8240253,40.5490842 73.25,40.35 C71.4123503,39.7031122 69.5433217,39.1490787 67.65,38.69 C74.26,37.32 85.52,34.81 89.28,42.85 C90.25,45.01 90.36,47.93 88.34,51.89 L88.35,51.92 Z" id="Shape"></path>
            <path d="M181.37,90.31 L180.97,91.67 L180.92,91.88 C180.916689,91.933282 180.916689,91.986718 180.92,92.04 C180.905904,91.9347956 180.882478,91.8310535 180.85,91.73 L180.85,91.73 L180.45,90.36 L179.74,90.36 L179.33,93.01 L180,93.01 L180.16,91.86 C180.16,91.76 180.16,91.6633333 180.16,91.57 C180.16,91.47 180.16,91.37 180.16,91.27 C180.182778,91.4123048 180.216205,91.5526992 180.26,91.69 L180.26,91.77 L180.62,93.01 L181.1,93.01 L181.46,91.77 L181.46,91.69 C181.502411,91.552318 181.535815,91.4120214 181.56,91.27 C181.56,91.39 181.56,91.49 181.56,91.59 C181.56,91.69 181.56,91.78 181.56,91.86 L181.72,93.01 L182.39,93.01 L181.98,90.36 L181.37,90.31 Z" id="Path"></path>
            <polygon id="Path" points="177.19 90.94 177.79 90.94 177.79 92.96 178.51 92.96 178.51 90.94 179.1 90.94 179.1 90.31 177.19 90.31"></polygon>
            <path d="M152.09,33.63 C150.52,33.71 148.09,33.91 146.33,34.19 C146.212131,32.3658032 145.596493,30.6088126 144.55,29.11 C143.222175,27.5668459 141.322731,26.6315686 139.29,26.52 C137.537186,26.3746134 135.795974,26.9120247 134.43,28.02 C133.946912,28.4103038 133.492415,28.8347241 133.07,29.29 L133.07,29.29 L133.02,29.35 C133.02,29.35 133.02,29.43 133.02,29.46 L133.11,29.52 C135.22,30.92 136,33.62 135.88,36.52 C134.45,36.89 133.2,37.34 131.88,37.62 C129.818655,38.173079 127.621127,37.8663632 125.79,36.77 C125.27,36.47 124.79,36.17 124.45,35.96 C122.89,35.05 121.87,35.28 120.69,36.57 C120.69,36.57 120.69,36.57 120.69,36.57 C122.165866,38.7616995 122.50412,41.5272001 121.6,44.01 C121.6,44.01 121.6,44.01 121.6,44.06 C124.83,47.28 127.41,49.01 132.22,47.91 C128.31,56.97 123.66,68.58 117.67,76.18 C115.08,79.47 112.22,82.31 109.86,82.38 C100.92,82.65 111.67,64.24 114.79,58.58 C115.86,56.21 115.37,54.64 113,53.58 C110.972541,52.747655 108.810835,52.2902406 106.62,52.23 C105.518737,52.2001245 104.527722,52.8946473 104.18,53.94 C99.18,66.58 96.63,71.65 94.18,81.1 C93.4491861,83.600318 93.1947707,86.215709 93.43,88.81 C94.296148,88.9586203 95.1539747,89.1522154 96,89.39 C99.4875181,90.3150623 102.666198,92.1511729 105.21,94.71 C110.44,92.71 115.41,86.88 119.02,80.86 C118.41,84.23 118.39,87.28 119.39,89.56 C119.869392,90.6939534 120.673004,91.6610702 121.7,92.34 C124.48,94.17 128.94,93.91 131.99,92.81 C135.52544,91.3752303 138.626954,89.0456484 140.99,86.05 C143.992231,82.3940435 146.441664,78.3172719 148.26,73.95 C149.409289,71.3750452 150.310045,68.6962182 150.95,65.95 C150.994971,65.8316252 150.944332,65.6983201 150.83211,65.6396585 C150.719888,65.580997 150.581528,65.6155071 150.51,65.72 C149.78,66.84 148.98,67.97 148.14,69.02 C146.005043,71.6980483 143.664624,74.2056402 141.14,76.52 C139.810843,77.8121938 138.285243,78.8855138 136.62,79.7 C135.18,80.27 132.75,80.01 132.37,78.27 C131.58,74.66 135.75,65.96 139.03,58.52 C140.51,55.13 142.82,49.63 144.48,44.52 C148.87,43.46 158.28,41.42 162.67,44.52 C162.93909,44.6862722 163.181778,44.8918832 163.39,45.13 C163.47,45.22 163.52,45.29 163.6,45.37 C164.91,46.7 166.27,45.7 166.2,44.23 C166.132002,41.9405324 165.514661,39.700954 164.4,37.7 C161.89,33.85 158.61,33.46 152.09,33.63 Z" id="Path"></path>
        </g>
    </g>
</svg>