<svg xmlns="http://www.w3.org/2000/svg" xmlns:xlink="http://www.w3.org/1999/xlink" version="1.1" id="Layer_1" x="0px" y="0px" viewBox="90 230 600 180" style="enable-background:new 0 0 792 612;" xml:space="preserve">
<style type="text/css">
	.st0{fill-rule:evenodd;clip-rule:evenodd;fill:#00001F;}
	.st1{fill:#00001F;}
</style>
<path class="st0" d="M187.2,297.5c0.2-8.8-3.6-16.4-12.2-20.1c-5.3-2.3-11.8-2.7-18.2-1.9c-8.2,0.9-16.5,3.7-22.7,6.9  c-26.7,13.6-36.9,41.5-16.9,42.2c0.4,0-8.6-13.1,26.3-29.7c-18.4,25.6-47.9,88.9-12.7,89.3c0.4,0,0.7,0,1-0.3  c0.3-0.2,0.5-0.5,0.4-0.8c-1.1-8.4-0.6-26.4,3.9-41.8c14.8-2.1,26.3-7.8,34.9-14.7C179,319.9,187,309.8,187.2,297.5L187.2,297.5z   M151.3,323.8c-3.5,1.3-6.9,1.9-9.8,2.1c4-9.5,9.6-19.8,17-30c0.8-1.1,0.3-2.6-0.9-3.1c-1.8-0.6-3.4-1.3-5.1-1.6  c4.6-1.5,12.7-2.6,17.3-0.1c3.9,2.1,5.4,5.8,4.5,10.1c-0.8,3.9-3.8,8.2-6.4,11.1C163.4,317.4,157.4,321.6,151.3,323.8L151.3,323.8z   M197.6,302.8c3.5-0.1,6.6-3.2,7-6.9c0.4-3.6-2.2-6.5-5.7-6.4c-3.5,0.1-6.6,3.2-7,6.8C191.6,300,194.1,302.9,197.6,302.8  L197.6,302.8z M217,331.2c0.4,1.7,2.7,2,4.1,1.4c1.2-0.5,2.8-1.7,4.4-3.1c2.4-2.2,5-5.1,6.8-7.3c0.8-1,1.6-2.1,2.3-3.2  c0.1-0.2,0.5-0.1,0.4,0.2c-0.3,2.1-1.8,5.7-2.6,7.8c-1.8,4.1-4.2,8.4-7.1,11.8c-2.5,3-5.5,5.4-8.8,6.6c-3,1.1-7.3,1.3-10-0.5  c-1-0.7-1.8-1.6-2.3-2.7c-1-2.2-1-5.2-0.4-8.5c-2.9,4.8-6.6,9.4-10.6,12.1c-2.5,1.6-5.9,2.7-8.9,2c-2.1-0.5-3.6-1.8-4.4-3.4  c-1.7-3.1-1.1-7.2-0.3-10.5c2.4-9.2,4.9-14.2,9.8-26.5c0.4-1,1.3-1.7,2.4-1.7c2.3,0.1,4.3,0.5,6.2,1.3c2.3,1,2.8,2.5,1.7,4.9  c-3,5.5-13.5,23.5-4.8,23.2c2.3-0.1,5.1-2.8,7.6-6.1c5.8-7.4,10.4-18.7,14.2-27.6c-4.7,1.1-7.2-0.6-10.4-3.8c0,0,0,0,0,0  c0.8-2.5,0.7-4.9-0.9-7.3c0,0,0,0,0,0c1.2-1.3,2.1-1.5,3.7-0.6c0.4,0.2,0.8,0.5,1.3,0.8c2,1.2,3.8,1.3,5.9,0.8  c1.3-0.3,2.5-0.7,3.9-1.1c0.1-2.8-0.6-5.4-2.7-6.8c0,0-0.1,0-0.1-0.1c0,0-0.1-0.1,0-0.1c0,0,0,0,0.1-0.1c0,0,0,0,0,0  c0.4-0.4,0.9-0.9,1.3-1.2c1.4-1.1,3.1-1.6,4.7-1.5c1.9,0.1,4,1,5.1,2.5c1,1.3,1.6,3.1,1.7,5c1.7-0.3,4.1-0.5,5.6-0.5  c4.2-0.2,9.6,0.2,12.1,4.1c0.1,0.2,0.3,0.5,0.4,0.7c-1.5,1.5-3,3.1-4.4,4.7c-4.9-1.1-12,0.4-15.5,1.2c-1.6,5-3.9,10.3-5.3,13.6  C220.3,319.2,216.2,327.7,217,331.2L217,331.2z M370.8,300.9c-0.6,2.4-1.1,5.5-1.9,8.5c-0.8,2.8-1.4,5-3.1,7.6  c-1.5,2.3-3.8,4.5-5.7,4.7c-7,0.7-1.1-13,1.8-19.7c0.4-0.9,1-2.1,1.2-3c0.2-0.8,0.1-1.5-0.2-2.3c-0.6-1.3-1.6-2-3-2.4  c-1-0.3-3.3-0.9-4.7-0.5c-1.1,0.3-1.3,0.7-1.6,1.4c-0.8,1.6-1.4,4-2,5.8c-1.5,4.5-2.7,8.5-3.6,12.1c-0.4,1.7-0.8,3.2-1,4.7  c-0.6,0.9-1.2,1.8-1.9,2.6c-1.5,1.9-3.1,3.3-4.6,3.4c-7.9,0.8,0.2-16.5,2.4-21.8c1-2.4-0.3-4.5-2.5-5.4c-0.8-0.3-3.1-0.6-4.6-0.7  c-0.2,0-0.3,0-0.5,0c-1.3,0.2-1.7,1.2-2,2.4c-0.1,0.3-0.1,0.7-0.2,0.9c-1.5-1.7-3.7-2.7-7.3-2.3c-5,0.5-9.4,3.9-12.9,8.5  c3.1-10.9-0.2-21.2-10.4-25.5c-5-2.1-11.1-2.5-17.2-1.8c-7.7,0.9-15.5,3.5-21.4,6.5c-25.1,12.8-34.8,39.1-15.9,39.9  c0.4,0-8.1-12.4,24.8-28c-17.3,24.2-45.2,83.9-12,84.2c0.3,0,0.7,0,0.9-0.3c0.2-0.2,0.5-0.4,0.4-0.8c-1.1-7.9-0.6-24.9,3.6-39.5  c19.5-2.8,33.2-11.9,41-22.4c-1.8,5.6-2.2,11.1-1,14.9c2.2,6.9,9.6,5.6,14.1,1.9c2-1.6,4.3-4.1,6.6-8.1c-0.2,4.7,1.4,8.2,5.5,8.8  c2,0.3,4,0,5.8-0.9c3.2-1.5,6.2-4.8,8.6-8.6c0,5.7,3,8.9,8.7,8.3c2.9-0.3,7.5-2.4,9.1-5.3c-0.4,1.4-0.8,2.7-1.2,3.9  c-0.9,2.6-3.1,7.7-4.5,10c-2.9,4.9-6.4,7.2-10.3,7.3c-4.4,0.5-7-3.9-1.9-9.2c0,0,0.1-0.1,0.1-0.1c0.1-0.1,0.2-0.2,0.3-0.3  c0-0.1,0.1-0.1,0.1-0.2c0.2-0.2,0-0.5-0.2-0.5l-0.6,0.1c-19,2.3-17.7,22.6,1.9,20.6c6.1-0.8,11.3-3.6,15.1-7.2  c3.8-3.7,7.3-12,8.8-17.2c1.1-4,2.2-8,3.2-11.9c0.8-3,1.6-5.8,2.4-8.5c0.4-1.4,0.8-2.7,1.2-4c1.8-5.5,3.2-11.4,5.7-16.1  c2.4-4.5-3-5.3-6.1-5.2c-1.4,0.1-2.7,0.2-3.8,1.2C372.6,292.9,371.4,298.4,370.8,300.9L370.8,300.9z M280.1,323.5  c-3.3,1.2-6.5,1.8-9.2,2c3.8-8.9,9.1-18.7,16-28.3c0.7-1,0.3-2.5-0.9-2.9c-1.7-0.6-3.2-1.2-4.8-1.5c4.3-1.4,12-2.5,16.3-0.1  c3.7,2,5.1,5.5,4.3,9.5c-0.8,3.7-3.6,7.7-6.1,10.5C291.5,317.4,285.8,321.4,280.1,323.5L280.1,323.5z M317.3,324.7  c-1.2-0.3-2-2-1.7-5.4c0.6-7.2,6.8-16,11.1-15.4c2.1,0.4,2.7,2.4,2.2,4.4c-0.8,3-1.3,5.1-3.2,9.3  C323.7,322.2,319.9,325.4,317.3,324.7L317.3,324.7z M387.5,292.1V289h-0.9v-1h2.9v1h-0.9v3.1H387.5L387.5,292.1z M394.7,292.1h-1  l-0.2-1.7c0-0.1,0-0.3,0-0.4c0-0.2,0-0.3,0-0.5c0,0.2-0.1,0.4-0.2,0.6c0,0.1,0,0.1,0,0.1l-0.5,1.9h-0.7l-0.5-1.9c0,0,0-0.1,0-0.1  c-0.1-0.3-0.1-0.5-0.2-0.6c0,0.2,0,0.3,0,0.5c0,0.1,0,0.3-0.1,0.4l-0.2,1.7h-1l0.6-4h1.1l0.6,2.1c0,0,0,0,0,0.1  c0.1,0.2,0.1,0.3,0.1,0.5c0-0.1,0-0.2,0-0.2c0-0.1,0-0.2,0.1-0.3l0.6-2.1h1.1L394.7,292.1z"/>
<g>
	<path class="st1" d="M417.5,342.9l-9.7-49.5l-0.1-0.3c0-0.4,0.3-0.7,0.8-0.7h7c0.6,0,0.9,0.3,1,0.8l5.1,30.6c0,0.1,0.1,0.2,0.2,0.2   c0.1,0,0.2-0.1,0.2-0.2l4.6-30.6c0-0.5,0.4-0.8,1-0.8h5.9c0.6,0,0.9,0.3,1,0.8l5,30.6c0,0.1,0.1,0.2,0.2,0.2c0.1,0,0.2-0.1,0.2-0.2   l4.6-30.6c0-0.5,0.4-0.8,1-0.8h6.8c0.6,0,0.9,0.3,0.8,1l-9.3,49.5c0,0.5-0.4,0.8-1,0.8h-6.2c-0.6,0-0.9-0.3-1-0.8l-4.9-31.1   c0-0.2-0.1-0.3-0.2-0.3c-0.1,0-0.2,0.1-0.2,0.3l-4.5,31.1c0,0.5-0.4,0.8-1,0.8h-6.3C417.8,343.7,417.5,343.5,417.5,342.9z"/>
	<path class="st1" d="M458.8,299.7c-1-1-1.5-2.2-1.5-3.7c0-1.5,0.5-2.8,1.5-3.7c1-1,2.2-1.5,3.7-1.5c1.5,0,2.7,0.5,3.7,1.5   c1,1,1.4,2.2,1.4,3.7c0,1.5-0.5,2.8-1.5,3.7c-1,1-2.2,1.5-3.7,1.5C461,301.1,459.8,300.7,458.8,299.7z M458.6,343.5   c-0.2-0.2-0.3-0.4-0.3-0.6v-35.7c0-0.2,0.1-0.5,0.3-0.6c0.2-0.2,0.4-0.3,0.6-0.3h6.7c0.2,0,0.5,0.1,0.6,0.3   c0.2,0.2,0.3,0.4,0.3,0.6v35.7c0,0.2-0.1,0.5-0.3,0.6c-0.2,0.2-0.4,0.3-0.6,0.3h-6.7C459,343.7,458.8,343.6,458.6,343.5z"/>
	<path class="st1" d="M497.1,308.9c1.6,2.1,2.5,5.1,2.5,9v24.9c0,0.2-0.1,0.5-0.3,0.6c-0.2,0.2-0.4,0.3-0.6,0.3h-6.7   c-0.2,0-0.5-0.1-0.6-0.3c-0.2-0.2-0.3-0.4-0.3-0.6v-24.3c0-1.8-0.4-3.1-1.1-4.1c-0.7-1-1.8-1.5-3.2-1.5c-1.4,0-2.5,0.5-3.3,1.5   c-0.8,1-1.2,2.4-1.2,4.2v24c0,0.2-0.1,0.5-0.3,0.6c-0.2,0.2-0.4,0.3-0.6,0.3h-6.7c-0.2,0-0.5-0.1-0.6-0.3c-0.2-0.2-0.3-0.4-0.3-0.6   v-35.7c0-0.2,0.1-0.5,0.3-0.6c0.2-0.2,0.4-0.3,0.6-0.3h6.7c0.2,0,0.5,0.1,0.6,0.3c0.2,0.2,0.3,0.4,0.3,0.6v1.5   c0,0.1,0.1,0.2,0.2,0.3c0.1,0,0.3-0.1,0.4-0.3c1.7-2,4-2.9,7-2.9C493,305.7,495.4,306.8,497.1,308.9z"/>
	<path class="st1" d="M523,292.7c0.2-0.2,0.4-0.3,0.6-0.3h6.7c0.2,0,0.5,0.1,0.6,0.3c0.2,0.2,0.3,0.4,0.3,0.6v49.5   c0,0.2-0.1,0.5-0.3,0.6c-0.2,0.2-0.4,0.3-0.6,0.3h-6.7c-0.2,0-0.5-0.1-0.6-0.3c-0.2-0.2-0.3-0.4-0.3-0.6V342c0-0.1,0-0.2-0.1-0.3   c-0.1,0-0.2,0-0.3,0.1c-1.8,1.7-4,2.6-6.6,2.6c-3.3,0-5.8-1.1-7.6-3.2c-1.8-2.1-2.7-5-2.7-8.6v-14.9c0-3.7,0.9-6.6,2.7-8.7   s4.4-3.2,7.6-3.2c1.1,0,2.3,0.2,3.4,0.6c1.2,0.4,2.2,1.1,3.2,2c0.1,0.1,0.2,0.1,0.3,0.1c0.1,0,0.1-0.1,0.1-0.3v-14.8   C522.8,293.1,522.9,292.9,523,292.7z M521.3,335.8c0.8-0.8,1.3-1.8,1.5-3v-15.6c-0.2-1.3-0.7-2.3-1.5-3c-0.8-0.8-1.8-1.1-2.9-1.1   c-1.4,0-2.5,0.5-3.3,1.4c-0.8,1-1.2,2.2-1.2,3.8v13.6c0,1.6,0.4,2.8,1.2,3.8c0.8,1,1.9,1.4,3.3,1.4   C519.5,337,520.5,336.6,521.3,335.8z"/>
	<path class="st1" d="M540.9,341.1c-2.3-2.1-3.5-5.1-3.5-8.7v-14.7c0-3.6,1.2-6.5,3.5-8.7c2.3-2.2,5.5-3.3,9.5-3.3   c4.1,0,7.3,1.1,9.6,3.3c2.3,2.2,3.5,5.1,3.5,8.7v14.7c0,3.7-1.2,6.6-3.5,8.7c-2.3,2.2-5.5,3.2-9.6,3.2   C546.4,344.3,543.2,343.2,540.9,341.1z M553.8,335.5c0.9-1,1.3-2.2,1.3-3.8v-13.5c0-1.5-0.4-2.8-1.3-3.7c-0.9-1-2-1.5-3.3-1.5   c-1.4,0-2.5,0.5-3.3,1.4c-0.8,1-1.2,2.2-1.2,3.8v13.5c0,1.6,0.4,2.8,1.2,3.8c0.8,1,1.9,1.4,3.3,1.4   C551.8,336.9,552.9,336.4,553.8,335.5z"/>
	<path class="st1" d="M574.4,342.9l-7.8-35.8v-0.3c0-0.4,0.3-0.7,0.8-0.7h6.4c0.6,0,0.9,0.3,1,0.8l3.8,22.8c0,0.1,0.1,0.2,0.2,0.2   c0.1,0,0.2-0.1,0.2-0.2l4-22.8c0-0.5,0.4-0.8,1-0.8h5.7c0.6,0,0.9,0.3,1,0.8l4.1,22.9c0,0.1,0.1,0.2,0.2,0.2c0.1,0,0.2-0.1,0.2-0.2   l3.9-22.9c0-0.5,0.4-0.8,1-0.8l6.4,0.1c0.6,0,0.9,0.3,0.7,1l-7.8,35.6c-0.1,0.5-0.4,0.8-1,0.8h-6.6c-0.6,0-0.9-0.3-1-0.8l-3.9-21.4   c0-0.1-0.1-0.2-0.2-0.2c-0.1,0-0.2,0.1-0.2,0.2l-3.8,21.4c0,0.5-0.4,0.8-1,0.8h-6.4C574.8,343.7,574.5,343.5,574.4,342.9z"/>
</g>
</svg>