<svg viewBox="0 0 601.23 279.02" xmlns="http://www.w3.org/2000/svg" xmlns:xlink="http://www.w3.org/1999/xlink"><clipPath id="a" transform="translate(-110.39 -217.27)"><path d="m385.09 296.9v88.24h-11.64a15.75 15.75 0 1 0 -30.55 0h-46.34a15.75 15.75 0 1 0 -30.55 0h-11.64v-88.24z"/></clipPath><clipPath id="b" transform="translate(-110.39 -217.27)"><circle cx="280.5" cy="351.98" r="7.79"/></clipPath><clipPath id="c" transform="translate(-110.39 -217.27)"><circle cx="358.71" cy="351.98" r="7.79"/></clipPath><path d="m315.88 273.37h7.69v200.46h-7.69z" fill="#065183" transform="matrix(-1 0 0 -1 529.06 529.94)"/><path d="m322.7 273.37h.87v200.46h-.87z" fill="#fff" opacity=".2" transform="matrix(-1 0 0 -1 535.88 529.94)"/><path d="m315.88 273.37h.87v200.46h-.87z" fill="#010101" opacity=".2" transform="matrix(-1 0 0 -1 522.25 529.94)"/><path d="m308.19 273.37h7.69v200.46h-7.69z" fill="#065183" transform="matrix(-1 0 0 -1 513.68 529.94)"/><path d="m315.01 273.37h.87v200.46h-.87z" fill="#fff" opacity=".2" transform="matrix(-1 0 0 -1 520.5 529.94)"/><path d="m308.19 273.37h.87v200.46h-.87z" fill="#010101" opacity=".2" transform="matrix(-1 0 0 -1 506.87 529.94)"/><path d="m300.5 273.37h7.69v200.46h-7.69z" fill="#065183" transform="matrix(-1 0 0 -1 498.3 529.94)"/><path d="m307.32 273.37h.87v200.46h-.87z" fill="#fff" opacity=".2" transform="matrix(-1 0 0 -1 505.12 529.94)"/><path d="m300.5 273.37h.87v200.46h-.87z" fill="#010101" opacity=".2" transform="matrix(-1 0 0 -1 491.49 529.94)"/><path d="m292.81 273.37h7.69v200.46h-7.69z" fill="#065183" transform="matrix(-1 0 0 -1 482.93 529.94)"/><path d="m299.63 273.37h.87v200.46h-.87z" fill="#fff" opacity=".2" transform="matrix(-1 0 0 -1 489.74 529.94)"/><path d="m292.81 273.37h.87v200.46h-.87z" fill="#010101" opacity=".2" transform="matrix(-1 0 0 -1 476.11 529.94)"/><path d="m285.13 273.37h7.69v200.46h-7.69z" fill="#065183" transform="matrix(-1 0 0 -1 467.55 529.94)"/><path d="m291.94 273.37h.87v200.46h-.87z" fill="#fff" opacity=".2" transform="matrix(-1 0 0 -1 474.36 529.94)"/><path d="m285.13 273.37h.87v200.46h-.87z" fill="#010101" opacity=".2" transform="matrix(-1 0 0 -1 460.73 529.94)"/><path d="m277.44 273.37h7.69v200.46h-7.69z" fill="#065183" transform="matrix(-1 0 0 -1 452.17 529.94)"/><path d="m284.25 273.37h.87v200.46h-.87z" fill="#fff" opacity=".2" transform="matrix(-1 0 0 -1 458.98 529.94)"/><path d="m277.44 273.37h.87v200.46h-.87z" fill="#010101" opacity=".2" transform="matrix(-1 0 0 -1 445.35 529.94)"/><path d="m269.75 273.37h7.69v200.46h-7.69z" fill="#065183" transform="matrix(-1 0 0 -1 436.79 529.94)"/><path d="m276.56 273.37h.87v200.46h-.87z" fill="#fff" opacity=".2" transform="matrix(-1 0 0 -1 443.61 529.94)"/><path d="m269.75 273.37h.87v200.46h-.87z" fill="#010101" opacity=".2" transform="matrix(-1 0 0 -1 429.97 529.94)"/><path d="m262.06 273.37h7.69v200.46h-7.69z" fill="#065183" transform="matrix(-1 0 0 -1 421.41 529.94)"/><path d="m268.87 273.37h.87v200.46h-.87z" fill="#fff" opacity=".2" transform="matrix(-1 0 0 -1 428.23 529.94)"/><path d="m262.06 273.37h.87v200.46h-.87z" fill="#010101" opacity=".2" transform="matrix(-1 0 0 -1 414.6 529.94)"/><path d="m254.37 273.37h7.69v200.46h-7.69z" fill="#065183" transform="matrix(-1 0 0 -1 406.03 529.94)"/><path d="m261.18 273.37h.87v200.46h-.87z" fill="#fff" opacity=".2" transform="matrix(-1 0 0 -1 412.85 529.94)"/><path d="m254.37 273.37h.87v200.46h-.87z" fill="#010101" opacity=".2" transform="matrix(-1 0 0 -1 399.22 529.94)"/><path d="m246.68 273.37h7.69v200.46h-7.69z" fill="#065183" transform="matrix(-1 0 0 -1 390.65 529.94)"/><path d="m253.49 273.37h.87v200.46h-.87z" fill="#fff" opacity=".2" transform="matrix(-1 0 0 -1 397.47 529.94)"/><path d="m246.68 273.37h.87v200.46h-.87z" fill="#010101" opacity=".2" transform="matrix(-1 0 0 -1 383.84 529.94)"/><path d="m238.99 273.37h7.69v200.46h-7.69z" fill="#065183" transform="matrix(-1 0 0 -1 375.28 529.94)"/><path d="m245.8 273.37h.87v200.46h-.87z" fill="#fff" opacity=".2" transform="matrix(-1 0 0 -1 382.09 529.94)"/><path d="m238.99 273.37h.87v200.46h-.87z" fill="#010101" opacity=".2" transform="matrix(-1 0 0 -1 368.46 529.94)"/><path d="m231.3 273.37h7.69v200.46h-7.69z" fill="#065183" transform="matrix(-1 0 0 -1 359.9 529.94)"/><path d="m238.12 273.37h.87v200.46h-.87z" fill="#fff" opacity=".2" transform="matrix(-1 0 0 -1 366.71 529.94)"/><path d="m231.3 273.37h.87v200.46h-.87z" fill="#010101" opacity=".2" transform="matrix(-1 0 0 -1 353.08 529.94)"/><path d="m223.61 273.37h7.69v200.46h-7.69z" fill="#065183" transform="matrix(-1 0 0 -1 344.52 529.94)"/><path d="m230.43 273.37h.87v200.46h-.87z" fill="#fff" opacity=".2" transform="matrix(-1 0 0 -1 351.33 529.94)"/><path d="m223.61 273.37h.87v200.46h-.87z" fill="#010101" opacity=".2" transform="matrix(-1 0 0 -1 337.7 529.94)"/><path d="m215.92 273.37h7.69v200.46h-7.69z" fill="#065183" transform="matrix(-1 0 0 -1 329.14 529.94)"/><path d="m222.74 273.37h.87v200.46h-.87z" fill="#fff" opacity=".2" transform="matrix(-1 0 0 -1 335.95 529.94)"/><path d="m215.92 273.37h.87v200.46h-.87z" fill="#010101" opacity=".2" transform="matrix(-1 0 0 -1 322.32 529.94)"/><path d="m208.23 273.37h7.69v200.46h-7.69z" fill="#065183" transform="matrix(-1 0 0 -1 313.76 529.94)"/><path d="m215.05 273.37h.87v200.46h-.87z" fill="#fff" opacity=".2" transform="matrix(-1 0 0 -1 320.58 529.94)"/><path d="m208.23 273.37h.87v200.46h-.87z" fill="#010101" opacity=".2" transform="matrix(-1 0 0 -1 306.94 529.94)"/><path d="m200.54 273.37h7.69v200.46h-7.69z" fill="#065183" transform="matrix(-1 0 0 -1 298.38 529.94)"/><path d="m207.36 273.37h.87v200.46h-.87z" fill="#fff" opacity=".2" transform="matrix(-1 0 0 -1 305.2 529.94)"/><path d="m200.54 273.37h.87v200.46h-.87z" fill="#010101" opacity=".2" transform="matrix(-1 0 0 -1 291.57 529.94)"/><path d="m192.85 273.37h7.69v200.46h-7.69z" fill="#065183" transform="matrix(-1 0 0 -1 283 529.94)"/><path d="m199.67 273.37h.87v200.46h-.87z" fill="#fff" opacity=".2" transform="matrix(-1 0 0 -1 289.82 529.94)"/><path d="m192.85 273.37h.87v200.46h-.87z" fill="#010101" opacity=".2" transform="matrix(-1 0 0 -1 276.19 529.94)"/><path d="m185.16 273.37h7.69v200.46h-7.69z" fill="#065183" transform="matrix(-1 0 0 -1 267.62 529.94)"/><path d="m191.98 273.37h.87v200.46h-.87z" fill="#fff" opacity=".2" transform="matrix(-1 0 0 -1 274.44 529.94)"/><path d="m185.16 273.37h.87v200.46h-.87z" fill="#010101" opacity=".2" transform="matrix(-1 0 0 -1 260.81 529.94)"/><path d="m177.47 273.37h7.69v200.46h-7.69z" fill="#065183" transform="matrix(-1 0 0 -1 252.25 529.94)"/><path d="m184.29 273.37h.87v200.46h-.87z" fill="#fff" opacity=".2" transform="matrix(-1 0 0 -1 259.06 529.94)"/><path d="m177.47 273.37h.87v200.46h-.87z" fill="#010101" opacity=".2" transform="matrix(-1 0 0 -1 245.43 529.94)"/><path d="m169.78 273.37h7.69v200.46h-7.69z" fill="#065183" transform="matrix(-1 0 0 -1 236.87 529.94)"/><path d="m176.6 273.37h.87v200.46h-.87z" fill="#fff" opacity=".2" transform="matrix(-1 0 0 -1 243.68 529.94)"/><path d="m169.78 273.37h.87v200.46h-.87z" fill="#010101" opacity=".2" transform="matrix(-1 0 0 -1 230.05 529.94)"/><path d="m57.63 56.1h5.94.87.88 5.94.88.87 5.94.87.88 5.94.87.88 5.94.87.88 5.94.87.88 5.94.87.87 5.95.87.87 5.95.87.87 5.95.87.87 5.95.87.87 5.94.88.87 5.94.88.87 5.94.88.87 5.94.88.87 5.94.88.87 5.94.87.88 5.94.87.88 5.94.87.88 5.94.87v200.46h-.87-5.94-.88-.87-5.94-.88-.87-5.94-.88-.87-5.94-.87-.88-5.94-.87-.88-5.94-.87-.88-5.94-.87-.88-5.94-.87-.88-5.94-.87-.87-5.95-.87-.87-5.95-.87-.87-5.95-.87-.87-5.95-.87-.87-5.94-.88-.87-5.94-.88-.87-5.94-.88-.87-5.94-.88-.87-5.94-.87-.88-5.94-.88-.87-5.94-.87v-200.46z" fill="#010101" opacity=".43"/><path d="m388.93 273.37h7.69v200.46h-7.69z" fill="#065183" transform="matrix(-1 0 0 -1 675.16 529.94)"/><path d="m395.75 273.37h.87v200.46h-.87z" fill="#fff" opacity=".2" transform="matrix(-1 0 0 -1 681.98 529.94)"/><path d="m388.93 273.37h.87v200.46h-.87z" fill="#010101" opacity=".2" transform="matrix(-1 0 0 -1 668.34 529.94)"/><path d="m381.24 273.37h7.69v200.46h-7.69z" fill="#065183" transform="matrix(-1 0 0 -1 659.78 529.94)"/><path d="m388.06 273.37h.87v200.46h-.87z" fill="#fff" opacity=".2" transform="matrix(-1 0 0 -1 666.6 529.94)"/><path d="m381.24 273.37h.87v200.46h-.87z" fill="#010101" opacity=".2" transform="matrix(-1 0 0 -1 652.97 529.94)"/><path d="m373.55 273.37h7.69v200.46h-7.69z" fill="#065183" transform="matrix(-1 0 0 -1 644.4 529.94)"/><path d="m380.37 273.37h.87v200.46h-.87z" fill="#fff" opacity=".2" transform="matrix(-1 0 0 -1 651.22 529.94)"/><path d="m373.55 273.37h.87v200.46h-.87z" fill="#010101" opacity=".2" transform="matrix(-1 0 0 -1 637.59 529.94)"/><path d="m365.86 273.37h7.69v200.46h-7.69z" fill="#065183" transform="matrix(-1 0 0 -1 629.02 529.94)"/><path d="m372.68 273.37h.87v200.46h-.87z" fill="#fff" opacity=".2" transform="matrix(-1 0 0 -1 635.84 529.94)"/><path d="m365.86 273.37h.87v200.46h-.87z" fill="#010101" opacity=".2" transform="matrix(-1 0 0 -1 622.21 529.94)"/><path d="m358.17 273.37h7.69v200.46h-7.69z" fill="#065183" transform="matrix(-1 0 0 -1 613.65 529.94)"/><path d="m364.99 273.37h.87v200.46h-.87z" fill="#fff" opacity=".2" transform="matrix(-1 0 0 -1 620.46 529.94)"/><path d="m358.17 273.37h.87v200.46h-.87z" fill="#010101" opacity=".2" transform="matrix(-1 0 0 -1 606.83 529.94)"/><path d="m350.48 273.37h7.69v200.46h-7.69z" fill="#065183" transform="matrix(-1 0 0 -1 598.27 529.94)"/><path d="m357.3 273.37h.87v200.46h-.87z" fill="#fff" opacity=".2" transform="matrix(-1 0 0 -1 605.08 529.94)"/><path d="m350.48 273.37h.87v200.46h-.87z" fill="#010101" opacity=".2" transform="matrix(-1 0 0 -1 591.45 529.94)"/><path d="m342.8 273.37h7.69v200.46h-7.69z" fill="#065183" transform="matrix(-1 0 0 -1 582.89 529.94)"/><path d="m349.61 273.37h.87v200.46h-.87z" fill="#fff" opacity=".2" transform="matrix(-1 0 0 -1 589.7 529.94)"/><path d="m342.8 273.37h.87v200.46h-.87z" fill="#010101" opacity=".2" transform="matrix(-1 0 0 -1 576.07 529.94)"/><path d="m335.11 273.37h7.69v200.46h-7.69z" fill="#065183" transform="matrix(-1 0 0 -1 567.51 529.94)"/><path d="m341.92 273.37h.87v200.46h-.87z" fill="#fff" opacity=".2" transform="matrix(-1 0 0 -1 574.32 529.94)"/><path d="m335.11 273.37h.87v200.46h-.87z" fill="#010101" opacity=".2" transform="matrix(-1 0 0 -1 560.69 529.94)"/><path d="m327.42 273.37h7.69v200.46h-7.69z" fill="#065183" transform="matrix(-1 0 0 -1 552.13 529.94)"/><path d="m334.23 273.37h.87v200.46h-.87z" fill="#fff" opacity=".2" transform="matrix(-1 0 0 -1 558.95 529.94)"/><path d="m327.42 273.37h.87v200.46h-.87z" fill="#010101" opacity=".2" transform="matrix(-1 0 0 -1 545.31 529.94)"/><path d="m319.73 273.37h7.69v200.46h-7.69z" fill="#065183" transform="matrix(-1 0 0 -1 536.75 529.94)"/><path d="m326.54 273.37h.87v200.46h-.87z" fill="#fff" opacity=".2" transform="matrix(-1 0 0 -1 543.57 529.94)"/><path d="m319.73 273.37h.87v200.46h-.87z" fill="#010101" opacity=".2" transform="matrix(-1 0 0 -1 529.94 529.94)"/><path d="m312.04 273.37h7.69v200.46h-7.69z" fill="#065183" transform="matrix(-1 0 0 -1 521.37 529.94)"/><path d="m318.85 273.37h.87v200.46h-.87z" fill="#fff" opacity=".2" transform="matrix(-1 0 0 -1 528.19 529.94)"/><path d="m312.04 273.37h.87v200.46h-.87z" fill="#010101" opacity=".2" transform="matrix(-1 0 0 -1 514.56 529.94)"/><path d="m304.35 273.37h7.69v200.46h-7.69z" fill="#065183" transform="matrix(-1 0 0 -1 505.99 529.94)"/><path d="m311.16 273.37h.87v200.46h-.87z" fill="#fff" opacity=".2" transform="matrix(-1 0 0 -1 512.81 529.94)"/><path d="m304.35 273.37h.87v200.46h-.87z" fill="#010101" opacity=".2" transform="matrix(-1 0 0 -1 499.18 529.94)"/><path d="m296.66 273.37h7.69v200.46h-7.69z" fill="#065183" transform="matrix(-1 0 0 -1 490.62 529.94)"/><path d="m303.47 273.37h.87v200.46h-.87z" fill="#fff" opacity=".2" transform="matrix(-1 0 0 -1 497.43 529.94)"/><path d="m296.66 273.37h.87v200.46h-.87z" fill="#010101" opacity=".2" transform="matrix(-1 0 0 -1 483.8 529.94)"/><path d="m288.97 273.37h7.69v200.46h-7.69z" fill="#065183" transform="matrix(-1 0 0 -1 475.24 529.94)"/><path d="m295.79 273.37h.87v200.46h-.87z" fill="#fff" opacity=".2" transform="matrix(-1 0 0 -1 482.05 529.94)"/><path d="m288.97 273.37h.87v200.46h-.87z" fill="#010101" opacity=".2" transform="matrix(-1 0 0 -1 468.42 529.94)"/><path d="m281.28 273.37h7.69v200.46h-7.69z" fill="#065183" transform="matrix(-1 0 0 -1 459.86 529.94)"/><path d="m288.1 273.37h.87v200.46h-.87z" fill="#fff" opacity=".2" transform="matrix(-1 0 0 -1 466.67 529.94)"/><path d="m281.28 273.37h.87v200.46h-.87z" fill="#010101" opacity=".2" transform="matrix(-1 0 0 -1 453.04 529.94)"/><path d="m273.59 273.37h7.69v200.46h-7.69z" fill="#065183" transform="matrix(-1 0 0 -1 444.48 529.94)"/><path d="m280.41 273.37h.87v200.46h-.87z" fill="#fff" opacity=".2" transform="matrix(-1 0 0 -1 451.29 529.94)"/><path d="m273.59 273.37h.87v200.46h-.87z" fill="#010101" opacity=".2" transform="matrix(-1 0 0 -1 437.66 529.94)"/><path d="m265.9 273.37h7.69v200.46h-7.69z" fill="#065183" transform="matrix(-1 0 0 -1 429.1 529.94)"/><path d="m272.72 273.37h.87v200.46h-.87z" fill="#fff" opacity=".2" transform="matrix(-1 0 0 -1 435.92 529.94)"/><path d="m265.9 273.37h.87v200.46h-.87z" fill="#010101" opacity=".2" transform="matrix(-1 0 0 -1 422.29 529.94)"/><path d="m258.21 273.37h7.69v200.46h-7.69z" fill="#065183" transform="matrix(-1 0 0 -1 413.72 529.94)"/><path d="m265.03 273.37h.87v200.46h-.87z" fill="#fff" opacity=".2" transform="matrix(-1 0 0 -1 420.54 529.94)"/><path d="m258.21 273.37h.87v200.46h-.87z" fill="#010101" opacity=".2" transform="matrix(-1 0 0 -1 406.91 529.94)"/><path d="m250.52 273.37h7.69v200.46h-7.69z" fill="#065183" transform="matrix(-1 0 0 -1 398.34 529.94)"/><path d="m257.34 273.37h.87v200.46h-.87z" fill="#fff" opacity=".2" transform="matrix(-1 0 0 -1 405.16 529.94)"/><path d="m250.52 273.37h.87v200.46h-.87z" fill="#010101" opacity=".2" transform="matrix(-1 0 0 -1 391.53 529.94)"/><path d="m242.83 273.37h7.69v200.46h-7.69z" fill="#065183" transform="matrix(-1 0 0 -1 382.96 529.94)"/><path d="m249.65 273.37h.87v200.46h-.87z" fill="#fff" opacity=".2" transform="matrix(-1 0 0 -1 389.78 529.94)"/><path d="m242.83 273.37h.87v200.46h-.87z" fill="#010101" opacity=".2" transform="matrix(-1 0 0 -1 376.15 529.94)"/><path d="m225.95 217.27h187.56v65.61h-187.56z" fill="#e6e7e7" transform="matrix(-1 0 0 -1 529.06 282.88)"/><path d="m291.5 160.87h56.45v178.41h-56.45z" fill="#065183" transform="matrix(0 1 -1 0 459.41 -286.92)"/><path d="m152.97 217.27h72.97v65.61h-72.97z" fill="#838383" transform="matrix(-1 0 0 -1 268.53 282.88)"/><path d="m254.72 462.97h148.71v5.82h-148.71z" fill="#e6e7e7" transform="matrix(-1 0 0 -1 547.76 714.5)"/><path d="m260.55 465.88h150.13v10.67h-150.13z" fill="#e6e7e7" transform="matrix(-1 0 0 -1 560.84 725.16)"/><path d="m161.56 462.97h93.17v5.82h-93.17z" fill="#838383" transform="matrix(-1 0 0 -1 305.89 714.5)"/><path d="m152.97 465.88h109v10.67h-109z" fill="#838383" transform="matrix(-1 0 0 -1 304.55 725.16)"/><path d="m242.83 282.88h153.79v6.49h-153.79z" fill="#010101" opacity=".43" transform="matrix(-1 0 0 -1 529.06 354.98)"/><path d="m169.78 282.88h73.49v6.49h-73.49z" fill="#010101" opacity=".43" transform="matrix(-1 0 0 -1 302.66 354.98)"/><path d="m254.37 296.9h130.72v88.24h-130.72z" fill="#00263a" transform="matrix(-1 0 0 -1 529.06 464.78)"/><path d="m385.09 296.9v88.24h-11.64a15.75 15.75 0 1 0 -30.55 0h-46.34a15.75 15.75 0 1 0 -30.55 0h-11.64v-88.24z" fill="#fff" opacity=".32" transform="translate(-110.39 -217.27)"/><path d="m381.68 301.18h1.27v80.11h-1.27z" fill="#010101" opacity=".19" transform="matrix(-1 0 0 -1 654.23 465.21)"/><path d="m317.55 300.97h1.27v80.11h-1.27z" fill="#010101" opacity=".19" transform="matrix(-1 0 0 -1 525.98 464.78)"/><path d="m321.19 301.18h61.75v1.07h-61.75z" fill="#010101" opacity=".19" transform="matrix(-1 0 0 -1 593.75 386.17)"/><path d="m255.63 301.18h61.75v1.07h-61.75z" fill="#010101" opacity=".19" transform="matrix(-1 0 0 -1 462.63 386.17)"/><g clip-path="url(#a)"><g fill="#fff" opacity=".15"><path d="m380.86 274.3h4.82v125.36h-4.82z" transform="matrix(.70710678 -.70710678 .70710678 .70710678 -236.41 152.44)"/><path d="m316.45 278.34h4.82v125.36h-4.82z" transform="matrix(.70710678 -.70710678 .70710678 .70710678 -258.14 108.08)"/><path d="m282.72 287.85h4.82v125.36h-4.82z" transform="matrix(.70710678 -.70710678 .70710678 .70710678 -274.74 87.01)"/><path d="m359.91 278.34h11.91v125.36h-11.91z" transform="matrix(.70710678 -.70710678 .70710678 .70710678 -244.37 141.32)"/><path d="m290.27 278.34h11.91v125.36h-11.91z" transform="matrix(.70710678 -.70710678 .70710678 .70710678 -264.77 92.08)"/></g></g><path d="m252.23 296.9h4.28v84.39h-4.28z" fill="#9f9ea0" transform="matrix(-1 0 0 -1 398.34 460.93)"/><path d="m317.59 231.54h4.28v135h-4.28z" fill="#9f9ea0" transform="matrix(0 1 -1 0 508.38 -237.95)"/><path d="m382.95 296.9h4.28v84.39h-4.28z" fill="#9f9ea0" transform="matrix(-1 0 0 -1 659.78 460.93)"/><g clip-path="url(#b)" fill="#424143"><circle cx="179.82" cy="126.77" r=".4"/><circle cx="177.88" cy="126.77" r=".4"/><circle cx="175.93" cy="126.77" r=".4"/><circle cx="173.99" cy="126.77" r=".4"/><circle cx="172.05" cy="126.77" r=".4"/><circle cx="170.11" cy="126.77" r=".4"/><circle cx="168.17" cy="126.77" r=".4"/><circle cx="166.23" cy="126.77" r=".4"/><circle cx="164.29" cy="126.77" r=".4"/><circle cx="162.34" cy="126.77" r=".4"/><circle cx="160.4" cy="126.77" r=".4"/><circle cx="178.85" cy="127.83" r=".4"/><circle cx="176.91" cy="127.83" r=".4"/><circle cx="174.96" cy="127.83" r=".4"/><circle cx="173.02" cy="127.83" r=".4"/><circle cx="171.08" cy="127.83" r=".4"/><circle cx="169.14" cy="127.83" r=".4"/><circle cx="167.2" cy="127.83" r=".4"/><circle cx="165.26" cy="127.83" r=".4"/><circle cx="163.31" cy="127.83" r=".4"/><circle cx="161.37" cy="127.83" r=".4"/><circle cx="179.82" cy="128.89" r=".4"/><circle cx="177.88" cy="128.89" r=".4"/><circle cx="175.93" cy="128.89" r=".4"/><circle cx="173.99" cy="128.89" r=".4"/><circle cx="172.05" cy="128.89" r=".4"/><circle cx="170.11" cy="128.89" r=".4"/><circle cx="168.17" cy="128.89" r=".4"/><circle cx="166.23" cy="128.89" r=".4"/><circle cx="164.29" cy="128.89" r=".4"/><circle cx="162.34" cy="128.89" r=".4"/><circle cx="160.4" cy="128.89" r=".4"/><circle cx="178.85" cy="129.95" r=".4"/><circle cx="176.91" cy="129.95" r=".4"/><circle cx="174.96" cy="129.95" r=".4"/><circle cx="173.02" cy="129.95" r=".4"/><circle cx="171.08" cy="129.95" r=".4"/><circle cx="169.14" cy="129.95" r=".4"/><circle cx="167.2" cy="129.95" r=".4"/><circle cx="165.26" cy="129.95" r=".4"/><circle cx="163.31" cy="129.95" r=".4"/><circle cx="161.37" cy="129.95" r=".4"/><circle cx="179.82" cy="131.01" r=".4"/><circle cx="177.88" cy="131.01" r=".4"/><circle cx="175.93" cy="131.01" r=".4"/><circle cx="173.99" cy="131.01" r=".4"/><circle cx="172.05" cy="131.01" r=".4"/><circle cx="170.11" cy="131.01" r=".4"/><circle cx="168.17" cy="131.01" r=".4"/><circle cx="166.23" cy="131.01" r=".4"/><circle cx="164.29" cy="131.01" r=".4"/><circle cx="162.34" cy="131.01" r=".4"/><circle cx="160.4" cy="131.01" r=".4"/><circle cx="178.85" cy="132.07" r=".4"/><circle cx="176.91" cy="132.07" r=".4"/><circle cx="174.96" cy="132.07" r=".4"/><circle cx="173.02" cy="132.07" r=".4"/><circle cx="171.08" cy="132.07" r=".4"/><circle cx="169.14" cy="132.07" r=".4"/><circle cx="167.2" cy="132.07" r=".4"/><circle cx="165.26" cy="132.07" r=".4"/><circle cx="163.31" cy="132.07" r=".4"/><circle cx="161.37" cy="132.07" r=".4"/><circle cx="179.82" cy="133.13" r=".4"/><circle cx="177.88" cy="133.13" r=".4"/><circle cx="175.93" cy="133.13" r=".4"/><circle cx="173.99" cy="133.13" r=".4"/><circle cx="172.05" cy="133.13" r=".4"/><circle cx="170.11" cy="133.13" r=".4"/><circle cx="168.17" cy="133.13" r=".4"/><circle cx="166.23" cy="133.13" r=".4"/><circle cx="164.29" cy="133.13" r=".4"/><circle cx="162.34" cy="133.13" r=".4"/><circle cx="160.4" cy="133.13" r=".4"/><circle cx="178.85" cy="134.19" r=".4"/><circle cx="176.91" cy="134.19" r=".4"/><circle cx="174.96" cy="134.19" r=".4"/><circle cx="173.02" cy="134.19" r=".4"/><circle cx="171.08" cy="134.19" r=".4"/><circle cx="169.14" cy="134.19" r=".4"/><circle cx="167.2" cy="134.19" r=".4"/><circle cx="165.26" cy="134.19" r=".4"/><circle cx="163.31" cy="134.19" r=".4"/><circle cx="161.37" cy="134.19" r=".4"/><circle cx="179.82" cy="135.25" r=".4"/><circle cx="177.88" cy="135.25" r=".4"/><circle cx="175.93" cy="135.25" r=".4"/><circle cx="173.99" cy="135.25" r=".4"/><circle cx="172.05" cy="135.25" r=".4"/><circle cx="170.11" cy="135.25" r=".4"/><circle cx="168.17" cy="135.25" r=".4"/><circle cx="166.23" cy="135.25" r=".4"/><circle cx="164.29" cy="135.25" r=".4"/><circle cx="162.34" cy="135.25" r=".4"/><circle cx="160.4" cy="135.25" r=".4"/><circle cx="178.85" cy="136.31" r=".4"/><circle cx="176.91" cy="136.31" r=".4"/><circle cx="174.96" cy="136.31" r=".4"/><circle cx="173.02" cy="136.31" r=".4"/><circle cx="171.08" cy="136.31" r=".4"/><circle cx="169.14" cy="136.31" r=".4"/><circle cx="167.2" cy="136.31" r=".4"/><circle cx="165.26" cy="136.31" r=".4"/><circle cx="163.31" cy="136.31" r=".4"/><circle cx="161.37" cy="136.31" r=".4"/><circle cx="179.82" cy="137.37" r=".4"/><circle cx="177.88" cy="137.37" r=".4"/><circle cx="175.93" cy="137.37" r=".4"/><circle cx="173.99" cy="137.37" r=".4"/><circle cx="172.05" cy="137.37" r=".4"/><circle cx="170.11" cy="137.37" r=".4"/><circle cx="168.17" cy="137.37" r=".4"/><circle cx="166.23" cy="137.37" r=".4"/><circle cx="164.29" cy="137.37" r=".4"/><circle cx="162.34" cy="137.37" r=".4"/><circle cx="160.4" cy="137.37" r=".4"/><circle cx="178.85" cy="138.43" r=".4"/><circle cx="176.91" cy="138.43" r=".4"/><circle cx="174.96" cy="138.43" r=".4"/><circle cx="173.02" cy="138.43" r=".4"/><circle cx="171.08" cy="138.43" r=".4"/><circle cx="169.14" cy="138.43" r=".4"/><circle cx="167.2" cy="138.43" r=".4"/><circle cx="165.26" cy="138.43" r=".4"/><circle cx="163.31" cy="138.43" r=".4"/><circle cx="161.37" cy="138.43" r=".4"/><circle cx="179.82" cy="139.49" r=".4"/><circle cx="177.88" cy="139.49" r=".4"/><circle cx="175.93" cy="139.49" r=".4"/><circle cx="173.99" cy="139.49" r=".4"/><circle cx="172.05" cy="139.49" r=".4"/><circle cx="170.11" cy="139.49" r=".4"/><circle cx="168.17" cy="139.49" r=".4"/><circle cx="166.23" cy="139.49" r=".4"/><circle cx="164.29" cy="139.49" r=".4"/><circle cx="162.34" cy="139.49" r=".4"/><circle cx="160.4" cy="139.49" r=".4"/><circle cx="178.85" cy="140.55" r=".4"/><circle cx="176.91" cy="140.55" r=".4"/><circle cx="174.96" cy="140.55" r=".4"/><circle cx="173.02" cy="140.55" r=".4"/><circle cx="171.08" cy="140.55" r=".4"/><circle cx="169.14" cy="140.55" r=".4"/><circle cx="167.2" cy="140.55" r=".4"/><circle cx="165.26" cy="140.55" r=".4"/><circle cx="163.31" cy="140.55" r=".4"/><circle cx="161.37" cy="140.55" r=".4"/><circle cx="179.82" cy="141.61" r=".4"/><circle cx="177.88" cy="141.61" r=".4"/><circle cx="175.93" cy="141.61" r=".4"/><circle cx="173.99" cy="141.61" r=".4"/><circle cx="172.05" cy="141.61" r=".4"/><circle cx="170.11" cy="141.61" r=".4"/><circle cx="168.17" cy="141.61" r=".4"/><circle cx="166.23" cy="141.61" r=".4"/><circle cx="164.29" cy="141.61" r=".4"/><circle cx="162.34" cy="141.61" r=".4"/><circle cx="160.4" cy="141.61" r=".4"/><circle cx="178.85" cy="142.67" r=".4"/><circle cx="176.91" cy="142.67" r=".4"/><circle cx="174.96" cy="142.67" r=".4"/><circle cx="173.02" cy="142.67" r=".4"/><circle cx="171.08" cy="142.67" r=".4"/><circle cx="169.14" cy="142.67" r=".4"/><circle cx="167.2" cy="142.67" r=".4"/><circle cx="165.26" cy="142.67" r=".4"/><circle cx="163.31" cy="142.67" r=".4"/><circle cx="161.37" cy="142.67" r=".4"/></g><circle cx="170.01" cy="134.92" fill="none" r="8.11" stroke="#b3b3b3" stroke-miterlimit="10" stroke-width="2.03"/><g clip-path="url(#c)" fill="#424143"><circle cx="258.02" cy="126.77" r=".4"/><circle cx="256.08" cy="126.77" r=".4"/><circle cx="254.14" cy="126.77" r=".4"/><circle cx="252.2" cy="126.77" r=".4"/><circle cx="250.26" cy="126.77" r=".4"/><circle cx="248.31" cy="126.77" r=".4"/><circle cx="246.37" cy="126.77" r=".4"/><circle cx="244.43" cy="126.77" r=".4"/><circle cx="242.49" cy="126.77" r=".4"/><circle cx="240.55" cy="126.77" r=".4"/><circle cx="238.61" cy="126.77" r=".4"/><circle cx="257.05" cy="127.83" r=".4"/><circle cx="255.11" cy="127.83" r=".4"/><circle cx="253.17" cy="127.83" r=".4"/><circle cx="251.23" cy="127.83" r=".4"/><circle cx="249.29" cy="127.83" r=".4"/><circle cx="247.34" cy="127.83" r=".4"/><circle cx="245.4" cy="127.83" r=".4"/><circle cx="243.46" cy="127.83" r=".4"/><circle cx="241.52" cy="127.83" r=".4"/><circle cx="239.58" cy="127.83" r=".4"/><circle cx="258.02" cy="128.89" r=".4"/><circle cx="256.08" cy="128.89" r=".4"/><circle cx="254.14" cy="128.89" r=".4"/><circle cx="252.2" cy="128.89" r=".4"/><circle cx="250.26" cy="128.89" r=".4"/><circle cx="248.31" cy="128.89" r=".4"/><circle cx="246.37" cy="128.89" r=".4"/><circle cx="244.43" cy="128.89" r=".4"/><circle cx="242.49" cy="128.89" r=".4"/><circle cx="240.55" cy="128.89" r=".4"/><circle cx="238.61" cy="128.89" r=".4"/><circle cx="257.05" cy="129.95" r=".4"/><circle cx="255.11" cy="129.95" r=".4"/><circle cx="253.17" cy="129.95" r=".4"/><circle cx="251.23" cy="129.95" r=".4"/><circle cx="249.29" cy="129.95" r=".4"/><circle cx="247.34" cy="129.95" r=".4"/><circle cx="245.4" cy="129.95" r=".4"/><circle cx="243.46" cy="129.95" r=".4"/><circle cx="241.52" cy="129.95" r=".4"/><circle cx="239.58" cy="129.95" r=".4"/><circle cx="258.02" cy="131.01" r=".4"/><circle cx="256.08" cy="131.01" r=".4"/><circle cx="254.14" cy="131.01" r=".4"/><circle cx="252.2" cy="131.01" r=".4"/><circle cx="250.26" cy="131.01" r=".4"/><circle cx="248.31" cy="131.01" r=".4"/><circle cx="246.37" cy="131.01" r=".4"/><circle cx="244.43" cy="131.01" r=".4"/><circle cx="242.49" cy="131.01" r=".4"/><circle cx="240.55" cy="131.01" r=".4"/><circle cx="238.61" cy="131.01" r=".4"/><circle cx="257.05" cy="132.07" r=".4"/><circle cx="255.11" cy="132.07" r=".4"/><circle cx="253.17" cy="132.07" r=".4"/><circle cx="251.23" cy="132.07" r=".4"/><circle cx="249.29" cy="132.07" r=".4"/><circle cx="247.34" cy="132.07" r=".4"/><circle cx="245.4" cy="132.07" r=".4"/><circle cx="243.46" cy="132.07" r=".4"/><circle cx="241.52" cy="132.07" r=".4"/><circle cx="239.58" cy="132.07" r=".4"/><circle cx="258.02" cy="133.13" r=".4"/><circle cx="256.08" cy="133.13" r=".4"/><circle cx="254.14" cy="133.13" r=".4"/><circle cx="252.2" cy="133.13" r=".4"/><circle cx="250.26" cy="133.13" r=".4"/><circle cx="248.31" cy="133.13" r=".4"/><circle cx="246.37" cy="133.13" r=".4"/><circle cx="244.43" cy="133.13" r=".4"/><circle cx="242.49" cy="133.13" r=".4"/><circle cx="240.55" cy="133.13" r=".4"/><circle cx="238.61" cy="133.13" r=".4"/><circle cx="257.05" cy="134.19" r=".4"/><circle cx="255.11" cy="134.19" r=".4"/><circle cx="253.17" cy="134.19" r=".4"/><circle cx="251.23" cy="134.19" r=".4"/><circle cx="249.29" cy="134.19" r=".4"/><circle cx="247.34" cy="134.19" r=".4"/><circle cx="245.4" cy="134.19" r=".4"/><circle cx="243.46" cy="134.19" r=".4"/><circle cx="241.52" cy="134.19" r=".4"/><circle cx="239.58" cy="134.19" r=".4"/><circle cx="258.02" cy="135.25" r=".4"/><circle cx="256.08" cy="135.25" r=".4"/><circle cx="254.14" cy="135.25" r=".4"/><circle cx="252.2" cy="135.25" r=".4"/><circle cx="250.26" cy="135.25" r=".4"/><circle cx="248.31" cy="135.25" r=".4"/><circle cx="246.37" cy="135.25" r=".4"/><circle cx="244.43" cy="135.25" r=".4"/><circle cx="242.49" cy="135.25" r=".4"/><circle cx="240.55" cy="135.25" r=".4"/><circle cx="238.61" cy="135.25" r=".4"/><circle cx="257.05" cy="136.31" r=".4"/><circle cx="255.11" cy="136.31" r=".4"/><circle cx="253.17" cy="136.31" r=".4"/><circle cx="251.23" cy="136.31" r=".4"/><circle cx="249.29" cy="136.31" r=".4"/><circle cx="247.34" cy="136.31" r=".4"/><circle cx="245.4" cy="136.31" r=".4"/><circle cx="243.46" cy="136.31" r=".4"/><circle cx="241.52" cy="136.31" r=".4"/><circle cx="239.58" cy="136.31" r=".4"/><circle cx="258.02" cy="137.37" r=".4"/><circle cx="256.08" cy="137.37" r=".4"/><circle cx="254.14" cy="137.37" r=".4"/><circle cx="252.2" cy="137.37" r=".4"/><circle cx="250.26" cy="137.37" r=".4"/><circle cx="248.31" cy="137.37" r=".4"/><circle cx="246.37" cy="137.37" r=".4"/><circle cx="244.43" cy="137.37" r=".4"/><circle cx="242.49" cy="137.37" r=".4"/><circle cx="240.55" cy="137.37" r=".4"/><circle cx="238.61" cy="137.37" r=".4"/><circle cx="257.05" cy="138.43" r=".4"/><circle cx="255.11" cy="138.43" r=".4"/><circle cx="253.17" cy="138.43" r=".4"/><circle cx="251.23" cy="138.43" r=".4"/><circle cx="249.29" cy="138.43" r=".4"/><circle cx="247.34" cy="138.43" r=".4"/><circle cx="245.4" cy="138.43" r=".4"/><circle cx="243.46" cy="138.43" r=".4"/><circle cx="241.52" cy="138.43" r=".4"/><circle cx="239.58" cy="138.43" r=".4"/><circle cx="258.02" cy="139.49" r=".4"/><circle cx="256.08" cy="139.49" r=".4"/><circle cx="254.14" cy="139.49" r=".4"/><circle cx="252.2" cy="139.49" r=".4"/><circle cx="250.26" cy="139.49" r=".4"/><circle cx="248.31" cy="139.49" r=".4"/><circle cx="246.37" cy="139.49" r=".4"/><circle cx="244.43" cy="139.49" r=".4"/><circle cx="242.49" cy="139.49" r=".4"/><circle cx="240.55" cy="139.49" r=".4"/><circle cx="238.61" cy="139.49" r=".4"/><circle cx="257.05" cy="140.55" r=".4"/><circle cx="255.11" cy="140.55" r=".4"/><circle cx="253.17" cy="140.55" r=".4"/><circle cx="251.23" cy="140.55" r=".4"/><circle cx="249.29" cy="140.55" r=".4"/><circle cx="247.34" cy="140.55" r=".4"/><circle cx="245.4" cy="140.55" r=".4"/><circle cx="243.46" cy="140.55" r=".4"/><circle cx="241.52" cy="140.55" r=".4"/><circle cx="239.58" cy="140.55" r=".4"/><circle cx="258.02" cy="141.61" r=".4"/><circle cx="256.08" cy="141.61" r=".4"/><circle cx="254.14" cy="141.61" r=".4"/><circle cx="252.2" cy="141.61" r=".4"/><circle cx="250.26" cy="141.61" r=".4"/><circle cx="248.31" cy="141.61" r=".4"/><circle cx="246.37" cy="141.61" r=".4"/><circle cx="244.43" cy="141.61" r=".4"/><circle cx="242.49" cy="141.61" r=".4"/><circle cx="240.55" cy="141.61" r=".4"/><circle cx="238.61" cy="141.61" r=".4"/><circle cx="257.05" cy="142.67" r=".4"/><circle cx="255.11" cy="142.67" r=".4"/><circle cx="253.17" cy="142.67" r=".4"/><circle cx="251.23" cy="142.67" r=".4"/><circle cx="249.29" cy="142.67" r=".4"/><circle cx="247.34" cy="142.67" r=".4"/><circle cx="245.4" cy="142.67" r=".4"/><circle cx="243.46" cy="142.67" r=".4"/><circle cx="241.52" cy="142.67" r=".4"/><circle cx="239.58" cy="142.67" r=".4"/></g><circle cx="248.22" cy="134.92" fill="none" r="8.11" stroke="#b3b3b3" stroke-miterlimit="10" stroke-width="2.03"/><path d="m318.82 296.9h3.8v84.39h-3.8z" fill="#9f9ea0" transform="matrix(-1 0 0 -1 531.05 460.93)"/><path d="m152.7 381.3h187.56v7.69h-187.56z" fill="#838383" transform="matrix(-1 0 0 -1 382.57 553.02)"/><path d="m152.65 381.3h187.56v.4h-187.56z" fill="#9f9f9f" transform="matrix(-1 0 0 -1 382.48 545.72)"/><path d="m250.09 296.9h2.14v84.39h-2.14z" fill="#010101" opacity=".19" transform="matrix(-1 0 0 -1 391.92 460.93)"/><path d="m225.95 381.3h187.56v7.69h-187.56z" fill="#e6e7e7" transform="matrix(-1 0 0 -1 529.06 553.02)"/><path d="m225.95 381.3h187.56v.4h-187.56z" fill="#f7f8f8" transform="matrix(-1 0 0 -1 529.06 545.72)"/><path d="m169.78 388.99h73.49v5.67h-73.49z" fill="#010101" opacity=".43" transform="matrix(-1 0 0 -1 302.66 566.38)"/><path d="m243.27 388.99h153.35v5.67h-153.35z" fill="#010101" opacity=".43" transform="matrix(-1 0 0 -1 529.5 566.38)"/><g transform="translate(-110.39 -217.27)"><path d="m112.35 480.47h342.65a2 2 0 0 0 2-2 2 2 0 0 0 -2-2h-342.65a2 2 0 0 0 -2 2 2 2 0 0 0 2 2z" fill="#231f20"/><path d="m465.27 296.48c.18 0 .17.2.16.41.31 0 .72.38 1.14.41s.31-.25.57-.24.9.27 1.3.32a12.36 12.36 0 0 1 2.59.57c.27 0-.21-.35.08-.41.54.08.78.46 1.38.49.32.13.17-.21.32-.24s.65.53.73 0c.95.35 1.43 1.16 2.27 1.62.19-.15 0-.63-.08-.73.33-.17.53.5.73.73.41-.11.41.18.57.32.14-.06 0-.15 0-.24.21-.32.44.68.73.81.16-.08.13-.36.41-.32.8.51.66 1.78.65 2.76a2.56 2.56 0 0 1 1.38 1.05c0 .26 0 .41-.16.49.43.54.58 1.36 1.14 1.78-.16 2.19 1.09 4.24.73 6.24-.18 1-1 1.7-1.05 2.84-.25.85-1.2 1.14-1.7 1.78-.25.32-.26.83-.49 1.14s-.47.21-.65.41c-.57.62-.71 1.64-1.38 2.19.14.57-.48 1.14-.32 2.19a12.46 12.46 0 0 0 2.27.41c.17.72.69 2.11-.24 2.76-.13 1.64.84 2.08 1.78 3a20.46 20.46 0 0 1 2.35 3.73 7.16 7.16 0 0 1 1 1.87c2.41 3.29 3.1 7.81 3.89 12.41a92.63 92.63 0 0 1 1.46 20.43c-.17 3.29.09 6.41-.08 9.73a56.37 56.37 0 0 0 .32 6.41c-1.45.71-3.06 1.27-4.54 1.95a32 32 0 0 0 1.46 4.38 17.36 17.36 0 0 1 .01 9.07c-.32 1.39-1.13 2.32-1.78 3.65a31.12 31.12 0 0 1 -1.38 2.92 17.32 17.32 0 0 0 -1.62 2.68c-.15.47 0 1.29-.24 2a7.79 7.79 0 0 0 -.49 1.46c0 .27.14.47.16.73.18 2.14-.53 4.86-.65 7.22 0 .92 0 1.72-.08 2.92a16.3 16.3 0 0 0 -.24 2.92 11.77 11.77 0 0 1 .57 2.68c-.08.95-1 1.66-.89 2.84.07.79.94 1.47 1 2.43s-.27 1.49.41 2.19c1.58 1.2 2.24 4 2.68 6.65.34 2.07.81 4 1.22 6a71.11 71.11 0 0 1 1.7 14.76c0 .71-.19 1.22-.24 1.95-.07 1.06 0 2.25 0 3.41 0 1.55-.06 2.83-.16 4.87a25.85 25.85 0 0 0 -.24 3.49c0 .42.35.78.41 1.22s-.1.77-.08 1.14c0 .91.31 1.91.24 2.59 0 .23-.27.52-.32.89-.11.86-.14 1.32-.65 1.78.14 1.45 0 2.53.08 3.81a10.62 10.62 0 0 1 .32 2c0 .29-.28.44-.41.81-.3.89-.34 1.6-1 2-2.06 1.38-6.25 1.09-8.92 1.46-4.61.64-8.46 1.66-13.22 1.3-2.56-.19-6.09-.47-7.87-1.62-.85-.55-1.57-1.36-1.05-2.51.63-1.4 3.67-2 5.35-2.51l2.92-1c1.6-.53 3.07-.64 3.65-1.95.25 0 .6.05.73-.08.4-.14.54-.54.81-.81 1 .17 1-1 1.78-.81a2.17 2.17 0 0 1 1.05-1c-.62-.5-1.95-.34-3.16-.41-2.47-.13-7-.81-8.35-2.35a1.87 1.87 0 0 1 -.08-2.19c1.57-1.08 4.85-1 7.38-1.14a3.88 3.88 0 0 0 2.19-.81c.1-.81.72-.86 1.46-1.14.29-.11.66-.41 1-.57a8.86 8.86 0 0 0 2.35-1.54c.05-1.44-.68-2.72-.57-4.14.06-.77.67-1.4.73-2.11a13 13 0 0 0 -.32-2.43 18.33 18.33 0 0 0 -.32-2c-.08-.24-.31-.42-.41-.65-.75-1.79-1-3.9-1.62-5.76a44.63 44.63 0 0 0 -2-5.27c-.55-1.15-1.77-2-2.27-3-.27-.57-.28-1.32-.57-1.95-.2-.44-.57-.81-.73-1.22-.24-.63-.34-1.39-.65-2.11a10.93 10.93 0 0 1 -.65-3.08c-.05-.32-.24-.55-.32-.89a33 33 0 0 1 -.57-5.68 20.76 20.76 0 0 0 -1.14-4.78c-.73-2.33-1.16-5.3-1.78-8-.16-.72-.51-1.39-.65-2.11a30.33 30.33 0 0 0 -1.05-4.78c-1.17.45-3 .16-3.81 1.14-1.78-.2-3.79-.63-4.05-2.59a2.55 2.55 0 0 1 -1.62-2.84 10.3 10.3 0 0 1 .41-3.08c.19-.5.57-1.08.81-1.62s.44-1.28.65-1.7c.46-.95 1.39-1.73 1.86-2.68.11-.22.07-.51.16-.73.66-1.56 1.67-2.86 2.27-4.14v-.65a9.86 9.86 0 0 0 1.14-1.54c.29-.46.89-1.14.89-1.7 0-.74-1-1.61-1-2.51 0-.39.36-.54.41-1.05-2.09-.36-2.13-2.15-2.43-4.46-.26-2-.24-4.82-.41-7.22 0-.45-.22-.86-.24-1.3 0-1 .18-2.28.24-3.41.17-3 .69-5.86 1.05-8.68.13-1 .48-2 .57-3 .17-2-.5-3.81-.16-5.84a18.22 18.22 0 0 1 2.51-6.49 5.09 5.09 0 0 0 1.14-2.68c.11-1.22.42-4.27 1.05-5.11.5-.66 1.64-1 2.35-1.54s1.5-1.15 2.19-1.7c.05-.84-1-1.38-1-2s.66-.77.89-1.38c.06-.47-.27-.54-.41-.81.4-.77 1.1-1.23 1.46-2-.08-.85-1.06-1.25-1.38-2s0-1.66-.32-2.43c-1.9-.36-4.36.16-5-1.62-.35-.94 0-1.79-.08-3-.74-.41-1.47-1.26-.57-2-.21-.36-.44-.69-.65-1.05a8.63 8.63 0 0 0 .32-2c-.49-.46-1.46-.49-1.54-1.13s.72-1 1.22-1.62a10.93 10.93 0 0 1 1.78-2.35c-1.17-3.32 2.33-4.5 2.76-7.46 0-.29-.38-.21-.49-.41a8.51 8.51 0 0 1 0-3.73c.52-.15.7-.85 1.3-1.14a.53.53 0 0 0 -.08.41c.64-.33.86-1.09 1.78-1.13.33-.06.27.27.41.41.69-.45 1.17-.54 1.44-1.33zm-8.68 115.31c.87.06.27-1 .32-1.54h-.32a4.13 4.13 0 0 0 0 1.54zm-2.43-.81c.36.07.29-.53 0-.49-.01.3-.09.23 0 .51z" fill="#003" fill-rule="evenodd"/><path d="m570.9 329.21c.42.06.66.3 1.22.24a3.56 3.56 0 0 1 1.13 1.62c.77 1.11 2.06 1.92 2.78 3 1.07 1.62 1.66 4.09 2.26 6.41.7 2.7 1.46 5.55 1.13 8.19-.17 1.37-.63 2.52-.78 3.89-.78 7.12-2.91 14.53-4.69 21.24-.31 1.19-.63 2.28-1 3.41-.62 2.14 0 4.82-1.74 6.08a3.43 3.43 0 0 1 -1 .16c.24 1.9 2.12 3.37 2.52 5.35a10.8 10.8 0 0 1 -.17 2.19 23 23 0 0 0 .17 3.16c0 .36.24.72.26 1.05a9.37 9.37 0 0 1 -.35 1.7c-.55 3.2-.07 6.67-3.47 7.3.07 1-.82 1.76-1.13 2.76a12.18 12.18 0 0 0 -.17 1.78c-.17 1.08-.62 2.06.35 2.84-.2.52-.75.7-1.22 1a82.34 82.34 0 0 1 -.78 12.81 29.61 29.61 0 0 0 -.61 4.14c0 .38.19.77.17 1.14 0 .8-.53 1.61-.52 2.43 0 .28.2.62.17.89s-.36.65-.35 1c0 .56.42.62.61 1.05-1.08 1.27 1 1.92.35 3.24 0 .48.52.48.61.89-.28 1.1.39 1.61.69 2.51-.65 1 .33 1.92.52 2.59.11.38-.06.73 0 1.14a12.73 12.73 0 0 0 .43 1.22 33.44 33.44 0 0 1 .52 10 45.29 45.29 0 0 1 -1.48 9.65 9.39 9.39 0 0 0 -.61 1.62c0 1 .92 1.45 1.22 2.43a6.47 6.47 0 0 1 .09 2.51c-.1.48-.72.72-.87 1.13s0 1.45-.26 2.27a7.29 7.29 0 0 0 -.61 2.51c0 .43.38.87.43 1.3.11.9 0 2 .09 3 .06.69.22 1.38.26 2s-.12 1.33-.09 1.95c0 1 .5 2.08.26 2.84-.62 1.92-6.47 3.45-8.07 1.38a27.19 27.19 0 0 0 -4.43 1.62c-.35.19-.61.51-1 .65-2.45 1-6.86 1.25-10.07 1a13.75 13.75 0 0 1 -4.51-1.22c-1-.45-3.12-1.57-3.21-2.43s.67-1.24 1-1.78.27-1 .52-1.38c1.1-1.46 3.75-1.49 5.73-2.27 1.24-.49 2.28-1.08 3.3-1.54-.08-1.21 1.14-1.2 1.48-2a6.62 6.62 0 0 0 -2.26 0c-.42.12-.6.56-1 .65a8.91 8.91 0 0 1 -1.56.08 14.19 14.19 0 0 1 -5.47-1.22c-.32-.06-.37.14-.69.08-.93-.73-2.55-.72-3.38-1.7a8.7 8.7 0 0 1 -.87-.16c-.59-.9-2.23-1.12-2.26-2.35 0-.67.58-.92 1-1.54.24-.39.18-.69.35-.89 1.07-1.3 3.24-1.18 5.21-1a15.57 15.57 0 0 0 3.3.32 9.92 9.92 0 0 0 2.69-1.46c.25-.22.37-.59.61-.81 1.05-1 2.54-1.39 3.47-2.43a5.42 5.42 0 0 1 1-1.7c-.25-1.22 1.23-2.48 1.39-3.73 0-.27-.17-.53-.17-.89s.26-.79.26-1.14c0-.67-.36-1.22-.26-1.78.15-.8.89-1.11 1.56-1.62a14.09 14.09 0 0 1 .17-3.73 54 54 0 0 0 -.43-7.46 53.07 53.07 0 0 1 .17-7.54c-.57-.66-1.52-1-1.48-2.19a1.89 1.89 0 0 1 -1.65-1.95c0-.42.22-.85.09-1.22s-.82-.44-1.13-.73c-1-1-.88-3.6-1.22-5.51-.23-1.31-.83-2.44-.78-3.57 0-.45.25-.93.26-1.22.06-1.57-.76-3.28-1-4.78-.37-2-.41-3.81-.78-5.51-.38-.32-.62.33-1 .08-1.21-1.47-1.33-4.32-.52-6.24-.57-.42-.94-1.1-1.65-1.22-.22 0-.53.16-.78.08-.62-.19-1.43-1.31-1.82-1.86a8.64 8.64 0 0 1 -1.3-2.35 13.53 13.53 0 0 1 .17-4.22 12.29 12.29 0 0 1 1.56-2.51c.94-1.47 2.27-2.55 2.6-4.54-.62-.4-1.53-.52-1.91-1.14a2.52 2.52 0 0 1 .69-1.38c.54-4.54 2-8.5 2.34-13.46.25-3.23.7-6.52 1-9.81.08-1 .05-2 .17-3 .36-2.94 1.18-6 1.39-8.84.16-2.21-.16-3.71.35-5.27a16.76 16.76 0 0 1 2.17-4 23.21 23.21 0 0 1 2.78-3.41c1-1 2.2-1.85 3.21-3a34.18 34.18 0 0 1 2.34-2.92 16.84 16.84 0 0 1 2.86-1.87 7.49 7.49 0 0 0 .43-3.57 8.61 8.61 0 0 0 -1-2.43c-.17-.43-.08-1.06-.26-1.46-.65-1.41-2.71-.37-4.17-.57-.57-.08-1-.5-1.56-.57a1.85 1.85 0 0 1 0-2.92c.08-.79-.81-1.23-.87-1.87 0-.31.27-.61.26-.89 0-.68-1-1.26-.43-2.35-.41-.48-1.94-.46-2.08-1.3-.1-.59.77-1.45 1.22-2a5.63 5.63 0 0 0 1.48-2.59c0-.39-.1-.72-.09-1.13a12.6 12.6 0 0 1 2.3-6.64c0-.49-.41-.52-.43-1s.58-1.11.69-1.62c.67-.81 2-1.2 3-1.7.37-.21.64-.73 1-.81s.61.23 1 .24a4.86 4.86 0 0 0 2.6-.57c1.11.5 2.13-.26 3.21-.32.72.45 1.28 1.11 2.17.65.7.34 1.43.44 2 .73.39 0 .23.54.52.65a4.9 4.9 0 0 1 2.69 1.46c.32.25.69.3.87.49a3.16 3.16 0 0 1 .61 1.78c.08.25.54.14.69.32a11.24 11.24 0 0 1 .87 10.22 15.75 15.75 0 0 1 -2 2.84 12.8 12.8 0 0 0 -1.65 3.08c-.13.36-.06.78-.17 1.14-.2.6-.73 1.17-.78 1.95s.09 1.63.09 2.51c-.04 1.72.02 3.13.92 4.17z" fill="#003" fill-rule="evenodd"/><path d="m416.61 303.24a1 1 0 0 0 1.38-.16c.23.23.24.68.65.73a4.48 4.48 0 0 1 .41-2c.17.67.43 1.25 1.14 1.38.44-.44-.55-.73-.24-1.3.4 0 .65.5.41-.08.89.61 1.76 1.53 2.68.49.32.12-.17.52.24.73s.4-.35.73-.41c1 1.12 3.16.86 4.78.41.66.22.68.83 1.3 1.3.24.18.71.21 1.05.41s.43.43.65.57c.66.39 1.46.47 1.3 1.7a2.14 2.14 0 0 0 1.3.32 6.47 6.47 0 0 1 2.59 4 15.77 15.77 0 0 1 0 1.7 23.72 23.72 0 0 1 0 4.78c-.07.46-.37.88-.49 1.38a14.79 14.79 0 0 1 -.49 2.19c-.68 1.57-1.76 2.87-2.19 4.3-.06.42-.25-.16-.57 0a5.07 5.07 0 0 0 .08 3.81 8.77 8.77 0 0 0 1.46 2.19 22.31 22.31 0 0 0 1.95 1.13 12.62 12.62 0 0 1 1.54 1.87 41.58 41.58 0 0 1 3.89 6.16 23.91 23.91 0 0 1 2.27 10.16c.08 2.6-.59 4.73-.73 7.05a24.72 24.72 0 0 1 -1.05 4.95 56.22 56.22 0 0 0 -.65 5.6 26.7 26.7 0 0 1 -.65 2.92 9 9 0 0 1 -1.14 2.35c-.55 1-.5 2.14-1.62 2.68-.11.51.39.42.49.73-.16.36-.4.49-.49.81a2.9 2.9 0 0 0 0 1c.25.64 1.37.82.81 2.19.89.6.94 2 2 2.43.34 1.23.21 2.47 1 3.32-.5 1.74 1 2.94.65 4.78-.09.44.44.26.41.65-.8 2.2-.57 5.43-1.95 7.05a6.61 6.61 0 0 1 -1.62 3.73c-.07.45.2.55.16 1a10.64 10.64 0 0 1 -1.05 1.7 8.42 8.42 0 0 0 .08 3.16c.19 1.27-.37 2.24-.41 3.57 0 1 .24 2.34.24 3.73 0 2.66-.13 5.4-.24 8.11 0 1-.57 1.78-.32 3a23.73 23.73 0 0 0 1.54 4.46 8.41 8.41 0 0 1 .57 1c.12.4 0 .91.16 1.38.44 1.37 1.48 2.66 1.62 4.05 0 .3-.1.61-.08.89 0 .79.33 1.55.41 2.35.34 3.43.27 6.71.57 10.62.23 3.06 0 6.24.16 9.32.05 1.05 0 2.12.08 3.08a28.33 28.33 0 0 1 .32 6.89c-.13 1-1.14 1.79-1.3 3-.14 1 .34 2 .32 2.92a23.25 23.25 0 0 0 -.32 2.59c0 .73.5 1.9.24 2.59s-1.25.89-2.19 1.14a9.79 9.79 0 0 1 -.24 2.84c-.14.51-.47.85-.49 1.3a4.66 4.66 0 0 0 .24 1.05c.67 4.09-3.5 3.61-6.89 4.46-.38-.29-.19-.91-.32-1.3-3.73.92-6.33 3.24-11.11 3.65a35.52 35.52 0 0 1 -9.57-.89c-1.19-.23-3.53-.42-3.65-1.62a5.23 5.23 0 0 1 .73-1.62c1.11-1.48 3.49-1.2 5.68-1.54a11.52 11.52 0 0 0 2.43-.89 16.79 16.79 0 0 0 3.49-1.62c.34-.25.74-.78 1.22-1.14a5.18 5.18 0 0 0 1.86-1.95c.55-.95 1-1.53 1.7-2.59a13.82 13.82 0 0 1 -6.81-2.59c-1-.73-2.19-1.56-1-2.76a6.66 6.66 0 0 1 3.16-1.22c1.66 0 3.83.81 5.6.57 1.08-.47 1.08-1.4 1.38-2.92a11.47 11.47 0 0 0 .41-2.19c0-1-.51-2.07-.65-3.24-.41-3.41-.33-7.6-.81-11.19-.13-1-.28-2.07-.41-3-.15-1.11-.52-2.05-.57-3a9.24 9.24 0 0 0 .08-1.05c-.14-.72-1.32-1.33-1.62-2.19-.12-.34-.06-.69-.16-1-.32-.88-1.11-1.46-1.54-2.35a11.61 11.61 0 0 1 -1-2.84c-.11-.65 0-1.35 0-2-.11-1.62-1-3.42-1.38-5.19-.41-1.92-.54-4-.89-5.84-.72-3.79-1.86-7.43-2.27-11.11a19.62 19.62 0 0 1 -3.65.81 6.22 6.22 0 0 1 -1.87-.41 3.56 3.56 0 0 1 -1.38-.49c-1.14-1-1.29-3.43-1.87-4.87-.17-.42-.73-1-.73-1.46s.58-1 .89-1.54c.17-.3.21-.76.41-1.14.63-1.22 1.29-1.59 1.54-3a3.73 3.73 0 0 1 1.86-4.7c.32-.52.19-1 .32-1.46.5-1.78 2.39-3.35 1.22-5.43-.16-.29-.51-.39-.65-.73-.27-.64-.32-2.06-.65-2.84-.18-.43-.48-.7-.49-1.05 0-.6.61-.86.57-1.38s-.58-.54-.73-.89c.18-3.12-.85-6.09-.16-9 .15-.63.56-1.26.16-2.11a1.77 1.77 0 0 0 .32-2.11c.3-1.32-.32-2.67-.32-4a36 36 0 0 1 .57-6 16.23 16.23 0 0 0 .57-2 17.6 17.6 0 0 0 -.24-2.35c-.11-1.1-.79-2-.81-3.08-.07-3.76 3.08-6.72 4.78-9.08.46-.64.85-1.45 1.38-2.19.94-1.32 2-2.57 3-4a11.44 11.44 0 0 0 1.46-2 5.61 5.61 0 0 0 -.24-3.41c-.15-.41-.61-.83-.89-1.38a10.13 10.13 0 0 0 -.73-1.54c-.25-.3-.73-.44-.89-.81-.32-.74 0-1.71-.57-2.43-1.15-1.41-4.46-.39-5.11-2.27a2.74 2.74 0 0 1 0-1.22c.14-.75.84-1.45-.24-1.78a1.17 1.17 0 0 0 -.41-1.13 5.33 5.33 0 0 0 .16-2.11c-.72-.28-1.68-.32-1.95-1.05a5.93 5.93 0 0 1 1.62-2.19c.5-.53 1.63-1.33 1.7-2 0-.43-.45-.8-.49-1.38s.93-2.19 1.22-2.84 1.42-2 1.38-2.68-1-1.21-1.22-1.7c-.25.11.46.67.16.57a2.28 2.28 0 0 1 .56-3.73zm-2 108.9c-.08.23 0 .55-.08.81-.33 1.08-.63 1.41.24 2a4.16 4.16 0 0 1 1.95-.57c-.37-1.45-.24-2.92-1-4a8.15 8.15 0 0 0 -1.13 1.76zm1.78 3.57c.14.1.21.27.49.24 0-.3 0-.74-.24-.81.01.3-.35.21-.27.57z" fill="#003" fill-rule="evenodd"/><path d="m401.74 379.09c-.38 0-.11-1-.73-1.05-.23.14.09.39.16.49-1-.19-1.55-1.54-2.27-2.27-.1 0-.07.15-.08.24-.28-.26-.17-.91-.65-1 0-.31.09-.73-.16-.81-.34.09 0 .45-.41.16a12.6 12.6 0 0 0 -.16 1.54c-.32-.76 0-1.83-.24-2.84.06 1.14-.85 1.81-.49 2.76-1 .3-1.56 2.08-1.14 3-.07.35-.58.49-.65.89s.26.54.32 1a13.9 13.9 0 0 1 -.16 1.54c0 .35.26.57.24.81s-.74 1.52-.08 2c-.29 1.49.42 2.53.57 3.81.12 1 .74 1.51 1.05 2.35.09.25 0 .56.08.81.22.66.87 1 1.22 1.7.26.56.19 1.26.57 1.78.14.32.59.33.73.65-.42 1.32.42 1.78.89 2.43-.44.87-.08 2.54.16 3.73a6.18 6.18 0 0 1 .24.73 13.34 13.34 0 0 1 -.41 3.08 14 14 0 0 1 -.81 2.92c-.12.25-.4.38-.57.65-.42.67-.65 1.41-1.38 1.87-.09.72-.09 1.53-.81 1.62-.11 1.36-1.13 2.46-.73 3.81-.12.23-.35.35-.41.65a80.82 80.82 0 0 1 -1.78 13.46c-.16.65-.31 1.43-.49 2.19-.25 1.06-.69 2-.24 2.76 0 .29-.32.22-.32.49 0 .89.49 1.8.24 2.51.48.71 0 2.05.89 2.43.06 2.14 1.13 4.54 1.7 6.65a32.27 32.27 0 0 1 1.05 10.54c0 .87-.19 1.76-.16 2.68s.21 1.86.16 2.84c0 .76-.27 1.59-.24 2.43a5.22 5.22 0 0 1 .08.73c-.08.67-.73 1-.81 1.7-.06.55.37 1.14 0 1.62.5.34 1.17.5 1.46 1.05 0 1.11-.31 2.26-.32 3.24a3.8 3.8 0 0 1 .08.65c-.08.33-.45.52-.57.81-.2.49 0 .93-.32 1.3.79 2.07 2 4.44 1.54 7.05a17.86 17.86 0 0 1 -.89 2.59c-.66 1.79-1.11 3.57-3.32 3.41-.44.6-.3 1.21-.65 1.7-1 1.42-3.84.74-5.68.81-.69-.7-.1-2.24-.41-3.24-2.5.62-3.19 3.51-6.73 3.41a19.64 19.64 0 0 1 -4.38-.65c-1.19-.33-3.15-1-3.24-2a3.89 3.89 0 0 1 1.38-2.35c.8-.6 2.05-.58 2.84-.81.66-1.53 1.94-2.84 4-2.51.89-.49.89-2.35 1.38-3.41.26-.56 1.06-1.31.16-2a25.66 25.66 0 0 0 -.24-6.89c.35-.68 1.22-.83 1.78-1.3-.56-.84.13-1.6.16-2.51a22 22 0 0 0 -.73-3.65 91.26 91.26 0 0 1 -1.54-11.76c0-1 .12-1.77-.41-2.35.93-1.1-.51-1.89-.49-3.08a4.48 4.48 0 0 1 -1.3-2.84c-.2-.18-.51-.24-.73-.41-1.19-1.09 0-3.68-.73-5.11-.18-.34-.59-.56-.73-1-.3-.92-.07-1.91-.32-2.76-.21-.7-.58-1.37-.81-2-.7-2-1.57-4.23-2.11-6.41-1-4.13-1.08-8.08-1.46-13.22-.11-1.44.42-3.26.08-4.54a7.56 7.56 0 0 1 -3.81-1.78 14.37 14.37 0 0 1 -1.05-2 7.09 7.09 0 0 0 -1.3-1.7c-.2-.17-.54-.28-.73-.49-1-1.05-.48-2.73-.32-4.22.06-.6-.09-1.37 0-1.95s.49-1.27.65-1.95c.55-2.27.82-4.63 1.54-6.81a13.31 13.31 0 0 0 .89-2.76c2.4-3.59 2.89-8.77 3.65-13.22-2.78-2.92-2-7.41.32-10.38a15.11 15.11 0 0 0 1.38-1.95c0-.62 0-.76 0-1.38a4.26 4.26 0 0 1 .65-.65c.77-4.83 4.24-6.95 8.6-8.19a5.37 5.37 0 0 0 -.89-5.19c-.23-.25-.58-.4-.81-.65s-.32-.66-.81-.81c-1.19-.37-3.86.27-4.22-1.3-.07-.33.16-.69.16-1.14s-.34-1.07-.32-1.38.25-.47.24-.73-.2-.45-.24-.73c-.07-.48.27-1-.08-1.54-.51-.35-1.28-.2-1.38-.81s1.08-1.3 1.62-2.27c.09-.17 0-.41.08-.65s.38-.5.41-.73a3.26 3.26 0 0 0 -.41-1.54 39 39 0 0 0 .73-4.05c0-.24 0-.37.24-.49 0-.31-.38-.17-.24-.57s.12 0 .24 0c-.54-.74.23-1.46.65-1.95a19.75 19.75 0 0 1 5.51-1.78 22.48 22.48 0 0 1 6-.41c1.74.13 3.7 1.57 4.78 2.68a17.19 17.19 0 0 1 2.27 3.41 16.23 16.23 0 0 1 1.78 3.89c.08.56-.31 1.22.32 1.62 0 .2-.18.2-.24.32a5.22 5.22 0 0 0 .57 1c-.06.25-.22.11-.41.08 0 .26.25.18.16.49s.22 0 .16-.16a10.88 10.88 0 0 0 .73 2.68c.09.36-.14.4-.16.65.59.3-.05.94.57 1.3-.07-.06-.22-.13-.24 0 .57 2.44 1.16 5.17 1.87 7.22-.21.85.3 1.26.08 2.19.37 0 0-.28.08-.49.32.84-.25 1.85.16 3.24-.32 0 0-.67-.24-.81a15.26 15.26 0 0 0 .24 2.43c.16 1.82.92 3.89.57 5.43.32.71.07 2.24.49 3.32.07.38-.21-.11-.24.16 0 .46.23.64.24 1.05-1-.85-.56-2.61-1-3.81a20.47 20.47 0 0 0 .49 4.95c-.34.26-.22-.64-.41-.81a4.81 4.81 0 0 0 .73 3.16c-.42-.1-.42-.61-.73-.81v1.22c-.19-.08-.07-.47-.24-.57a1.47 1.47 0 0 0 .16 1.62 5.78 5.78 0 0 0 .41 4.95 6.2 6.2 0 0 1 1.78 2.51c-.39-.62-1.27-1.15-1.38-1.78 0-.17-.25.12-.32.16-.32-.22-.17-.91-.73-.89-.18 1.19.14 2.24 0 3.41a4.27 4.27 0 0 1 -.41-1.87c-.92 1 .87 2.26.44 3.71zm-.49-29.19c-.11-.83 0-1.4-.41-1.86.16.62-.06 1.58.41 1.86zm.16 15.41c.07-.18.33-.64 0-.73.12.31-.21.59 0 .73zm.08 1.54c.16-.3 0-1-.32-1.05.13.33.02.9.32 1.05zm-.65 2.11c.55-.21.33-1.43-.08-1.62a4.87 4.87 0 0 0 .09 1.66zm.57 1.22c.09-.41.15-1.14-.16-1.38a1.13 1.13 0 0 0 .16 1.37zm-1.78 5.35c.48 0 .52.83.89 1.14a1.26 1.26 0 0 0 .16-.65c-.49-.05-.09-1.06-.65-.65.11-.84 0-1.63-.65-1.87.11.83-.07 1.43.25 2.03zm1.14-1.3c-.07-.2.16-.7-.16-.65.05.22.03.51.16.65zm-2.11 1.38c0-.28 0-.62-.24-.65 0 .29-.07.65.24.65zm1.7 1.78c-.22-.43-.5-1.22-.89-1.22.31.4.34 1.06.89 1.22zm-29.27 22.95c.19.11.27.33.65.24 0-1.2 1.19-1.72 1.05-2.84-.87.26-1.48 1.44-1.7 2.6z" fill="#003" fill-rule="evenodd"/><path d="m515.41 311.35c.22.22-.12.08-.16.24 1.22-.16 1.37 1 2.35.65-.28.45.34.39.24.89 1.48.07 2.07 1.05 2.59 2.27a21.2 21.2 0 0 1 1.62 3.41 15.39 15.39 0 0 1 .65 4.22 13.4 13.4 0 0 1 -1.05 3.81c-.28.77-.25 1.64-.81 2.19 0 .77-.28 1.23-.32 1.95-.28.06-.1-.33-.41-.24-.16.26 0 .5-.16.81a21.17 21.17 0 0 0 -.89 2.35c-.17.45-.2 1-.32 1.3s-.43.4-.49.73c-.21 1.27.67 2.4 1.14 3.41.27.17.63-.15 1.05-.08a11.7 11.7 0 0 1 2 4.14c.37 1.07 1 2 1.38 3a31.23 31.23 0 0 1 2 12.65c-.08 1.15 0 2.31 0 3.49-.07 9.88-1.36 17.35-1.3 27.89 0 1.81-.32 3.59-.32 5.35 0 .84.31 1.73.32 2.59s-.27 1.83-.32 2.84c-.12 2.16-.15 3.76-1.22 5.11-.25.63.13 1.14-.08 1.7s-1.43.65-1.7 1.22c-.12.24 0 .68 0 1.05a5.46 5.46 0 0 1 -.57 1.78c-.43.81-1.25 1.41-1.3 2.19 0 .57.47 1.23.32 2 0 .26-.27.44-.32.73a7.61 7.61 0 0 0 0 2.27 1.39 1.39 0 0 0 .49.81c-.93 1-.21 2.38-.16 4.14.09 3-.12 6.26-.08 8.92 0 1.6-.37 3 .41 4.38-.3.52-.13 1-.16 1.78 0 .3-.2.6-.16.81.07.41.44.61.57 1s0 .61.08.89c.13.54.49 1 .57 1.46.11.65 0 1.3.16 1.95a18.52 18.52 0 0 1 .73 3.16c0 .55-.06 1.11 0 1.7.12 1.2.53 2.4.73 3.65.39 2.43.35 5.15.73 7.87a23.89 23.89 0 0 1 .57 4.62c-.1 1.19-1.24 2.43-1.22 3.65 0 .37.27.72.32 1.14.08.64-.22 1.48-.16 2.35.07 1.12.87 2.54-.16 3.49.09 1.66-.27 3-.24 4.78 0 2.05 1.22 4 1.22 5.76 0 .4-.24.76-.24 1.14 0 .74.56 1.51.41 2.27-.19.94-1.58 1.48-2.68 1.78-1.8.51-3.74 1.18-4.95.08-4.81 2.09-11.57 3.49-17.6 2-1.19-.29-4.1-1.36-4.14-2.68 0-.48.35-.57.65-1s.39-.77.65-1c1.81-1.4 5.68-1 7.14-2.76a4.63 4.63 0 0 0 1.95-.81c.25-.19.33-.52.57-.73s.45-.16.65-.32.29-.48.41-.57.47-.07.65-.16c.49-.26.91-1.13 1.54-1.38-3.63-.41-7.93-.15-10.7-2.19-1.23-.91-1.89-1.85-.81-3.16a3.29 3.29 0 0 1 1.86-1.46c1.36-.28 3 .2 4.54.32a9.71 9.71 0 0 0 1.62.16c1-.14 1.28-1.25 2.27-1.46.24-.05.12-.47.32-.57s.41 0 .73-.08c.52-.21.56-.53.89-1.05s.61-.85-.16-1.14a25.79 25.79 0 0 0 1.38-2.84c.14-.82-.64-1.46-.73-2.27s1.11-3.43 2-3.65a8.77 8.77 0 0 1 -.57-4.54 10.79 10.79 0 0 0 -.16-2.11c-.33-2.15-.52-4.43-1.46-6.24.39-1.56-1.42-2.27-1.62-3.73 0-.33.15-.64.08-1-.21-1.1-1.66-2-1.7-3.24 0-.42.29-.89.24-1.3s-.53-.77-.73-1.3c-.46-1.23.34-2.56.16-3.89-.1-.8-.75-1.5-1-2.27-1-3.37-1-7.29-1.86-10.87-2.44-.5-1.22-4.55-1-6.41-.25-1.74-.08-3.85-.81-5.27a8.83 8.83 0 0 0 .24-4.46c-.29-.91-.94-1.52-1-2.51s.72-2.2.65-3.32a6.24 6.24 0 0 0 -.57-1.7 12.63 12.63 0 0 0 -2.43-3.16c0-2.56 3.38-2.08 2.68-5-1.85-.67-.87-2.63-1.05-4.7-.1-1.11-.37-2.12-.41-3.24-.08-2.8.26-6.77.08-10a18.42 18.42 0 0 1 -.08-3.08c.33-3 1.13-6.19 1.62-9.16a51.06 51.06 0 0 1 2.59-8.35c.33-1 .39-2 .73-2.92a19.37 19.37 0 0 1 1.38-2.43c.49-.83.94-1.73 1.38-2.35s1.32-1.39 1.38-2.35c.11-1.83-1.71-3.41-2-4.95-.14-.7.1-1.19-.24-1.7s-2.11-1-3.24-1.3c-1.29-.34-2.95-.55-3.16-1.38-.26-1 .45-1.45.73-2.11-.12-1-.2-1.21.24-1.87-.33-.6-.14-1.22-.16-2.11a4.6 4.6 0 0 1 -1.78-1.3 7.65 7.65 0 0 1 1.62-1.7c.41-.41 1.39-1.27 1.38-1.95 0-.39-.37-.65-.49-1.05s0-.68 0-1.05a9.6 9.6 0 0 0 -.65-1.62c-.32-.93-.45-1.86-1.05-2.35a19.44 19.44 0 0 0 -.16-2.68c.62-.27 1.47-.18 2.19-.49.38-.16.56-.53.89-.73.12-.07.38 0 .57-.08s.26-.35.41-.41.35 0 .49 0 .44-.33.65-.41c.67-.24 1.49-.4 2.27-.65a26.28 26.28 0 0 1 5-.49c1.24.01 2.14.52 3.35.59z" fill="#003" fill-rule="evenodd"/><path d="m616 362.42c.22 0-.08-.45.24-.32a3.12 3.12 0 0 1 .08 1.46c-.13.45-.46.5-.57.89-.37 1.41.16 3.05 0 4.38a19.08 19.08 0 0 1 -.65 2 21.76 21.76 0 0 0 -.16 2.92c-.07.9-.28 1.78-.41 2.68-.28 2-.33 4-.49 5.84a5.6 5.6 0 0 1 -.73 1.86c-.07.87-.37 1.92-.57 3a20.36 20.36 0 0 0 -.41 3.73 5.21 5.21 0 0 0 0 .81c.17.56.93.89 1.14 1.62.32 1.13 0 2.41.16 3.89a11.12 11.12 0 0 0 .57 1.54c.12.4.05.87.16 1.22s.36.65.49 1a7.54 7.54 0 0 0 1.38 2.76c-.4 1.73.43 4.23.49 5.92a8.18 8.18 0 0 1 -1.3 5 2.87 2.87 0 0 0 .08.81c-.14.27-.36.53-.57.89a7.59 7.59 0 0 0 -.73 1.7c-.42 1.23-1.21 2.24-.65 3.32 0 .42-.52.35-.57.73a4.79 4.79 0 0 0 0 2.43c0 .37-.31.34-.24.73 0 1.64-.21 3.34-.41 5.11a43.87 43.87 0 0 0 -.57 5.6 13.5 13.5 0 0 0 .41 3.65 1.67 1.67 0 0 0 .49 2 1.74 1.74 0 0 0 .49 2.35 1.52 1.52 0 0 0 -.08.65 7 7 0 0 0 .81 1.54c.34 1.73 1.07 3.71 1.3 5.68.39 3.46.41 7.24.57 11.27.08 1.91 0 3.91.08 5.76.13 2.85 0 5.66.08 8.43.07 1.51-.25 3-.16 4.38.05.82.54 1.74.32 2.51-.27 1-1.83.94-2.84 1.3-.16.6-.38 1.14-1.22 1.05-.52 0-.07-1-.57-1-.48.2 0 .72 0 1a15.77 15.77 0 0 1 .16 1.95c-.18.85-2.22 1.53-3.41 1.78-2.58.55-4.83 0-7.87.32-2.23.25-4.42.87-7 .73-2.21-.12-4.51-.75-5.76-1.95-1.52-1.46 1.21-2.16 2.76-2.51a11.54 11.54 0 0 0 3.73-1.22c-.13-.83-1.27-.7-1.3-1.46 0-1 2.08-1.31 3.24-1.54.53-.74.77-1.77 1.62-2.19-.19-.72.39-1.32.32-2.19-.08-1.05-1-1.91-1.05-2.92a13.79 13.79 0 0 1 .65-3.32 12.33 12.33 0 0 0 .89-3.08 20.13 20.13 0 0 0 -.65-3c-.21-1-.52-2-.73-2.92a51.39 51.39 0 0 1 -.89-6.41c-.09-.95-.21-1.95-.24-2.84 0-.33.19-.72.16-1.05s-.48-.91-.49-1.38.43-.88.41-1.3-.76-.82-.81-1.3.34-.62.32-1.05-.38-.55-.41-1.05a5 5 0 0 0 -.24-2.43c-.36-.92-1.15-1.59-1.62-2.59a22.33 22.33 0 0 1 -.65-2.27 90.18 90.18 0 0 1 -3.58-13.17c-.18-1.06-.14-2.3-.81-3.08s-1.83-1.26-2.59-2c-.22-.22-.32-.61-.57-.89s-.6-.4-.73-.65a9 9 0 0 1 -.41-2.51c-.07-.45-.31-.86-.32-1.14-.08-1.09.83-3.06 1.3-4.14a9.82 9.82 0 0 0 1.14-3.41c0-.48 0-1 0-1.46a36 36 0 0 0 .24-6.16 36.45 36.45 0 0 1 .41-10.3c.07-.37.27-.7.32-1.05s-.09-1-.08-1.38c.06-1.83.49-4.12.24-5.68-.06-.37-.32-.67-.41-1.05s0-.69 0-1.05c-.34-2.77-1.66-5.74-2.35-8a5.25 5.25 0 0 1 -.24-1.62c.11-1.68 1.27-2.28 1.86-3.73 1.27-.41 1.35-2 2.76-2.27.4-.56.08-1.13.24-1.62.27-.82 1.38-1 1.7-1.78a4.31 4.31 0 0 1 .89-3c.31-.42.85-.65 1.05-1.05a4.89 4.89 0 0 0 .16-2.43c-.4-.2-.69.16-1.05.24 0-.93-.49-1.69-.32-2.43s1.74-1.69 2.43-2.27c1-.85 1.82-1.58 2.59-2.11-.5-2.8-5.52-.8-6.49-3.24a4.74 4.74 0 0 1 -.08-.81 31.6 31.6 0 0 1 -.89-3.24 12.37 12.37 0 0 0 0-1.38c-.08-.44-.53-.6-.49-1.14s.83-.65 1.22-1.14a6.75 6.75 0 0 0 -.65-3.57c.69-1 .64-2.13 1.05-3.08.29-.66 1-1.16 1.46-1.87.19-.3.21-.71.41-1 1.14-1.57 4-2.56 6.49-2.76 6.22-.48 10.47 3.15 11.19 8.27.67.57 2 .48 2.19 1.54a8.37 8.37 0 0 1 4.38 7.7c-.09 1-.65 2.1-.49 3.16a9.65 9.65 0 0 0 1.05 2.43c.29.57.65 1 .89 1.54a10.21 10.21 0 0 1 -.32 4.14c-.35.92-1.12 1.43-.65 2.51a2.52 2.52 0 0 0 -.24 2.43 26.63 26.63 0 0 0 -.48 3.8zm-6.41-25.7a7.81 7.81 0 0 0 -.57 3 5.16 5.16 0 0 0 1.22-2.84.63.63 0 0 0 -.61-.17zm-3.16 7.14c.34.6 1.31-.08.73-.57-.16.19-.61.2-.69.56zm9.89 9.08a.71.71 0 0 0 .57-.81c-.1 0-.11-.1-.24-.08a1.86 1.86 0 0 0 -.29.88zm0 .49c.12 0 .07.2.08.32.46.06.36-.45.49-.73a.9.9 0 0 0 -.53.39z" fill="#003" fill-rule="evenodd"/><path d="m631.33 312.19a.93.93 0 0 0 1.32-.16c.22.22.23.65.62.7a4.28 4.28 0 0 1 .39-1.94c.16.64.41 1.19 1.08 1.32.42-.42-.53-.69-.23-1.24.39 0 .62.47.39-.08.85.58 1.68 1.46 2.56.46.3.11-.17.5.23.7s.38-.34.7-.39c.92 1.07 3 .82 4.57.39.63.21.65.79 1.24 1.24.22.17.68.2 1 .39s.41.41.62.54c.63.38 1.39.45 1.24 1.63a2 2 0 0 0 1.24.31 6.18 6.18 0 0 1 2.48 3.79 15.07 15.07 0 0 1 0 1.63 22.66 22.66 0 0 1 0 4.57c-.07.44-.35.84-.46 1.32a14.13 14.13 0 0 1 -.46 2.09c-.65 1.5-1.68 2.75-2.09 4.1-.06.4-.24-.16-.54 0a4.84 4.84 0 0 0 .08 3.64 8.38 8.38 0 0 0 1.39 2.09 21.31 21.31 0 0 0 1.86 1.08 12.06 12.06 0 0 1 1.47 1.78 39.71 39.71 0 0 1 3.72 5.89 22.84 22.84 0 0 1 2.17 9.76c.08 2.48-.56 4.52-.7 6.74a23.61 23.61 0 0 1 -1 4.72 53.7 53.7 0 0 0 -.62 5.34 25.51 25.51 0 0 1 -.62 2.79 8.61 8.61 0 0 1 -1.08 2.25c-.53.93-.48 2-1.55 2.56-.1.49.37.4.46.7-.15.34-.39.47-.46.77a2.77 2.77 0 0 0 0 .93c.24.61 1.31.78.77 2.09.85.57.9 1.94 1.94 2.32.33 1.17.2 2.36.93 3.18-.48 1.66 1 2.81.62 4.57-.09.42.42.25.39.62-.76 2.1-.55 5.18-1.86 6.74a6.31 6.31 0 0 1 -1.55 3.56c-.06.43.19.53.15.93a10.17 10.17 0 0 1 -1 1.63 8 8 0 0 0 .08 3c.18 1.21-.35 2.14-.39 3.41 0 1 .23 2.24.23 3.56 0 2.55-.13 5.16-.23 7.74 0 1-.55 1.7-.31 2.87a22.67 22.67 0 0 0 1.47 4.26 8 8 0 0 1 .54.93c.12.38 0 .87.15 1.32.42 1.31 1.41 2.54 1.55 3.87 0 .28-.09.58-.08.85 0 .75.31 1.48.39 2.25.32 3.28.26 6.41.54 10.15.22 2.92 0 6 .15 8.91.05 1 0 2 .08 2.94a27.06 27.06 0 0 1 .31 6.58c-.13 1-1.09 1.71-1.24 2.87-.13 1 .32 1.87.31 2.79a22.21 22.21 0 0 0 -.29 2.46c0 .7.48 1.82.23 2.48s-1.2.85-2.09 1.08a9.35 9.35 0 0 1 -.23 2.71c-.14.49-.45.81-.46 1.24a4.45 4.45 0 0 0 .23 1c.64 3.91-3.34 3.45-6.58 4.26-.37-.28-.18-.87-.31-1.24-3.56.88-6 3.1-10.61 3.49a33.93 33.93 0 0 1 -9.14-.85c-1.14-.22-3.37-.4-3.49-1.55a5 5 0 0 1 .7-1.55c1.06-1.41 3.34-1.14 5.42-1.47a11 11 0 0 0 2.32-.85 16 16 0 0 0 3.33-1.55c.33-.24.71-.74 1.16-1.08a5 5 0 0 0 1.78-1.86c.53-.9.95-1.46 1.63-2.48a13.2 13.2 0 0 1 -6.51-2.48c-.91-.7-2.09-1.49-.93-2.63a6.37 6.37 0 0 1 3-1.16c1.58 0 3.66.78 5.34.54 1-.45 1-1.34 1.32-2.79a11 11 0 0 0 .39-2.09c0-.95-.49-2-.62-3.1-.39-3.26-.32-7.26-.77-10.69-.13-1-.26-2-.39-2.87-.15-1.06-.49-2-.54-2.87a8.83 8.83 0 0 0 .08-1c-.14-.68-1.26-1.27-1.55-2.09-.12-.32-.06-.66-.15-.93-.31-.84-1.06-1.4-1.47-2.25a11.09 11.09 0 0 1 -.93-2.71c-.11-.62 0-1.29 0-1.94-.11-1.55-1-3.26-1.32-5s-.51-3.79-.85-5.58c-.68-3.62-1.78-7.09-2.17-10.61a18.74 18.74 0 0 1 -3.49.77 5.94 5.94 0 0 1 -1.78-.39 3.4 3.4 0 0 1 -1.32-.46c-1.09-.95-1.23-3.28-1.78-4.65-.16-.41-.69-1-.7-1.39s.56-1 .85-1.47c.16-.28.2-.73.39-1.08.6-1.17 1.24-1.52 1.47-2.87a3.56 3.56 0 0 1 1.78-4.49c.3-.5.18-.94.31-1.39.48-1.7 2.28-3.2 1.16-5.19-.16-.28-.48-.37-.62-.7-.26-.61-.3-2-.62-2.71-.17-.41-.46-.67-.46-1 0-.58.58-.82.54-1.32s-.55-.52-.7-.85c.17-3-.81-5.82-.15-8.6.14-.6.53-1.21.15-2a1.69 1.69 0 0 0 .31-2c.29-1.26-.31-2.55-.31-3.79a34.34 34.34 0 0 1 .54-5.73 15.5 15.5 0 0 0 .54-1.94 16.81 16.81 0 0 0 -.23-2.25c-.11-1.06-.76-1.95-.77-2.94-.07-3.59 2.94-6.42 4.57-8.67.44-.61.82-1.39 1.32-2.09.9-1.26 1.87-2.45 2.87-3.79a10.92 10.92 0 0 0 1.39-1.94 5.36 5.36 0 0 0 -.23-3.25c-.14-.39-.59-.79-.85-1.32a9.67 9.67 0 0 0 -.7-1.47c-.24-.28-.7-.42-.85-.77-.3-.7 0-1.63-.54-2.32-1.1-1.34-4.26-.37-4.88-2.17a2.62 2.62 0 0 1 0-1.16c.14-.71.8-1.39-.23-1.7a1.12 1.12 0 0 0 -.39-1.08 5.09 5.09 0 0 0 .15-2c-.69-.26-1.61-.3-1.86-1a5.66 5.66 0 0 1 1.55-2.09c.48-.5 1.56-1.27 1.63-1.94 0-.41-.43-.77-.46-1.32s.89-2.09 1.16-2.71 1.36-1.88 1.32-2.56-.94-1.16-1.16-1.63c-.24.11.44.64.15.54a2.18 2.18 0 0 1 .44-3.46zm-1.94 104c-.08.22 0 .53-.08.77-.31 1-.6 1.35.23 1.94a4 4 0 0 1 1.86-.54c-.36-1.39-.23-2.79-.93-3.79a7.78 7.78 0 0 0 -1.08 1.63zm1.7 3.41c.13.1.2.26.46.23 0-.29 0-.7-.23-.77.04.29-.32.21-.22.55z" fill="#003" fill-rule="evenodd"/><path d="m356 233.32a3.56 3.56 0 0 1 .78 2.4 3.48 3.48 0 0 1 -.76 2.34 2.49 2.49 0 0 1 -2 .89h-1.55a.06.06 0 0 0 -.07.07v4.78a.15.15 0 0 1 -.16.16h-1.24a.15.15 0 0 1 -.17-.16v-11.23a.15.15 0 0 1 .17-.16h2.95a2.57 2.57 0 0 1 2.05.91zm-1.21 3.84a2.21 2.21 0 0 0 .41-1.41 2.31 2.31 0 0 0 -.41-1.44 1.31 1.31 0 0 0 -1.09-.54h-1.22a.06.06 0 0 0 -.07.07v3.77a.06.06 0 0 0 .07.07h1.22a1.32 1.32 0 0 0 1.05-.52z" fill="#fff"/><path d="m358.24 243.79v-11.2a.15.15 0 0 1 .16-.17h1.25a.15.15 0 0 1 .16.17v11.2a.15.15 0 0 1 -.16.16h-1.25a.15.15 0 0 1 -.16-.16z" fill="#fff"/><path d="m367.58 232.59v1a.15.15 0 0 1 -.16.17h-2.16a.06.06 0 0 0 -.07.07v9.93a.15.15 0 0 1 -.16.16h-1.25a.15.15 0 0 1 -.16-.16v-9.93a.06.06 0 0 0 -.07-.07h-2a.15.15 0 0 1 -.16-.17v-1a.15.15 0 0 1 .16-.17h5.91a.15.15 0 0 1 .12.17z" fill="#fff"/><path d="m344.06 248.24a3.56 3.56 0 0 1 .78 2.4 3.48 3.48 0 0 1 -.76 2.34 2.49 2.49 0 0 1 -2 .89h-1.55a.06.06 0 0 0 -.07.07v4.78a.15.15 0 0 1 -.16.16h-1.25a.15.15 0 0 1 -.17-.16v-11.23a.15.15 0 0 1 .17-.16h2.95a2.57 2.57 0 0 1 2.06.91zm-1.21 3.84a2.21 2.21 0 0 0 .41-1.41 2.31 2.31 0 0 0 -.41-1.44 1.31 1.31 0 0 0 -1.09-.54h-1.22a.06.06 0 0 0 -.07.07v3.77a.06.06 0 0 0 .07.07h1.22a1.32 1.32 0 0 0 1.09-.52z" fill="#fff"/><path d="m350.2 258.72-.36-1.89a.06.06 0 0 0 0 0h-.06-2.68-.06a.05.05 0 0 0 0 0l-.35 1.89a.16.16 0 0 1 -.18.15h-1.25a.14.14 0 0 1 -.15-.18l2.45-11.2a.17.17 0 0 1 .18-.15h1.47a.16.16 0 0 1 .18.15l2.47 11.2a.13.13 0 0 1 -.15.15h-1.28a.17.17 0 0 1 -.23-.12zm-2.88-3.21h2.19s0 0 0-.07l-1.12-5.85s0 0 0 0l-1.1 5.85s-.01.07.03.07z" fill="#fff"/><path d="m353.1 258.19a2.92 2.92 0 0 1 -.8-2.13v-.43a.15.15 0 0 1 .16-.16h1.22a.15.15 0 0 1 .16.16v.37a1.82 1.82 0 0 0 .38 1.21 1.21 1.21 0 0 0 1 .45 1.25 1.25 0 0 0 1-.44 1.86 1.86 0 0 0 .18-2 2.44 2.44 0 0 0 -.54-.65q-.34-.29-1.1-.85a16.3 16.3 0 0 1 -1.32-1.07 4 4 0 0 1 -.81-1.07 3.1 3.1 0 0 1 -.33-1.47 2.84 2.84 0 0 1 .79-2.12 3.09 3.09 0 0 1 4.17.06 3.07 3.07 0 0 1 .8 2.21v.41a.15.15 0 0 1 -.16.16h-1.22a.15.15 0 0 1 -.16-.16v-.44a1.8 1.8 0 0 0 -.38-1.19 1.23 1.23 0 0 0 -1-.45 1.2 1.2 0 0 0 -.94.4 1.63 1.63 0 0 0 -.36 1.13 1.72 1.72 0 0 0 .36 1.11 7.84 7.84 0 0 0 1.4 1.21q1 .74 1.49 1.2a3.44 3.44 0 0 1 .77 1 2.93 2.93 0 0 1 .27 1.31 3 3 0 0 1 -.81 2.22 3.1 3.1 0 0 1 -4.21 0z" fill="#fff"/><path d="m360.12 258.19a2.92 2.92 0 0 1 -.8-2.13v-.43a.15.15 0 0 1 .16-.16h1.22a.15.15 0 0 1 .16.16v.37a1.82 1.82 0 0 0 .38 1.21 1.21 1.21 0 0 0 1 .45 1.25 1.25 0 0 0 1-.44 1.86 1.86 0 0 0 .18-2 2.44 2.44 0 0 0 -.54-.65q-.34-.29-1.1-.85a16.3 16.3 0 0 1 -1.32-1.07 4 4 0 0 1 -.81-1.07 3.1 3.1 0 0 1 -.33-1.47 2.84 2.84 0 0 1 .79-2.12 3.09 3.09 0 0 1 4.17.06 3.07 3.07 0 0 1 .8 2.21v.41a.15.15 0 0 1 -.16.16h-1.22a.15.15 0 0 1 -.16-.16v-.44a1.8 1.8 0 0 0 -.38-1.19 1.23 1.23 0 0 0 -1-.45 1.2 1.2 0 0 0 -.94.4 1.63 1.63 0 0 0 -.36 1.13 1.72 1.72 0 0 0 .36 1.11 7.84 7.84 0 0 0 1.4 1.21q1 .74 1.49 1.2a3.44 3.44 0 0 1 .77 1 2.93 2.93 0 0 1 .27 1.31 3 3 0 0 1 -.81 2.22 3.1 3.1 0 0 1 -4.21 0z" fill="#fff"/><path d="m372 248.71h-3.71a.06.06 0 0 0 -.07.07v3.57a.06.06 0 0 0 .07.07h2.27a.15.15 0 0 1 .16.16v1a.15.15 0 0 1 -.16.16h-2.27a.06.06 0 0 0 -.07.07v3.59a.06.06 0 0 0 .07.07h3.71a.15.15 0 0 1 .16.16v1a.15.15 0 0 1 -.16.16h-5.2a.15.15 0 0 1 -.16-.16v-11.2a.15.15 0 0 1 .16-.17h5.2a.15.15 0 0 1 .16.17v1a.15.15 0 0 1 -.16.28z" fill="#fff"/><path d="m374.15 258.19a2.92 2.92 0 0 1 -.8-2.13v-.43a.15.15 0 0 1 .16-.16h1.22a.15.15 0 0 1 .16.16v.37a1.82 1.82 0 0 0 .38 1.21 1.21 1.21 0 0 0 1 .45 1.25 1.25 0 0 0 1-.44 1.86 1.86 0 0 0 .18-2 2.44 2.44 0 0 0 -.54-.65q-.34-.29-1.1-.85a16.3 16.3 0 0 1 -1.32-1.07 4 4 0 0 1 -.81-1.07 3.1 3.1 0 0 1 -.33-1.47 2.84 2.84 0 0 1 .79-2.12 3.09 3.09 0 0 1 4.17.06 3.07 3.07 0 0 1 .8 2.21v.41a.15.15 0 0 1 -.16.16h-1.25a.15.15 0 0 1 -.16-.16v-.44a1.8 1.8 0 0 0 -.38-1.19 1.23 1.23 0 0 0 -1-.45 1.2 1.2 0 0 0 -.94.4 1.63 1.63 0 0 0 -.36 1.13 1.72 1.72 0 0 0 .36 1.11 7.84 7.84 0 0 0 1.4 1.21q1 .74 1.49 1.2a3.44 3.44 0 0 1 .77 1 2.93 2.93 0 0 1 .27 1.31 3 3 0 0 1 -.81 2.22 3.1 3.1 0 0 1 -4.21 0z" fill="#fff"/></g><rect fill="#bd2e2b" height="42.26" rx="6.85" width="42.26" x="154.65" y="11.57"/><path d="m271.89 269.81a5.58 5.58 0 0 1 -5.57-5.57v-28.55a5.58 5.58 0 0 1 5.57-5.57h28.55a5.58 5.58 0 0 1 5.57 5.57v28.55a5.58 5.58 0 0 1 -5.57 5.57z" fill="#C0FF02" fill-rule="evenodd" transform="translate(-110.39 -217.27)"/><path d="m192.39 32.16v-.54h-.16v-.16h.51v.16h-.16v.54z" fill="#fff" fill-rule="evenodd"/><path d="m304 249.42h-.18v-.3-.12a.86.86 0 0 1 0 .11l-.09.33h-.13l-.09-.33a.77.77 0 0 1 0-.11v.16.3h-.18l.11-.7h.19l.11.36a.47.47 0 0 1 0 .08v-.1l.11-.36h.19z" fill="#fff" fill-rule="evenodd" transform="translate(-110.39 -217.27)"/><path d="m275.1 252.06.07-.07v-.09a22.72 22.72 0 0 1 .72-3.92 15.53 15.53 0 0 0 5.42-1.83 11.7 11.7 0 0 0 3.57-3.1 8 8 0 0 0 1.55-3.54 4.75 4.75 0 0 0 -.55-3.17 4.11 4.11 0 0 0 -1.28-1.34 5.94 5.94 0 0 0 -3.3-.85 11.75 11.75 0 0 0 -2.5.29 15.84 15.84 0 0 0 -2.52.78 13.5 13.5 0 0 0 -2.07 1 11.61 11.61 0 0 0 -3.93 3.89 5.4 5.4 0 0 0 -.71 1.93 2 2 0 0 0 2.13 2.5h.38l-.11-.36v-.06a2 2 0 0 1 -.07-.38 2.56 2.56 0 0 1 .26-1.28c.62-1.33 2.22-2.64 4.76-3.91-.52.76-1 1.6-1.59 2.55-.69 1.21-1.33 2.46-1.9 3.7a33.67 33.67 0 0 0 -1.32 3.34 18.89 18.89 0 0 0 -.79 3.17c-.29 2 0 3.44.75 4.33l.16.16.29.28.13-.39a7.58 7.58 0 0 1 .33-.8 10.71 10.71 0 0 1 2.12-2.83zm5.41-13.39a.56.56 0 0 0 .08-.5.54.54 0 0 0 -.35-.35l-.59-.19a10.67 10.67 0 0 1 1.16-.17h.47a2.15 2.15 0 0 1 2.19 1.11 2 2 0 0 1 -.19 1.78 8.06 8.06 0 0 1 -2.59 2.85 7.51 7.51 0 0 1 -3.55 1.37 31.06 31.06 0 0 1 3.37-5.91z" fill="#bd2e2b" fill-rule="evenodd" transform="translate(-110.39 -217.27)"/><path d="m288.62 240a1.82 1.82 0 0 0 1.67-1.64 1.47 1.47 0 0 0 -.36-1.14 1.31 1.31 0 0 0 -1-.43 1.81 1.81 0 0 0 -1.66 1.62 1.5 1.5 0 0 0 .36 1.16 1.3 1.3 0 0 0 .99.43z" fill="#bd2e2b" fill-rule="evenodd" transform="translate(-110.39 -217.27)"/><path d="m286 243.07c-.24.58-.46 1.15-.67 1.73s-.4 1.2-.57 1.84a4.67 4.67 0 0 0 -.17 1.6v.19h.19l.45.1a4.19 4.19 0 0 1 1.84 1l.12.12.16-.07a6.55 6.55 0 0 0 2.58-2.41 2.7 2.7 0 0 0 .17 1.27 1.47 1.47 0 0 0 .55.65 2.17 2.17 0 0 0 1.19.31 3.4 3.4 0 0 0 1.12-.19 4.8 4.8 0 0 0 2-1.48 10.34 10.34 0 0 0 1.57-2.61c.12-.28.23-.55.32-.82s.12-.35.17-.51c.12-.43-.27-.54-.47-.25l-.29.39a13.12 13.12 0 0 1 -1.47 1.58 3.79 3.79 0 0 1 -.92.65.74.74 0 0 1 -.27 0c-.06 0-.39 0-.44-.25a3.19 3.19 0 0 1 .23-1.3c.22-.65.5-1.29.78-1.9l.4-.9c.49-1.11.85-2 1.14-2.91a9.8 9.8 0 0 1 2.21-.33 2.7 2.7 0 0 1 1.11.2 1.05 1.05 0 0 1 .36.24.58.58 0 0 0 .46.25.48.48 0 0 0 .36-.17.53.53 0 0 0 .12-.42 3.18 3.18 0 0 0 -.38-1.44 2.63 2.63 0 0 0 -2.38-1h-.38c-.42 0-.77.05-1.09.1a2.17 2.17 0 0 0 -.39-1 1.75 1.75 0 0 0 -1.22-.61h-.13a1.6 1.6 0 0 0 -1 .36l-.24.22-.21.21.23.18a1.5 1.5 0 0 1 .47 1.2l-.26.07-.47.13a2 2 0 0 1 -.43.05 1.46 1.46 0 0 1 -.76-.21l-.14-.08-.15-.09a.85.85 0 0 0 -.43-.14.69.69 0 0 0 -.49.23l-.15.14.11.18a1.58 1.58 0 0 1 .15 1.34v.15l.11.11a2.4 2.4 0 0 0 1.74.89h.33l-.16.37c-.32.74-.64 1.51-1 2.24a16.43 16.43 0 0 1 -1.81 3.1c-.81 1-1.29 1.25-1.55 1.26a.54.54 0 0 1 -.42-.15c-.11-.12-.2-.38-.06-1a8.51 8.51 0 0 1 .6-1.6c.3-.65.64-1.26 1-1.91l.11-.2a1 1 0 0 0 .08-.76.92.92 0 0 0 -.54-.49 4 4 0 0 0 -1.41-.3.68.68 0 0 0 -.63.46c-.26.67-.53 1.34-.81 2z" fill="#bd2e2b" fill-rule="evenodd" transform="translate(-110.39 -217.27)"/><path d="m295.7 260.06c.13-.18 0-.28-.09-.29a.89.89 0 0 0 -.28 0 4.66 4.66 0 0 0 -1 .39 3.18 3.18 0 0 0 -1.07.89 2.25 2.25 0 0 0 -.41.87 1.86 1.86 0 0 0 0 .9 1.82 1.82 0 0 0 .41.74 2.15 2.15 0 0 0 .73.51 2.77 2.77 0 0 0 .59.18 3.53 3.53 0 0 0 .67.06 4.47 4.47 0 0 0 .54 0 5.47 5.47 0 0 0 .57-.1 5.71 5.71 0 0 0 1.64-.72 5.58 5.58 0 0 0 1.32-1.19 5.69 5.69 0 0 0 .81-1.57 11.08 11.08 0 0 0 .53-2.1l.11-.77.11-.77.06-.47.07-.47.13-.89.13-.89q0-.21.07-.42l.08-.42.08-.45.08-.45v-.14c.07-.4.14-.8.22-1.2a7.77 7.77 0 0 1 .34-1.15 1.09 1.09 0 0 0 .09-.45.61.61 0 0 0 -.13-.35.79.79 0 0 0 -.37-.25 1.83 1.83 0 0 0 -.59-.08h-.31-.21a2.14 2.14 0 0 0 -.41.1 1 1 0 0 0 -.41.29 2.07 2.07 0 0 0 -.32.83c-.08.35-.13.76-.18 1.15v.14c0 .16 0 .32-.05.48s0 .32 0 .48v.4.4s-.08.54-.14.8a3.9 3.9 0 0 1 -.27.78 2.91 2.91 0 0 1 -.42.65 1.11 1.11 0 0 1 -.52.37h-.09-.2-.09a.46.46 0 0 1 -.15-.24 1.75 1.75 0 0 1 -.07-.58 5.27 5.27 0 0 1 .07-.69c0-.27.1-.59.19-.95s.12-.52.2-.78l.23-.8v-.06-.06l.09-.33c0-.11.05-.23.07-.35a1.2 1.2 0 0 0 0-.42.66.66 0 0 0 -.14-.31.61.61 0 0 0 -.24-.17.86.86 0 0 0 -.32-.06h-.06a3.21 3.21 0 0 0 -1 .18 1.1 1.1 0 0 0 -.61.47 1.62 1.62 0 0 0 -.17.57v.12c0 .15 0 .31-.08.5l-.11.61c-.08.45-.17 1-.25 1.46s-.14 1-.17 1.52l-.15.28-.15.25a2.66 2.66 0 0 1 -.45.57.72.72 0 0 1 -.31.18h-.09-.08-.12-.1a.47.47 0 0 1 -.16-.24 1.74 1.74 0 0 1 -.07-.58 5.37 5.37 0 0 1 .07-.76c0-.25.09-.49.13-.7s.15-.69.24-1.05.2-.74.32-1.13a.82.82 0 0 0 0-.34.87.87 0 0 0 -.09-.33.84.84 0 0 0 -.21-.27.83.83 0 0 0 -.3-.16h-.16-.18a2.32 2.32 0 0 0 -.44 0l-.27.07a1.38 1.38 0 0 0 -.46.25 1 1 0 0 0 -.28.37 1.47 1.47 0 0 0 -.41-.19 1.75 1.75 0 0 0 -.47-.06h-.29l-.31.06a3.16 3.16 0 0 0 -1.26.62 4.78 4.78 0 0 0 -.9 1 5.28 5.28 0 0 0 -.16-1.66 4.06 4.06 0 0 0 -.66-1.38 3.71 3.71 0 0 0 -.92-.87 4.19 4.19 0 0 0 -1.2-.54 5.18 5.18 0 0 0 -.74-.15 6.26 6.26 0 0 0 -.8 0 7.86 7.86 0 0 0 -1 .07 9.93 9.93 0 0 0 -1.07.2 12.87 12.87 0 0 0 -2.19.75 13.26 13.26 0 0 0 -2 1.13 12.7 12.7 0 0 0 -2.33 2 10.22 10.22 0 0 0 -1.61 2.38 6.94 6.94 0 0 0 -.42 1.1 4.62 4.62 0 0 0 -.17 1 2.83 2.83 0 0 0 .09.91 1.84 1.84 0 0 0 .36.7 1.7 1.7 0 0 0 .68.48 2.58 2.58 0 0 0 1 .16h.57l-.1-.19-.1-.19-.06-.16c0-.06 0-.11 0-.17a2 2 0 0 1 0-.57 2.61 2.61 0 0 1 .12-.61 5.38 5.38 0 0 1 1.28-2 15.55 15.55 0 0 1 2.62-2.14c-.19.38-.39.78-.58 1.2s-.38.86-.58 1.33-.49 1.21-.71 1.82-.43 1.22-.61 1.83-.32 1.09-.45 1.6-.25 1-.35 1.52-.2 1.06-.26 1.54-.1.95-.12 1.39a8.28 8.28 0 0 0 .24 2.58 3.34 3.34 0 0 0 1 1.64 2.65 2.65 0 0 0 1.1.58 4.28 4.28 0 0 0 1.1.14h.15a.73.73 0 0 0 .27-.06.48.48 0 0 0 .19-.15.54.54 0 0 0 .1-.34 1.7 1.7 0 0 0 0-.35v-.07l-.07-.37-.06-.39c0-.25-.07-.51-.1-.78s-.06-.55-.08-.83c-.05-.66-.08-1.31-.08-1.95s0-1.27.07-1.88c0-.22 0-.44.06-.65s.05-.42.08-.63a15.52 15.52 0 0 0 2.57-1 13.34 13.34 0 0 0 1.88-1.32 11.8 11.8 0 0 0 1.42-1.27 10.66 10.66 0 0 0 1.15-1.43 7 7 0 0 0 0 1.21 3.71 3.71 0 0 0 .3 1.24 1.75 1.75 0 0 0 .41.58 1.35 1.35 0 0 0 .57.31h.18.19a2.08 2.08 0 0 0 .8-.18 3 3 0 0 0 .55-.31l.22-.18.2-.19a4.61 4.61 0 0 0 .5-.63 6.68 6.68 0 0 0 .45-.79 1.66 1.66 0 0 0 .64 1 1.41 1.41 0 0 0 .78.24 2.49 2.49 0 0 0 .5-.06 2.15 2.15 0 0 0 .69-.29 3.44 3.44 0 0 0 .79-.74 6.29 6.29 0 0 0 .59-.9 2 2 0 0 0 .25.57 1.43 1.43 0 0 0 .39.4 1.38 1.38 0 0 0 .4.19 1.72 1.72 0 0 0 .48.06h.27l.28-.05a3 3 0 0 0 .77-.29 2.84 2.84 0 0 0 .65-.49l-.06.29-.07.3c0 .19-.14.48-.23.76s-.19.55-.26.71a3.6 3.6 0 0 1 -.79 1.19 2 2 0 0 1 -1 .52h-.12-.12a.77.77 0 0 1 -.22 0 .58.58 0 0 1 -.23-.13.55.55 0 0 1 -.16-.27.8.8 0 0 1 0-.27 1.75 1.75 0 0 1 .19-.55 3.26 3.26 0 0 1 .35-.49zm-10.4-6.46a5.28 5.28 0 0 1 -.94 2.21 8 8 0 0 1 -2.84 2.55 6.9 6.9 0 0 1 -1.54.58 29.48 29.48 0 0 1 2.44-5.89.54.54 0 0 0 0-.48.52.52 0 0 0 -.37-.29h-.21l-.3-.06a5.74 5.74 0 0 1 1.89-.37 2.34 2.34 0 0 1 .83.13 1.55 1.55 0 0 1 1.04 1.62zm5.63.56v.11l-.06.39a10.89 10.89 0 0 1 -.33 1.46 3 3 0 0 1 -.62 1.15 1 1 0 0 1 -.67.39h-.06c-.24 0-.35-.5-.37-.92a4 4 0 0 1 .18-1.28 4.46 4.46 0 0 1 .7-1.41c.16-.21.48-.56.81-.56a.4.4 0 0 1 .3.14.71.71 0 0 1 .12.52z" fill="#bd2e2b" fill-rule="evenodd" transform="translate(-110.39 -217.27)"/><path d="m276.8 244.66a31.32 31.32 0 0 1 3.5-6.16.29.29 0 0 0 -.14-.45 10.92 10.92 0 0 0 -1.18-.35l-.52-.11.52-.11a14.56 14.56 0 0 1 1.81-.3c1.15-.09 2.37.09 2.91 1.24a2.29 2.29 0 0 1 -.2 2 8.35 8.35 0 0 1 -2.67 2.94 7.7 7.7 0 0 1 -3.92 1.43h-.18l.07-.17zm-1.89 7.21a22.85 22.85 0 0 1 .75-4.06v-.07h.07a15.37 15.37 0 0 0 5.42-1.81 11.38 11.38 0 0 0 3.49-3 7.75 7.75 0 0 0 1.5-3.42 4.48 4.48 0 0 0 -.52-3 3.84 3.84 0 0 0 -1.19-1.23c-1.59-1-3.83-.91-5.6-.52a15.62 15.62 0 0 0 -2.48.77 13.26 13.26 0 0 0 -2 1 11.43 11.43 0 0 0 -3.84 3.79 5.21 5.21 0 0 0 -.68 1.84 1.79 1.79 0 0 0 1.89 2.21v-.06a2.25 2.25 0 0 1 -.07-.43 2.84 2.84 0 0 1 .29-1.41c.9-1.92 3.59-3.42 5.4-4.29l.4-.19-.26.36a34.42 34.42 0 0 0 -1.91 3c-.68 1.19-1.32 2.42-1.89 3.68a33.65 33.65 0 0 0 -1.31 3.32 18.76 18.76 0 0 0 -.78 3.13c-.19 1.31-.25 3.07.69 4.12l.14.15a7.8 7.8 0 0 1 .34-.83 11 11 0 0 1 2.15-3.05z" fill="#fff" fill-rule="evenodd" transform="translate(-110.39 -217.27)"/><path d="m288.66 239.77a1.56 1.56 0 0 0 1.41-1.4 1.1 1.1 0 0 0 -1.12-1.28 1.55 1.55 0 0 0 -1.41 1.39 1.11 1.11 0 0 0 1.12 1.29z" fill="#fff" fill-rule="evenodd" transform="translate(-110.39 -217.27)"/><path d="m293.27 235.67a1.79 1.79 0 0 1 .57 1.52v.08h-.08c-.28.07-.56.17-.85.23a1.79 1.79 0 0 1 -1.37-.19l-.29-.17a.42.42 0 0 0 -.6.05 1.85 1.85 0 0 1 .18 1.54 2 2 0 0 0 2.11.74h.22l-.09.2c-.42 1-.82 1.93-1.27 2.88a16.48 16.48 0 0 1 -1.84 3.15c-.37.47-1.1 1.34-1.74 1.36a.82.82 0 0 1 -.66-.23 1.44 1.44 0 0 1 -.12-1.23 8.69 8.69 0 0 1 .61-1.65c.34-.72.72-1.41 1.11-2.11.2-.44.13-.71-.32-.9a3.73 3.73 0 0 0 -1.32-.28.42.42 0 0 0 -.41.29c-.29.74-.59 1.48-.9 2.22-.23.57-.46 1.14-.67 1.72s-.4 1.2-.56 1.82a4.47 4.47 0 0 0 -.17 1.51l.47.11a4.46 4.46 0 0 1 2 1.11 7 7 0 0 0 2.81-2.87l.32-.53-.11.61a3.24 3.24 0 0 0 .07 1.78 1.21 1.21 0 0 0 .45.54 2.58 2.58 0 0 0 2.08.09 4.59 4.59 0 0 0 1.87-1.4 10.1 10.1 0 0 0 1.53-2.54c.11-.26.22-.53.32-.8s.12-.34.17-.52l-.3.41a13.42 13.42 0 0 1 -1.5 1.61 3.84 3.84 0 0 1 -1 .7c-.36.15-1 .07-1.06-.38a3.22 3.22 0 0 1 .24-1.44c.22-.65.51-1.29.78-1.92l.4-.9c.42-1 .83-2 1.15-3v-.06h.06c1-.24 2.57-.59 3.57-.14a1.32 1.32 0 0 1 .46.33c.21.28.51.13.47-.16a2.94 2.94 0 0 0 -.34-1.31 2.75 2.75 0 0 0 -2.53-.84 11.66 11.66 0 0 0 -1.21.12h-.12v-.12a2 2 0 0 0 -.36-1 1.48 1.48 0 0 0 -1-.51 1.34 1.34 0 0 0 -1 .3z" fill="#fff" fill-rule="evenodd" transform="translate(-110.39 -217.27)"/><path d="m278.9 270.5a3.17 3.17 0 0 1 -2.17-.64c-1.06-.92-1.18-2.72-1.13-4a18.56 18.56 0 0 1 .37-2.89 32 32 0 0 1 .8-3.1c.38-1.23.82-2.45 1.31-3.63a32.38 32.38 0 0 1 1.41-3l.21-.39-.37.24c-1.56 1-3.89 2.71-4.48 4.58a2.53 2.53 0 0 0 -.09 1.32 2 2 0 0 0 .13.38 1.9 1.9 0 0 1 -1.59-.55 2 2 0 0 1 -.39-1.43 5.5 5.5 0 0 1 .57-2 11.38 11.38 0 0 1 3.85-4.3 13.13 13.13 0 0 1 4.15-1.85 7 7 0 0 1 3.48-.07 3.64 3.64 0 0 1 2 1.31 4.6 4.6 0 0 1 .71 3.47l-.09.6.3-.52a3.89 3.89 0 0 1 2.32-2 1.52 1.52 0 0 1 1.43.26l.17.15v-.22a.83.83 0 0 1 .62-.64 1.84 1.84 0 0 1 .89-.07.59.59 0 0 1 .39.76 22.23 22.23 0 0 0 -.57 2.22 7.53 7.53 0 0 0 -.2 1.51 1.26 1.26 0 0 0 .34 1 .72.72 0 0 0 .59.08c.39-.09.72-.55.92-.87s.22-.38.32-.58c.08-1.39.48-3.16.61-4.09.07-.41.07-.75.63-1a2.87 2.87 0 0 1 .94-.16c.47 0 .51.34.46.65a6 6 0 0 1 -.19.76c-.15.52-.31 1.07-.42 1.6a9.6 9.6 0 0 0 -.26 1.69 1.26 1.26 0 0 0 .33 1 .71.71 0 0 0 .59.08c.48-.11.92-.74 1.12-1.17a5.56 5.56 0 0 0 .43-1.65c.07-.59.09-1.18.16-1.76a5.54 5.54 0 0 1 .46-2 1 1 0 0 1 .66-.3c.33-.06 1-.1 1.23.19a.56.56 0 0 1 0 .55 12.43 12.43 0 0 0 -.58 2.43c-.06.33-.11.67-.18 1s-.1.56-.15.84q-.14.89-.26 1.78c-.12.83-.22 1.66-.34 2.49a8.57 8.57 0 0 1 -1.28 3.54 5.41 5.41 0 0 1 -2.83 1.82 3.58 3.58 0 0 1 -2.2-.09 1.7 1.7 0 0 1 -1-1.08 1.78 1.78 0 0 1 .34-1.54 3.51 3.51 0 0 1 1.95-1.18s0 0 0 0a2.1 2.1 0 0 0 -.46 1.06.89.89 0 0 0 .27.75 1 1 0 0 0 .92.19 2.81 2.81 0 0 0 2-1.87 12.77 12.77 0 0 0 .5-1.51 11.89 11.89 0 0 0 .29-1.67 2.8 2.8 0 0 1 -1.89 1.55 1.53 1.53 0 0 1 -1.22-.15 1.67 1.67 0 0 1 -.61-1.21v-.38l-.17.35a4.8 4.8 0 0 1 -1.48 1.92 1.94 1.94 0 0 1 -1.08.31c-.88 0-1.17-.77-1.24-1.54v-.45l-.18.42a6 6 0 0 1 -1.1 1.79 2.8 2.8 0 0 1 -.39.34 1.94 1.94 0 0 1 -1.52.4 1.24 1.24 0 0 1 -.81-.74 5.48 5.48 0 0 1 -.16-3l.12-.66-.33.58a10.67 10.67 0 0 1 -2.87 3.23 14.18 14.18 0 0 1 -4.8 2.31h-.07v.07c-.07.46-.13.93-.16 1.4a24.6 24.6 0 0 0 0 3.87c0 .54.1 1.09.19 1.63 0 .24.09.52.14.77s.17.63-.25.65zm10.26-12.6a1.19 1.19 0 0 0 1-.47 3.25 3.25 0 0 0 .68-1.26 11.21 11.21 0 0 0 .33-1.49c0-.17 0-.33.07-.5.07-.47-.13-.95-.66-1a1.44 1.44 0 0 0 -1 .66 4.73 4.73 0 0 0 -.74 1.5 4.21 4.21 0 0 0 -.19 1.36c0 .38.11 1.1.59 1.16zm-9.48 1.2v.18h.18a7 7 0 0 0 1.85-.65 8.25 8.25 0 0 0 2.94-2.64 5.35 5.35 0 0 0 1-2.34 1.81 1.81 0 0 0 -1.18-1.94 5 5 0 0 0 -3.4.45l-.37.18h.4a8.83 8.83 0 0 1 1 .19.27.27 0 0 1 .18.4 29.73 29.73 0 0 0 -2.6 6.16z" fill="#fff" fill-rule="evenodd" transform="translate(-110.39 -217.27)"/><path d="m165.26 52.54h4.09v1.26h-4.09z" fill="#bd2e2b"/><path d="m684.87 317.72c.2 0 .2.18.18.36.35 0 .81.34 1.28.36s.35-.22.64-.22c.13 0 1 .24 1.46.29a17 17 0 0 1 2.92.51c.3 0-.24-.32.09-.36.61.07.88.41 1.55.44.36.11.19-.19.37-.22s.73.48.82 0c1.07.31 1.62 1 2.56 1.45.22-.13 0-.57-.09-.65.38-.15.59.45.82.65.46-.1.47.16.64.29.16-.05 0-.13 0-.22.24-.29.49.61.82.73.18-.07.14-.32.46-.29.91.46.74 1.6.73 2.47a2.91 2.91 0 0 1 1.55.94.34.34 0 0 1 -.18.44c.49.48.66 1.22 1.28 1.6-.18 2 1.22 3.8.82 5.59-.21.92-1.16 1.53-1.19 2.54-.28.76-1.35 1-1.92 1.6-.28.29-.29.74-.55 1s-.53.19-.73.36c-.65.55-.8 1.47-1.55 2 .16.51-.54 1-.37 2a17.32 17.32 0 0 0 2.56.36c.2.65.78 1.89-.27 2.47-.14 1.47.95 1.87 2 2.69a18.36 18.36 0 0 1 2.65 3.34 6.09 6.09 0 0 1 1.1 1.67c2.71 2.95 3.49 7 4.38 11.11a66.39 66.39 0 0 1 1.64 18.3c-.19 2.94.1 5.74-.09 8.71a40.26 40.26 0 0 0 .37 5.74c-1.63.64-3.44 1.14-5.11 1.74a24.8 24.8 0 0 0 1.64 3.92 12.49 12.49 0 0 1 .09 8.13c-.36 1.25-1.28 2.08-2 3.27a25.77 25.77 0 0 1 -1.55 2.61 15.34 15.34 0 0 0 -1.83 2.4c-.17.42 0 1.15-.27 1.82s-.52.88-.55 1.31c0 .24.16.42.18.65.2 1.91-.6 4.36-.73 6.46-.05.83 0 1.54-.09 2.61a11.69 11.69 0 0 0 -.27 2.61c.12.68.72 1.56.64 2.4s-1.12 1.49-1 2.54c.08.7 1.05 1.31 1.1 2.18s-.3 1.34.46 2c1.78 1.08 2.53 3.58 3 6 .38 1.86.92 3.56 1.37 5.37a51.3 51.3 0 0 1 1.92 13.22 17.41 17.41 0 0 1 -.27 1.74c-.08.95 0 2 0 3.05 0 1.39-.07 2.53-.18 4.36a18.5 18.5 0 0 0 -.27 3.12c.05.37.4.7.46 1.09s-.11.69-.09 1a18.8 18.8 0 0 1 .27 2.32c0 .2-.31.47-.37.8-.13.77-.15 1.18-.73 1.6.16 1.29 0 2.27.09 3.41 0 .55.47 1.17.37 1.82 0 .26-.32.4-.46.73-.34.79-.38 1.43-1.1 1.82-2.32 1.23-7 1-10 1.31-5.19.58-9.53 1.48-14.88 1.16-2.88-.17-6.86-.42-8.86-1.45-1-.49-1.77-1.22-1.19-2.25.71-1.25 4.14-1.75 6-2.25l3.29-.87c1.8-.47 3.46-.58 4.11-1.74.29 0 .67 0 .82-.07.45-.12.61-.48.91-.73 1.18.15 1.11-.87 2-.73a2.32 2.32 0 0 1 1.19-.87c-.7-.45-2.19-.31-3.56-.36-2.78-.11-7.89-.72-9.4-2.11a1.41 1.41 0 0 1 -.09-2c1.77-1 5.46-.86 8.31-1a5.09 5.09 0 0 0 2.47-.73c.12-.72.81-.77 1.64-1 .33-.1.75-.36 1.1-.51a10.51 10.51 0 0 0 2.65-1.38c.06-1.29-.77-2.43-.64-3.7.07-.69.75-1.25.82-1.89a9.39 9.39 0 0 0 -.37-2.18 13.35 13.35 0 0 0 -.37-1.82c-.09-.22-.35-.37-.46-.58-.84-1.6-1.14-3.49-1.83-5.16a35.44 35.44 0 0 0 -2.28-4.72c-.62-1-2-1.76-2.56-2.69-.31-.51-.31-1.18-.64-1.74-.23-.39-.64-.72-.82-1.09-.27-.56-.39-1.24-.73-1.89a8.1 8.1 0 0 1 -.73-2.76c-.06-.29-.27-.49-.37-.8a23.73 23.73 0 0 1 -.64-5.08 15.5 15.5 0 0 0 -1.28-4.28c-.82-2.08-1.31-4.75-2-7.19-.19-.65-.58-1.25-.73-1.89a22.5 22.5 0 0 0 -1.19-4.28c-1.32.4-3.38.14-4.29 1-2-.18-4.27-.56-4.57-2.32-1.24-.58-1.92-1-1.83-2.54a7.47 7.47 0 0 1 .46-2.76c.22-.45.64-1 .91-1.45s.5-1.15.73-1.52c.52-.85 1.57-1.55 2.1-2.4.12-.2.08-.45.18-.65.75-1.39 1.88-2.56 2.56-3.7v-.58a9.3 9.3 0 0 0 1.28-1.38c.33-.41 1-1 1-1.53 0-.66-1.17-1.44-1.1-2.25 0-.35.4-.48.46-.94-2.35-.33-2.4-1.93-2.74-4-.29-1.77-.27-4.31-.46-6.46 0-.4-.25-.77-.27-1.16a27.87 27.87 0 0 1 .27-3.05c.19-2.66.77-5.24 1.19-7.77.15-.9.54-1.79.64-2.69.19-1.75-.56-3.41-.18-5.23a14.54 14.54 0 0 1 2.83-5.81c.69-.95 1.15-1.21 1.28-2.4s.48-3.83 1.19-4.57a12.25 12.25 0 0 1 2.65-1.38c.93-.52 1.69-1 2.47-1.52.06-.75-1.09-1.24-1.1-1.82s.74-.69 1-1.23c.07-.42-.3-.49-.46-.73.45-.69 1.24-1.1 1.64-1.82-.09-.76-1.19-1.12-1.55-1.82s0-1.49-.37-2.18c-2.14-.32-4.91.14-5.66-1.45-.4-.84 0-1.6-.09-2.69-.83-.37-1.66-1.13-.64-1.82-.23-.32-.5-.62-.73-.94.08-.64.44-1.05.37-1.82-.55-.41-1.65-.44-1.73-1s.81-.86 1.37-1.45a10.4 10.4 0 0 1 2-2.11c-1.31-3 2.62-4 3.1-6.68 0-.26-.43-.19-.55-.36a6.1 6.1 0 0 1 0-3.34c.58-.13.79-.77 1.46-1a.4.4 0 0 0 -.09.36c.73-.29 1-1 2-1 .37-.05.31.24.46.36.78-.45 1.35-.53 1.65-1.23zm-9.77 103.28c1 .06.3-.89.37-1.38h-.37c-.21.51 0 .84 0 1.38zm-2.74-.73c.4.06.32-.47 0-.44-.01.26-.1.17 0 .43z" fill="#003" fill-rule="evenodd" transform="translate(-110.39 -217.27)"/><path d="m358.65 271.45-3.56-3.72v3l3.57 3.72a.62.62 0 0 0 .89 0l3.57-3.77v-3l-3.57 3.77a.62.62 0 0 1 -.9 0z" fill="#fff" transform="translate(-110.39 -217.27)"/><path d="m359.54 267.28a.62.62 0 0 1 -.89 0l-3.56-3.72v3l3.57 3.72a.62.62 0 0 0 .89 0l3.57-3.77v-3z" fill="#fff" transform="translate(-110.39 -217.27)"/><path d="m286.78 271.25-2.78-3.12v2.51l2.78 3.13a.46.46 0 0 0 .69 0l2.78-3.16v-2.51l-2.78 3.16a.46.46 0 0 1 -.69-.01z" fill="#fbfdff" stroke="#bd302a" stroke-miterlimit="10" stroke-width=".28" transform="translate(-110.39 -217.27)"/><path d="m287.48 267.76a.46.46 0 0 1 -.69 0l-2.79-3.13v2.51l2.78 3.13a.46.46 0 0 0 .69 0l2.78-3.16v-2.51z" fill="#fbfdff" stroke="#bd302a" stroke-miterlimit="10" stroke-width=".28" transform="translate(-110.39 -217.27)"/></svg>