<?xml version="1.0" encoding="UTF-8"?>
<svg width="294px" height="111px" viewBox="0 0 294 111" version="1.1" xmlns="http://www.w3.org/2000/svg" xmlns:xlink="http://www.w3.org/1999/xlink">
    <!-- Generator: Sketch 58 (84663) - https://sketch.com -->
    <title>Group 22</title>
    <desc>Created with Sketch.</desc>
    <defs>
        <polygon id="path-1" points="0.359941062 0.106947368 5.90051254 0.106947368 5.90051254 4.59378947 0.359941062 4.59378947"></polygon>
    </defs>
    <g id="Page-1" stroke="none" stroke-width="1" fill="none" fill-rule="evenodd">
        <g id="Desktop-Sales-Site" transform="translate(-717.000000, -215.000000)">
            <g id="Group-22" transform="translate(717.000000, 216.000000)">
                <polygon id="Fill-1" fill="#FFFFFF" points="286.931961 22 286.931961 18.1822581 286 18.1822581 286 17 289 17 289 18.1822581 288.066697 18.1822581 288.066697 22"></polygon>
                <g id="Group-21">
                    <g id="Group-4" transform="translate(287.969492, 15.473684)">
                        <mask id="mask-2" fill="white">
                            <use xlink:href="#path-1"></use>
                        </mask>
                        <g id="Clip-3"></g>
                        <path d="M5.90065971,4.59378947 L4.73806536,4.59378947 L4.46875553,2.65431579 C4.45109586,2.51681579 4.4334362,2.36484211 4.41871982,2.19694737 C4.4025318,2.0305 4.38928705,1.84668421 4.37604231,1.64839474 C4.34660954,1.83944737 4.28921564,2.07536842 4.20533225,2.3605 C4.18620095,2.41984211 4.1729562,2.46326316 4.16412637,2.49076316 L3.54309496,4.59378947 L2.71603417,4.59378947 L2.09500276,2.49076316 C2.08617293,2.46326316 2.07439982,2.41984211 2.0582118,2.3605 C1.97138513,2.07536842 1.91399123,1.83944737 1.8860301,1.65128947 C1.87425699,1.82063158 1.85954061,1.98997368 1.84335259,2.15497368 C1.82569293,2.32286842 1.80656163,2.48786842 1.78301541,2.65431579 L1.51664886,4.59378947 L0.359941062,4.59378947 L1.06485586,0.106947368 L2.29514558,0.106947368 L2.98387236,2.42128947 C2.98828728,2.43721053 2.99564547,2.46326316 3.00889021,2.50089474 C3.07217067,2.70642105 3.1119049,2.883 3.12956456,3.03063158 C3.1383944,2.95102632 3.15458242,2.86273684 3.17665699,2.76576316 C3.19873157,2.66878947 3.23110762,2.55155263 3.27084185,2.4155 L3.96545519,0.106947368 L5.19868818,0.106947368 L5.90065971,4.59378947 Z" id="Fill-2" fill="#FFFFFF" mask="url(#mask-2)"></path>
                    </g>
                    <path d="M61.9849687,38.99775 C53.7025877,47.4909079 43.6674853,50.5231447 36.6801461,50.9776184 C40.7595278,41.4785395 46.4959743,31.1544605 54.0263481,20.9403816 C54.8283911,19.8519605 54.3515802,18.3148553 53.0594817,17.8835395 C51.23465,17.27275 48.8270496,16.5143289 47.1331938,16.1539342 C51.2773275,15.3115658 58.8312475,13.4213026 62.8797248,15.12775 C62.8797248,15.12775 81.1501158,19.5465658 61.9849687,38.99775 M52.2589104,0.546960526 C8.54389116,5.51867105 -14.2459014,48.8919605 11.572523,49.7835395 C12.0272593,49.7589342 2.71031647,36.7036711 38.5564851,19.9822237 C19.7489461,45.6657763 -10.4196415,109.057618 25.8371142,109.312355 C26.2006089,109.293539 26.5641036,109.274724 26.8201687,108.991039 C27.083592,108.799987 27.3411287,108.516303 27.2322274,108.164592 C26.0519734,99.8060395 26.5067097,81.7819605 31.0437709,66.3197237 C91.4942622,57.6065658 101.583815,-5.07606579 52.2589104,0.546960526" id="Fill-5" fill="#FFFFFF"></path>
                    <path d="M61.9849687,38.99775 C53.7025877,47.4909079 43.6674853,50.5231447 36.6801461,50.9776184 C40.7595278,41.4785395 46.4959743,31.1544605 54.0263481,20.9403816 C54.8283911,19.8519605 54.3515802,18.3148553 53.0594817,17.8835395 C51.23465,17.27275 48.8270496,16.5143289 47.1331938,16.1539342 C51.2773275,15.3115658 58.8312475,13.4213026 62.8797248,15.12775 C62.8797248,15.12775 81.1501158,19.5465658 61.9849687,38.99775 Z M52.2589104,0.546960526 C8.54389116,5.51867105 -14.2459014,48.8919605 11.572523,49.7835395 C12.0272593,49.7589342 2.71031647,36.7036711 38.5564851,19.9822237 C19.7489461,45.6657763 -10.4196415,109.057618 25.8371142,109.312355 C26.2006089,109.293539 26.5641036,109.274724 26.8201687,108.991039 C27.083592,108.799987 27.3411287,108.516303 27.2322274,108.164592 C26.0519734,99.8060395 26.5067097,81.7819605 31.0437709,66.3197237 C91.4942622,57.6065658 101.583815,-5.07606579 52.2589104,0.546960526 Z" id="Stroke-7" stroke="#E73825" stroke-width="0.95"></path>
                    <path d="M95.6272116,27.0824342 C99.6197666,26.96375 102.746998,23.6984868 102.627796,19.7717763 C102.510064,15.9203289 99.1885765,12.8432237 95.1960215,12.9619079 C91.2034665,13.0791447 88.0747632,16.3473026 88.1924943,20.1973026 C88.311697,24.1240132 91.6346565,27.2011184 95.6272116,27.0824342" id="Fill-9" fill="#FFFFFF"></path>
                    <path d="M95.6272116,27.0824342 C99.6197666,26.96375 102.746998,23.6984868 102.627796,19.7717763 C102.510064,15.9203289 99.1885765,12.8432237 95.1960215,12.9619079 C91.2034665,13.0791447 88.0747632,16.3473026 88.1924943,20.1973026 C88.311697,24.1240132 91.6346565,27.2011184 95.6272116,27.0824342 Z" id="Stroke-11" stroke="#E73825" stroke-width="0.95"></path>
                    <path d="M131.995665,47.6029342 C128.466676,52.4588553 122.48888,59.0284605 119.002569,59.1703026 C112.833461,59.4221447 119.004041,47.0153026 123.554347,36.8678026 C125.121642,33.3434605 127.564561,28.17925 129.315811,22.8746447 C132.722654,22.0583289 135.97056,21.41425 138.874103,21.2116184 C141.28759,18.5180658 144.139625,15.8968816 147.400776,13.4696447 C144.145511,9.85846053 138.180961,9.79767105 131.212753,10.8947763 C130.762432,6.35438158 128.142915,3.25267105 121.461677,3.52622368 C119.318971,3.61306579 117.576551,5.03582895 116.179967,6.52806579 C118.556663,7.95082895 119.427873,10.2781974 119.298368,13.3220132 C115.201327,14.3510921 112.533247,16.0633289 106.565753,12.9312237 C105.86231,12.5360921 105.095586,12.6533289 104.424519,13.0180658 C104.395086,13.0397763 104.37154,13.0687237 104.34505,13.0904342 C105.813746,14.9010921 106.729105,17.1633289 106.80563,19.6441184 C106.843892,20.9322763 106.648165,22.1712237 106.274368,23.3363553 C109.054293,27.3397763 112.992398,26.8664868 115.470637,26.30925 C114.452263,28.6293816 113.272009,31.2100395 111.926932,33.8818816 C110.612758,36.6695132 107.843135,41.9538553 105.425233,47.7650395 C105.359009,47.8229342 105.292786,47.8837237 105.239807,47.9676711 C101.934507,52.8974079 96.100932,61.4803026 91.8287656,61.6062237 C82.3749605,61.8855658 93.2724429,43.3100395 96.100932,37.6812237 C98.0170052,31.8975395 92.0598129,30.46175 87.7773451,30.2316184 C86.5926762,30.1751711 85.6140366,30.9205658 85.193148,32.0075395 C80.0438852,48.0849079 77.8423141,50.4774079 75.2316276,60.3064868 C73.0300565,68.60425 74.5105247,75.4503026 83.3285821,75.1897763 C90.1201934,74.9885921 96.8720705,67.6475395 101.501845,60.0546447 C100.094959,67.6547763 101.666668,73.7206974 110.759922,73.3501711 C122.550689,72.8696447 130.569647,58.5088553 133.892607,49.3166184 C133.181805,48.8114868 132.535756,48.2513553 131.995665,47.6029342" id="Fill-13" fill="#FFFFFF"></path>
                    <path d="M131.995665,47.6029342 C128.466676,52.4588553 122.48888,59.0284605 119.002569,59.1703026 C112.833461,59.4221447 119.004041,47.0153026 123.554347,36.8678026 C125.121642,33.3434605 127.564561,28.17925 129.315811,22.8746447 C132.722654,22.0583289 135.97056,21.41425 138.874103,21.2116184 C141.28759,18.5180658 144.139625,15.8968816 147.400776,13.4696447 C144.145511,9.85846053 138.180961,9.79767105 131.212753,10.8947763 C130.762432,6.35438158 128.142915,3.25267105 121.461677,3.52622368 C119.318971,3.61306579 117.576551,5.03582895 116.179967,6.52806579 C118.556663,7.95082895 119.427873,10.2781974 119.298368,13.3220132 C115.201327,14.3510921 112.533247,16.0633289 106.565753,12.9312237 C105.86231,12.5360921 105.095586,12.6533289 104.424519,13.0180658 C104.395086,13.0397763 104.37154,13.0687237 104.34505,13.0904342 C105.813746,14.9010921 106.729105,17.1633289 106.80563,19.6441184 C106.843892,20.9322763 106.648165,22.1712237 106.274368,23.3363553 C109.054293,27.3397763 112.992398,26.8664868 115.470637,26.30925 C114.452263,28.6293816 113.272009,31.2100395 111.926932,33.8818816 C110.612758,36.6695132 107.843135,41.9538553 105.425233,47.7650395 C105.359009,47.8229342 105.292786,47.8837237 105.239807,47.9676711 C101.934507,52.8974079 96.100932,61.4803026 91.8287656,61.6062237 C82.3749605,61.8855658 93.2724429,43.3100395 96.100932,37.6812237 C98.0170052,31.8975395 92.0598129,30.46175 87.7773451,30.2316184 C86.5926762,30.1751711 85.6140366,30.9205658 85.193148,32.0075395 C80.0438852,48.0849079 77.8423141,50.4774079 75.2316276,60.3064868 C73.0300565,68.60425 74.5105247,75.4503026 83.3285821,75.1897763 C90.1201934,74.9885921 96.8720705,67.6475395 101.501845,60.0546447 C100.094959,67.6547763 101.666668,73.7206974 110.759922,73.3501711 C122.550689,72.8696447 130.569647,58.5088553 133.892607,49.3166184 C133.181805,48.8114868 132.535756,48.2513553 131.995665,47.6029342 Z" id="Stroke-15" stroke="#E73825" stroke-width="0.95"></path>
                    <path d="M224.839566,35.9970658 C224.839566,35.9970658 222.92055,40.8095658 219.041311,45.6611447 C218.976559,45.7479868 218.910335,45.8275921 218.844112,45.9100921 C218.786718,45.9795658 218.733739,46.0504868 218.676345,46.1199605 L218.676345,46.1170658 C216.083318,49.1623289 212.803036,48.9495658 213.218038,42.6650921 C213.711037,35.5758816 219.890446,26.7512763 224.202347,27.3374605 C228.127207,27.9685132 226.308262,33.8187763 224.839566,35.9970658 M191.428959,38.0175921 C183.836777,46.0056184 174.55221,48.9408816 168.0667,49.4445658 C171.741381,40.5721974 176.943623,30.9153553 183.816174,21.3381184 C184.547578,20.3177237 184.088427,18.8964079 182.880212,18.5085132 C181.178998,17.9643026 178.931806,17.2869342 177.35421,16.9728553 C181.195186,16.1406184 188.189883,14.2966711 191.970522,15.8337763 C191.970522,15.8337763 208.995907,19.7243026 191.428959,38.0175921 M272.963614,14.5470658 C270.854757,14.6353553 270.601635,17.1364079 269.964415,20.3770658 C269.378703,23.3818026 267.79522,29.90075 265.606894,37.2620658 C263.461245,40.3681184 261.115453,43.1094342 259.024255,43.3496974 C250.961148,44.2760132 258.880035,27.6023289 260.875576,22.5814079 C262.080848,17.49825 256.878606,16.7036447 253.19951,16.8194342 C252.181137,16.8585132 251.401168,17.5662763 251.121557,18.5258816 C248.478494,30.2177237 246.85822,33.7478553 245.532274,39.4924605 C243.42636,42.6839079 241.033476,45.4946974 238.88194,45.7421974 C230.820305,46.6699605 238.730361,29.9181184 240.727375,24.8986447 C241.938533,19.8893026 236.737763,19.0975921 233.058667,19.2104868 C232.043237,19.2510132 231.251495,19.8820658 230.983657,20.9169342 C230.890944,21.4683816 230.721705,22.0299605 230.621634,22.5046974 C229.086715,20.8271974 226.779186,19.9327237 223.214878,20.3423289 C218.146555,20.9241711 213.728696,24.3110132 210.290949,28.8774605 C214.561644,13.4021974 205.443372,-0.567802632 181.92659,2.41377632 C141.378537,7.54614474 120.734393,48.1043026 144.727986,48.6296974 C145.150346,48.60075 136.336704,36.58325 169.433852,20.6289079 C152.274548,44.7087763 125.018333,103.949566 158.701193,103.761855 C159.038198,103.73825 159.376675,103.716539 159.612137,103.451671 C159.853486,103.269303 160.090419,103.004434 159.98299,102.677329 C158.785076,94.9281184 158.989634,78.1791711 163.016037,63.7619342 C182.697729,60.6703553 196.503169,51.4665395 204.186593,41.0802237 C201.047588,51.3493026 202.379421,61.3737763 210.535241,60.4373289 C211.697835,60.3027237 217.775702,60.5328553 224.225893,49.3577237 C224.094917,54.8606184 226.425993,58.61075 232.627477,57.8971974 C237.07624,57.4253553 241.192413,53.3177237 244.396169,48.3402237 C244.668423,53.0760132 247.06425,56.2385132 252.775679,55.5814079 C255.720427,55.2427237 258.554803,53.2945658 261.063946,50.6111447 C257.258289,60.2433816 252.738888,68.4904868 248.251862,69.0839079 C243.688311,69.6860132 240.996685,64.8952237 247.489553,59.3575921 C227.478214,60.8845658 229.484057,83.0640395 249.018586,80.8191711 C260.722526,79.4745658 265.433241,72.8268026 268.133697,64.4812763 C271.209421,55.3179868 279.797903,26.4343026 280.742695,19.8343026 C281.43878,15.1173289 276.479359,14.3748289 272.963614,14.5470658" id="Fill-17" fill="#FFFFFF"></path>
                    <path d="M224.839566,35.9970658 C224.839566,35.9970658 222.92055,40.8095658 219.041311,45.6611447 C218.976559,45.7479868 218.910335,45.8275921 218.844112,45.9100921 C218.786718,45.9795658 218.733739,46.0504868 218.676345,46.1199605 L218.676345,46.1170658 C216.083318,49.1623289 212.803036,48.9495658 213.218038,42.6650921 C213.711037,35.5758816 219.890446,26.7512763 224.202347,27.3374605 C228.127207,27.9685132 226.308262,33.8187763 224.839566,35.9970658 Z M191.428959,38.0175921 C183.836777,46.0056184 174.55221,48.9408816 168.0667,49.4445658 C171.741381,40.5721974 176.943623,30.9153553 183.816174,21.3381184 C184.547578,20.3177237 184.088427,18.8964079 182.880212,18.5085132 C181.178998,17.9643026 178.931806,17.2869342 177.35421,16.9728553 C181.195186,16.1406184 188.189883,14.2966711 191.970522,15.8337763 C191.970522,15.8337763 208.995907,19.7243026 191.428959,38.0175921 Z M272.963614,14.5470658 C270.854757,14.6353553 270.601635,17.1364079 269.964415,20.3770658 C269.378703,23.3818026 267.79522,29.90075 265.606894,37.2620658 C263.461245,40.3681184 261.115453,43.1094342 259.024255,43.3496974 C250.961148,44.2760132 258.880035,27.6023289 260.875576,22.5814079 C262.080848,17.49825 256.878606,16.7036447 253.19951,16.8194342 C252.181137,16.8585132 251.401168,17.5662763 251.121557,18.5258816 C248.478494,30.2177237 246.85822,33.7478553 245.532274,39.4924605 C243.42636,42.6839079 241.033476,45.4946974 238.88194,45.7421974 C230.820305,46.6699605 238.730361,29.9181184 240.727375,24.8986447 C241.938533,19.8893026 236.737763,19.0975921 233.058667,19.2104868 C232.043237,19.2510132 231.251495,19.8820658 230.983657,20.9169342 C230.890944,21.4683816 230.721705,22.0299605 230.621634,22.5046974 C229.086715,20.8271974 226.779186,19.9327237 223.214878,20.3423289 C218.146555,20.9241711 213.728696,24.3110132 210.290949,28.8774605 C214.561644,13.4021974 205.443372,-0.567802632 181.92659,2.41377632 C141.378537,7.54614474 120.734393,48.1043026 144.727986,48.6296974 C145.150346,48.60075 136.336704,36.58325 169.433852,20.6289079 C152.274548,44.7087763 125.018333,103.949566 158.701193,103.761855 C159.038198,103.73825 159.376675,103.716539 159.612137,103.451671 C159.853486,103.269303 160.090419,103.004434 159.98299,102.677329 C158.785076,94.9281184 158.989634,78.1791711 163.016037,63.7619342 C182.697729,60.6703553 196.503169,51.4665395 204.186593,41.0802237 C201.047588,51.3493026 202.379421,61.3737763 210.535241,60.4373289 C211.697835,60.3027237 217.775702,60.5328553 224.225893,49.3577237 C224.094917,54.8606184 226.425993,58.61075 232.627477,57.8971974 C237.07624,57.4253553 241.192413,53.3177237 244.396169,48.3402237 C244.668423,53.0760132 247.06425,56.2385132 252.775679,55.5814079 C255.720427,55.2427237 258.554803,53.2945658 261.063946,50.6111447 C257.258289,60.2433816 252.738888,68.4904868 248.251862,69.0839079 C243.688311,69.6860132 240.996685,64.8952237 247.489553,59.3575921 C227.478214,60.8845658 229.484057,83.0640395 249.018586,80.8191711 C260.722526,79.4745658 265.433241,72.8268026 268.133697,64.4812763 C271.209421,55.3179868 279.797903,26.4343026 280.742695,19.8343026 C281.43878,15.1173289 276.479359,14.3748289 272.963614,14.5470658 Z" id="Stroke-19" stroke="#E73825" stroke-width="0.95"></path>
                </g>
            </g>
        </g>
    </g>
</svg>