<?xml version="1.0" encoding="UTF-8"?>
<svg width="166px" height="166px" viewBox="0 0 166 166" version="1.1" xmlns="http://www.w3.org/2000/svg" xmlns:xlink="http://www.w3.org/1999/xlink">
    <!-- Generator: Sketch 58 (84663) - https://sketch.com -->
    <title>app-logo</title>
    <desc>Created with Sketch.</desc>
    <g id="Page-1" stroke="none" stroke-width="1" fill="none" fill-rule="evenodd">
        <g id="Desktop-Sales-Site" transform="translate(-717.000000, -3844.000000)">
            <g id="app-logo" transform="translate(717.000000, 3844.000000)">
                <g id="Group-14">
                    <g id="Group-13">
                        <path d="M26.4077283,163.836186 C12.9000911,163.836186 1.91047089,152.847267 1.91047089,139.338929 L1.91047089,26.4070979 C1.91047089,12.8994608 12.9000911,1.91054093 26.4077283,1.91054093 L139.338859,1.91054093 C152.847197,1.91054093 163.836116,12.8994608 163.836116,26.4070979 L163.836116,139.338929 C163.836116,152.847267 152.847197,163.836186 139.338859,163.836186 L26.4077283,163.836186 Z" id="Fill-1" fill="#C0FF02"></path>
                        <path d="M139.339139,0 L26.4080084,0 C11.8469367,0 0,11.8462363 0,26.407308 L0,139.339139 C0,153.900211 11.8469367,165.746447 26.4080084,165.746447 L139.339139,165.746447 C153.900211,165.746447 165.746447,153.900211 165.746447,139.339139 L165.746447,26.407308 C165.746447,11.8462363 153.900211,0 139.339139,0 M139.339139,3.82080169 C151.761823,3.82080169 161.925646,13.9846245 161.925646,26.407308 L161.925646,139.339139 C161.925646,151.761823 151.761823,161.925646 139.339139,161.925646 L26.4080084,161.925646 C13.9846245,161.925646 3.82150211,151.761823 3.82150211,139.339139 L3.82150211,26.407308 C3.82150211,13.9846245 13.9846245,3.82080169 26.4080084,3.82080169 L139.339139,3.82080169" id="Fill-3" fill="#FFFFFF"></path>
                        <path d="M59.2468008,36.3152667 C59.8967924,35.4201274 59.4968515,34.1530641 58.4497207,33.7965494 C56.9634253,33.2908447 55.000843,32.6611654 53.6210118,32.3627857 C56.997746,31.6651654 63.1544549,30.1004228 66.4527418,31.5145747 C66.4527418,31.5145747 81.3395097,35.1784819 65.7194,51.2909882 C58.9687333,58.3267266 50.7906068,60.8384397 45.0968768,61.2131654 C48.4252819,53.3397224 53.1034,44.7819671 59.2468008,36.3152667 M27.0953325,106.577393 C29.0943367,101.565174 32.2665477,95.8602371 37.4069443,90.9355705 C37.9238557,85.4148447 38.8995435,79.4703637 40.5021089,73.9230219 C89.7613831,66.7142793 97.9927418,14.7814945 57.7997291,19.4322962 C22.1769696,23.5451738 3.6003789,59.4782203 24.6389527,60.2192667 C25.0080751,60.1996549 17.4176025,49.3823384 46.6308008,35.5328954 C33.5441173,53.697638 14.2355857,94.8572329 27.0953325,106.577393 M137.830641,36.0715198 C137.887375,37.258735 136.321932,38.1720852 135.384767,37.5872329 C132.207653,35.4992751 126.862733,36.3825072 120.986193,37.8505916 C119.58605,42.2548447 117.621366,46.5449291 116.361307,49.4733932 C112.703704,57.9022709 107.737012,68.2117814 112.761839,67.9729376 C116.043316,67.8174439 121.9934,60.5386591 124.463088,56.5742709 C124.852522,55.9256802 125.852725,56.3676464 125.676219,57.0764734 C123.773873,64.1619418 116.934953,79.2469291 106.116235,79.7610388 C98.5089527,80.1217561 97.3336447,74.819562 98.6035097,68.2776211 C95.3528515,73.5924228 91.1902439,78.5745241 86.7733831,80.4173342 C84.0410371,78.0457055 80.2629612,76.2379165 76.1227671,75.6747772 C75.7620498,73.6687688 75.9525646,71.7510135 76.6186658,69.1349376 C78.6982186,60.9778236 80.480092,58.9865241 84.5964717,45.639984 C84.9354759,44.7378405 85.729054,44.1158658 86.6942354,44.1557899 C90.184438,44.3266928 95.0460667,45.4865916 93.5142439,50.2872835 C91.2350709,54.9654017 82.4482776,70.4083046 90.1494169,70.1309376 C93.6305139,70.005562 99.1561426,62.1874523 101.825451,58.0864819 C101.835957,58.0703722 101.850666,58.0619671 101.861873,58.0465578 C103.748809,53.4342793 105.854978,49.2856802 106.872691,47.0555367 C107.956244,44.8358996 108.903915,42.691908 109.721307,40.7643468 C107.669771,41.2469376 104.387594,41.651081 102.097915,38.1524734 C102.383687,37.2027013 102.529375,36.1940937 102.491552,35.1490641 C102.420109,33.1626675 101.711282,31.3492751 100.575898,29.8818911 C100.577999,29.8685831 100.5794,29.8629797 100.582202,29.8496717 C101.14324,29.5099671 101.798835,29.385292 102.399797,29.7235958 C107.278936,32.2899418 109.44394,30.8575789 112.777949,29.9855536 C112.868303,27.4633342 112.146868,25.5385747 110.202497,24.3716717 C111.332978,23.1284228 112.745729,21.941908 114.491181,21.8592582 C119.93486,21.6008025 122.085155,24.1573426 122.473189,27.9165072 C130.733265,26.545081 137.271003,27.213984 137.830641,36.0715198 M98.7428937,35.4180262 C98.8654675,38.8332835 96.0665814,41.6629882 92.5805814,41.5067941 C89.8832565,41.3863215 87.5858726,39.3845156 87.0822692,36.7320177 C86.4070624,33.1738743 89.1015857,29.9400262 92.6527249,29.8118489 C95.9061848,29.6948785 98.6280245,32.2276042 98.7428937,35.4180262 M100.537375,96.0080262 C96.9911384,95.9190726 92.8061173,103.748389 93.0638726,109.629832 C93.3118219,114.841672 95.9874338,114.717697 97.8043283,111.973444 L97.8043283,111.976246 C97.8456532,111.911807 97.8834759,111.847368 97.9248008,111.782229 C97.9689274,111.710085 98.0151553,111.640743 98.0585814,111.565798 C100.749603,107.216178 101.856269,103.079486 101.856269,103.079486 C102.843864,101.151224 103.774024,96.1691232 100.537375,96.0080262 M44.5225308,162.483672 C32.6447755,152.148946 45.8295181,113.376389 55.5786911,95.4897139 C30.2598388,111.646347 38.5115097,120.736423 38.1732059,120.797359 C18.6951722,122.556119 31.6480751,87.2786675 64.0047671,79.3526928 C82.7704717,74.7509207 91.4486996,85.4211485 89.4279823,98.5512582 C91.7877038,94.4776042 95.0509696,91.2871823 99.1001089,90.3451148 C101.949425,89.6818152 103.9001,90.2071316 105.298843,91.4489797 C105.335965,91.0483384 105.421417,90.5713511 105.44383,90.1090726 C105.566404,89.2321443 106.146354,88.6402878 106.966548,88.5149122 C109.934235,88.0855536 114.220117,88.2634608 113.703906,92.496811 C112.552413,96.8121105 107.702691,111.325554 114.144472,109.826651 C115.863307,109.42671 117.540117,106.893984 118.947265,104.074085 C119.489392,99.2236633 120.474185,96.1691232 121.529721,86.3015789 C121.666303,85.4862878 122.232944,84.8320937 123.053138,84.7067181 C126.020826,84.2773595 130.306708,84.4552667 129.803805,88.7509544 C128.653012,93.066254 123.788581,107.517359 130.231062,106.019157 C131.90297,105.629722 133.54756,103.157933 134.996033,100.405275 C136.085889,94.1442034 136.762497,88.633984 136.958615,86.1068616 C137.172944,83.3808194 137.145628,81.2977646 138.846953,81.0323046 C141.677358,80.5700262 145.762219,80.7290219 145.635442,84.6758996 C145.48275,90.1952245 141.208776,114.759722 139.569088,122.584136 C138.156337,129.703224 134.959611,135.60498 125.606877,137.78049 C109.998674,141.412178 106.315155,123.334988 122.377231,120.25103 C117.633974,125.401933 120.257054,129.101562 123.897847,128.188912 C127.474902,127.290971 130.370446,120.088532 132.557164,111.810946 C130.77459,114.249815 128.661417,116.112237 126.307999,116.659267 C121.74405,117.721807 119.510404,115.33687 118.850607,111.462136 C116.717822,115.853081 113.766944,119.609444 110.2074,120.405123 C105.252615,121.558018 103.016168,118.683486 102.612024,114.14125 C98.426303,123.930347 93.4841257,124.295967 92.5553662,124.511697 C86.0379401,126.028111 84.02913,117.896912 85.6176869,109.155646 C80.3603198,118.40822 70.0354,127.246144 54.386573,131.587359 C52.5983958,142.963613 53.6735435,155.698684 55.189957,162.472465 C55.189957,162.472465 54.7753072,162.483672 44.5225308,162.483672 M67.2855435,94.7409629 C62.6060245,103.258094 59.2874253,111.688372 57.1329274,119.332077 C62.3377629,118.32557 69.5843283,115.061604 74.9901848,107.793326 C87.5172312,91.1281865 73.3708093,89.4793932 73.3708093,89.4793932 C70.1663789,88.5583384 64.6729696,90.7149376 61.6415435,91.7508616 C62.94713,91.8657308 64.8305646,92.218043 66.2587249,92.5115198 C67.2652312,92.7181443 67.7807418,93.8402203 67.2855435,94.7409629" id="Fill-5" fill="#FFFFFF"></path>
                        <polygon id="Fill-9" fill="#FFFFFF" points="148.019188 82.5981679 148.019188 79.9568768 147.245222 79.9568768 147.245222 79.1394844 149.736623 79.1394844 149.736623 79.9568768 148.961956 79.9568768 148.961956 82.5981679"></polygon>
                        <path d="M154.16357,82.5981679 L153.282439,82.5981679 L153.079316,81.1027671 C153.065308,80.9970034 153.052,80.8800329 153.040093,80.7504549 C153.028886,80.6215772 153.017679,80.4807924 153.009274,80.3281004 C152.98616,80.4744886 152.943435,80.6572987 152.878996,80.8758304 C152.864987,80.9213578 152.854481,80.9556785 152.848177,80.9773916 L152.377494,82.5981679 L151.749916,82.5981679 L151.279232,80.9773916 C151.272928,80.9556785 151.263122,80.9213578 151.251215,80.8758304 C151.184675,80.6572987 151.141949,80.475189 151.120937,80.3302017 C151.111831,80.4611806 151.100624,80.5907586 151.088017,80.7189359 C151.075409,80.8471131 151.06,80.9752903 151.04319,81.1027671 L150.840068,82.5981679 L149.96384,82.5981679 L150.497561,79.1394844 L151.431224,79.1394844 L151.953038,80.9227586 C151.95584,80.9360667 151.962143,80.9563789 151.971249,80.9843958 C152.020278,81.1433916 152.051097,81.2799738 152.063705,81.3934422 C152.070008,81.3318051 152.081916,81.2638641 152.099426,81.188919 C152.116236,81.1139738 152.140051,81.0236194 152.170169,80.9185561 L152.696886,79.1394844 L153.63265,79.1394844 L154.16357,82.5981679 Z" id="Fill-11" fill="#FFFFFF"></path>
                    </g>
                </g>
            </g>
        </g>
    </g>
</svg>