<?xml version="1.0" encoding="UTF-8"?>
<svg width="27px" height="40px" viewBox="0 0 27 40" version="1.1" xmlns="http://www.w3.org/2000/svg" xmlns:xlink="http://www.w3.org/1999/xlink">
    <!-- Generator: Sketch 58 (84663) - https://sketch.com -->
    <title>Group 8</title>
    <desc>Created with Sketch.</desc>
    <g id="Page-1" stroke="none" stroke-width="1" fill="none" fill-rule="evenodd">
        <g id="Desktop-Sales-Site" transform="translate(-1078.000000, -3188.000000)" fill="#C0FF02" fill-rule="nonzero">
            <g id="features_02" transform="translate(140.000000, 2635.000000)">
                <g id="Features">
                    <g id="Right-col" transform="translate(930.000000, 0.000000)">
                        <g id="Feature">
                            <g id="Group-5">
                                <g id="Group-8" transform="translate(8.000000, 553.000000)">
                                    <path d="M8,13.625 L8,17.375 C8,17.7207641 8.33618169,18 8.75,18 L13.25,18 C13.6638183,18 14,17.7207641 14,17.375 L14,13.625 C14,13.2792359 13.6638183,13 13.25,13 L8.75,13 C8.33618169,13 8,13.2792359 8,13.625 Z M9.5,14.25 L12.5,14.25 L12.5,16.75 L9.5,16.75 L9.5,14.25 Z" id="Shape"></path>
                                    <path d="M24,13.625 C24,13.2792359 23.6638183,13 23.25,13 L18.75,13 C18.3361817,13 18,13.2792359 18,13.625 L18,17.375 C18,17.7207641 18.3361817,18 18.75,18 L23.25,18 C23.6638183,18 24,17.7207641 24,17.375 L24,13.625 Z M22.5,16.75 L19.5,16.75 L19.5,14.25 L22.5,14.25 L22.5,16.75 Z" id="Shape"></path>
                                    <path d="M14,26.375 L14,22.625 C14,22.2792359 13.6638183,22 13.25,22 L8.75,22 C8.33618169,22 8,22.2792359 8,22.625 L8,26.375 C8,26.7207641 8.33618169,27 8.75,27 L13.25,27 C13.6638183,27 14,26.7207641 14,26.375 Z M12.5,25.75 L9.5,25.75 L9.5,23.25 L12.5,23.25 L12.5,25.75 Z" id="Shape"></path>
                                    <polygon id="Path" points="24 19.3636364 16.7272727 19.3636364 16.7272727 13 15.2727273 13 15.2727273 19.3636364 8 19.3636364 8 20.6363636 15.2727273 20.6363636 15.2727273 27 16.7272727 27 16.7272727 20.6363636 24 20.6363636"></polygon>
                                    <path d="M24,22 L18.75,22 C18.3361817,22 18,22.2792359 18,22.625 L18,27 L19.5,27 L19.5,23.25 L24,23.25 L24,22 Z" id="Path"></path>
                                    <polygon id="Path" points="22 24 23 24 23 27 22 27"></polygon>
                                    <path d="M27,15.483871 L27,10.9677419 C27,10.6108241 26.6815121,10.3225806 26.2894737,10.3225806 L24.1578947,10.3225806 L24.1578947,3.22580645 C24.1578947,1.44720258 22.5640677,0 20.6052632,0 L3.55263158,0 C1.59382705,0 0,1.44720258 0,3.22580645 L0,36.7741935 C0,38.5527974 1.59382705,40 3.55263158,40 L20.6052632,40 C22.5640677,40 24.1578947,38.5527974 24.1578947,36.7741935 L24.1578947,29.6774194 L26.2894737,29.6774194 C26.6815121,29.6774194 27,29.3891759 27,29.0322581 L27,24.516129 L25.5789474,24.516129 L25.5789474,28.3870968 L21.3157895,28.3870968 L21.3157895,29.6774194 L22.7368421,29.6774194 L22.7368421,36.7741935 C22.7368421,37.8411669 21.7803377,38.7096774 20.6052632,38.7096774 L19.8947368,38.7096774 L19.8947368,38.0645161 C19.8947368,36.9975428 18.9382324,36.1290323 17.7631579,36.1290323 L6.39473684,36.1290323 C5.21966229,36.1290323 4.26315789,36.9975428 4.26315789,38.0645161 L4.26315789,38.7096774 L3.55263158,38.7096774 C2.37755703,38.7096774 1.42105263,37.8411669 1.42105263,36.7741935 L1.42105263,3.22580645 C1.42105263,2.42723032 1.95672286,1.74080145 2.71859581,1.4453125 L6.60289885,4.97227823 C6.73577562,5.09356097 6.91687652,5.16129032 7.10526316,5.16129032 L17.0526316,5.16129032 C17.2410182,5.16129032 17.4221191,5.09356097 17.5549959,4.97227823 L21.4392989,1.4453125 C22.2011719,1.74080145 22.7368421,2.42723032 22.7368421,3.22580645 L22.7368421,10.3225806 L21.3157895,10.3225806 L21.3157895,11.6129032 L25.5789474,11.6129032 L25.5789474,15.483871 L27,15.483871 Z M5.68421053,38.0645161 C5.68421053,37.7085434 6.00339227,37.4193548 6.39473684,37.4193548 L17.7631579,37.4193548 C18.1545025,37.4193548 18.4736842,37.7085434 18.4736842,38.0645161 L18.4736842,38.7096774 L5.68421053,38.7096774 L5.68421053,38.0645161 Z M16.7584293,3.87096774 L7.39946546,3.87096774 L4.5573602,1.29032258 L19.6005345,1.29032258 L16.7584293,3.87096774 Z" id="Shape"></path>
                                    <path d="M6,10.625 L6,15 L7.5,15 L7.5,11.25 L12,11.25 L12,10 L6.75,10 C6.33618169,10 6,10.2792359 6,10.625 Z" id="Path"></path>
                                    <path d="M6,29.375 C6,29.7207641 6.33618169,30 6.75,30 L12,30 L12,28.75 L7.5,28.75 L7.5,25 L6,25 L6,29.375 Z" id="Path"></path>
                                </g>
                            </g>
                        </g>
                    </g>
                </g>
            </g>
        </g>
    </g>
</svg>