<?xml version="1.0" encoding="UTF-8"?>
<svg width="40px" height="40px" viewBox="0 0 40 40" version="1.1" xmlns="http://www.w3.org/2000/svg" xmlns:xlink="http://www.w3.org/1999/xlink">
    <!-- Generator: Sketch 58 (84663) - https://sketch.com -->
    <title>Group 7</title>
    <desc>Created with Sketch.</desc>
    <g id="Page-1" stroke="none" stroke-width="1" fill="none" fill-rule="evenodd">
        <g id="Desktop-Sales-Site" transform="translate(-1078.000000, -3010.000000)" fill="#C0FF02" fill-rule="nonzero">
            <g id="features_02" transform="translate(140.000000, 2635.000000)">
                <g id="Features">
                    <g id="Right-col" transform="translate(930.000000, 0.000000)">
                        <g id="Feature">
                            <g id="Group-5">
                                <g id="Group-7" transform="translate(8.000000, 375.000000)">
                                    <path d="M4,7.33333333 L8,7.33333333 C8.3681898,7.33333333 8.66666667,7.03485647 8.66666667,6.66666667 C8.66666667,6.29847683 8.3681898,6 8,6 L4,6 C3.63181017,6 3.33333333,6.29847683 3.33333333,6.66666667 C3.33333333,7.03485647 3.63181017,7.33333333 4,7.33333333 Z" id="Shape"></path>
                                    <path d="M11.3333333,7.33333333 L17.3333333,7.33333333 C17.7015231,7.33333333 18,7.03485647 18,6.66666667 C18,6.29847683 17.7015231,6 17.3333333,6 L11.3333333,6 C10.9651435,6 10.6666667,6.29847683 10.6666667,6.66666667 C10.6666667,7.03485647 10.9651435,7.33333333 11.3333333,7.33333333 Z" id="Shape"></path>
                                    <path d="M4,14.6666667 L25.3333333,14.6666667 C25.7015231,14.6666667 26,14.3681898 26,14 C26,13.6318102 25.7015231,13.3333333 25.3333333,13.3333333 L4,13.3333333 C3.63181017,13.3333333 3.33333333,13.6318102 3.33333333,14 C3.33333333,14.3681898 3.63181017,14.6666667 4,14.6666667 Z" id="Shape"></path>
                                    <path d="M4,17.3333333 L13.3333333,17.3333333 C13.7015231,17.3333333 14,17.0348565 14,16.6666667 C14,16.2984769 13.7015231,16 13.3333333,16 L4,16 C3.63181017,16 3.33333333,16.2984769 3.33333333,16.6666667 C3.33333333,17.0348565 3.63181017,17.3333333 4,17.3333333 Z" id="Shape"></path>
                                    <path d="M4,22.6666667 L13.3333333,22.6666667 C13.7015231,22.6666667 14,22.3681898 14,22 C14,21.6318102 13.7015231,21.3333333 13.3333333,21.3333333 L4,21.3333333 C3.63181017,21.3333333 3.33333333,21.6318102 3.33333333,22 C3.33333333,22.3681898 3.63181017,22.6666667 4,22.6666667 Z" id="Shape"></path>
                                    <path d="M4,28 L13.3333333,28 C13.7015231,28 14,27.7015231 14,27.3333333 C14,26.9651435 13.7015231,26.6666667 13.3333333,26.6666667 L4,26.6666667 C3.63181017,26.6666667 3.33333333,26.9651435 3.33333333,27.3333333 C3.33333333,27.7015231 3.63181017,28 4,28 Z" id="Shape"></path>
                                    <path d="M4,33.3333333 L13.3333333,33.3333333 C13.7015231,33.3333333 14,33.0348565 14,32.6666667 C14,32.2984769 13.7015231,32 13.3333333,32 L4,32 C3.63181017,32 3.33333333,32.2984769 3.33333333,32.6666667 C3.33333333,33.0348565 3.63181017,33.3333333 4,33.3333333 Z" id="Shape"></path>
                                    <path d="M39.6,19.42 L32,16.138 L32,2 C32,0.8954305 31.1045695,1.0658141e-13 30,1.0658141e-13 L4.66666667,1.0658141e-13 C3.56209717,1.0658141e-13 2.66666667,0.8954305 2.66666667,2 L2.66666667,2.66666667 L2,2.66666667 C0.8954305,2.66666667 -1.49213975e-13,3.56209717 -1.49213975e-13,4.66666667 L-1.49213975e-13,38 C-1.49213975e-13,39.1045695 0.8954305,40.0000103 2,40.0000103 L27.3333333,40.0000103 C27.8726873,39.9987905 28.3885621,39.779213 28.7633333,39.3913333 L29.31,39.78 C29.7232323,40.0733471 30.2767677,40.0733471 30.69,39.78 L37.14,35.1886667 C38.9280189,33.9196165 39.993187,31.8652572 40,29.6726667 L40,20.032 C40,19.7665593 39.8432808,19.5261761 39.6,19.42 Z M4,2 C4,1.63181017 4.29847683,1.33333333 4.66666667,1.33333333 L30,1.33333333 C30.3681898,1.33333333 30.6666667,1.63181017 30.6666667,2 L30.6666667,15.562 L30.2666667,15.388 C30.0981672,15.3153338 29.9071661,15.3153338 29.7386667,15.388 L29.3386667,15.562 L29.3386667,11.3333333 C29.3386667,11.3186667 29.3313333,11.3046667 29.33,11.29 C29.326694,11.234151 29.3159319,11.1789952 29.298,11.126 C29.2933333,11.1106667 29.294,11.0946667 29.288,11.08 C29.282,11.0653333 29.2773333,11.0653333 29.274,11.0573333 C29.2415522,10.9847962 29.1963974,10.9186444 29.1406667,10.862 L21.1406667,2.862 C21.0840223,2.8062693 21.0178705,2.76111447 20.9453333,2.72866667 C20.9366667,2.72466667 20.9306667,2.718 20.9226667,2.71466667 C20.9146667,2.71133333 20.892,2.70933333 20.8773333,2.70466667 C20.8236118,2.68677235 20.7678294,2.67579509 20.7113333,2.672 C20.6946667,2.674 20.6813333,2.66666667 20.6666667,2.66666667 L4,2.66666667 L4,2 Z M21.3333333,4.94266667 L27.0573333,10.6666667 L22,10.6666667 C21.6318102,10.6666667 21.3333333,10.3681898 21.3333333,10 L21.3333333,4.94266667 Z M27.3333333,38.6666667 L2,38.6666667 C1.63181017,38.6666667 1.33333333,38.3681898 1.33333333,38 L1.33333333,4.66666667 C1.33333333,4.29847683 1.63181017,4 2,4 L20,4 L20,10 C20,11.1045695 20.8954305,12 22,12 L28,12 L28,16.138 L25.854,17.0666667 C25.9461067,16.9534563 25.9975223,16.8125917 26,16.6666667 C26,16.2984769 25.7015231,16 25.3333333,16 L16,16 C15.6318102,16 15.3333333,16.2984769 15.3333333,16.6666667 C15.3333333,17.0348565 15.6318102,17.3333333 16,17.3333333 L25.2326667,17.3333333 L22.146,18.6666667 L4,18.6666667 C3.63181017,18.6666667 3.33333333,18.9651435 3.33333333,19.3333333 C3.33333333,19.7015231 3.63181017,20 4,20 L20.0046667,20 C20.0046667,20.0106667 20,20.0206667 20,20.032 L20,21.3333333 L16,21.3333333 C15.6318102,21.3333333 15.3333333,21.6318102 15.3333333,22 C15.3333333,22.3681898 15.6318102,22.6666667 16,22.6666667 L20,22.6666667 L20,24 L4,24 C3.63181017,24 3.33333333,24.2984769 3.33333333,24.6666667 C3.33333333,25.0348565 3.63181017,25.3333333 4,25.3333333 L20,25.3333333 L20,26.6666667 L16,26.6666667 C15.6318102,26.6666667 15.3333333,26.9651435 15.3333333,27.3333333 C15.3333333,27.7015231 15.6318102,28 16,28 L20,28 L20,29.3333333 L4,29.3333333 C3.63181017,29.3333333 3.33333333,29.6318102 3.33333333,30 C3.33333333,30.3681898 3.63181017,30.6666667 4,30.6666667 L20.0833333,30.6666667 C20.1496217,31.12153 20.2626647,31.5683401 20.4206667,32 L16,32 C15.6318102,32 15.3333333,32.2984769 15.3333333,32.6666667 C15.3333333,33.0348565 15.6318102,33.3333333 16,33.3333333 L21.094,33.3333333 C21.4090519,33.8238348 21.7856763,34.2719305 22.2146667,34.6666667 L4,34.6666667 C3.63181017,34.6666667 3.33333333,34.9651435 3.33333333,35.3333333 C3.33333333,35.7015231 3.63181017,36 4,36 L24,36 L27.632,38.5853333 C27.5404367,38.6360754 27.4379821,38.663976 27.3333333,38.6666667 Z M38.6666667,29.6726667 C38.6601759,31.4337191 37.8038548,33.083298 36.3673333,34.102 L30,38.6346667 L23.6326667,34.1013333 C22.1963361,33.082768 21.3400389,31.4334835 21.3333333,29.6726667 L21.3333333,20.4726667 L22.54,19.9513333 L22.5526667,19.946 L30,16.726 L38.6666667,20.47 L38.6666667,29.6726667 Z" id="Shape"></path>
                                    <path d="M29.7333333,18.2926667 L23.0666667,21.1726667 C22.8233859,21.2788427 22.6662727,21.519226 22.6666659,21.7846667 L22.6666659,29.6726667 C22.672724,31.002208 23.3202229,32.2470545 24.4053333,33.0153333 L29.6133333,36.7226667 C29.8447762,36.887452 30.1552238,36.887452 30.3866667,36.7226667 L35.5946667,33.0153333 C36.6796055,32.2469049 37.3270549,31.0021535 37.3333341,29.6726667 L37.3333341,21.7846667 C37.3337273,21.519226 37.1766141,21.2788427 36.9333333,21.1726667 L30.2666667,18.2926667 C30.096633,18.2184579 29.903367,18.2184579 29.7333333,18.2926667 Z M36,22.226 L36,29.6726667 C35.9951315,30.5724807 35.5558641,31.4145136 34.8206667,31.9333333 L30,35.3613333 L25.1793333,31.9293333 C24.4450231,31.4115577 24.0058254,30.5711483 24,29.6726667 L24,22.2226667 L30,19.6313333 L36,22.226 Z" id="Shape"></path>
                                    <path d="M26.4,28.1333333 C26.2094583,27.9904271 25.9571511,27.9600291 25.7381198,28.0535899 C25.5190885,28.1471506 25.3666094,28.3504561 25.3381198,28.5869232 C25.3096302,28.8233902 25.4094583,29.0570937 25.6,29.2 L28.2666667,31.2 C28.5546959,31.4161539 28.9623244,31.3644993 29.1873333,31.0833333 L34.5206667,24.4166667 C34.7507853,24.1291104 34.7042229,23.709452 34.4166667,23.4793333 C34.1291104,23.2492147 33.709452,23.2957771 33.4793333,23.5833333 L28.55,29.746 L26.4,28.1333333 Z" id="Shape"></path>
                                </g>
                            </g>
                        </g>
                    </g>
                </g>
            </g>
        </g>
    </g>
</svg>