<?xml version="1.0" encoding="UTF-8"?>
<svg width="50px" height="50px" viewBox="0 0 50 50" version="1.1" xmlns="http://www.w3.org/2000/svg" xmlns:xlink="http://www.w3.org/1999/xlink">
    <!-- Generator: Sketch 58 (84663) - https://sketch.com -->
    <title>Group 6</title>
    <desc>Created with Sketch.</desc>
    <g id="Page-1" stroke="none" stroke-width="1" fill="none" fill-rule="evenodd">
        <g id="Desktop-Sales-Site" transform="translate(-1078.000000, -2832.000000)" fill="#C0FF02" fill-rule="nonzero">
            <g id="features_02" transform="translate(140.000000, 2635.000000)">
                <g id="Features">
                    <g id="Right-col" transform="translate(930.000000, 0.000000)">
                        <g id="Feature">
                            <g id="Group-5">
                                <g id="Group-6" transform="translate(8.000000, 197.000000)">
                                    <path d="M35.483871,21.7741935 L35.483871,23.3870968 L34.0611612,23.3870968 C33.0066311,23.3870968 31.9501323,23.1370495 31.0054656,22.6653069 L29.0322581,21.6789 L29.0322581,4.03225806 C29.0322581,1.80900323 27.2232548,0 25,0 L4.03225806,0 C1.80900323,0 0,1.80900323 0,4.03225806 L0,45.9677419 C0,48.1909968 1.80900323,50 4.03225806,50 L25,50 C27.2232548,50 29.0322581,48.1909968 29.0322581,45.9677419 L29.0322581,36.0871346 C29.7146705,35.9378938 30.3805444,35.711473 31.0054656,35.3984218 C31.9501323,34.9274666 33.0066311,34.6774194 34.0611612,34.6774194 L35.483871,34.6774194 L35.483871,36.2903226 L50,36.2903226 L50,21.7741935 L35.483871,21.7741935 Z M26.1667559,20.245952 C25.1799552,19.7525516 24.0927419,19.4694273 22.9929278,19.3894909 L25.7048577,9.35491744 C25.7725869,9.10487016 25.8064516,8.84694748 25.8064516,8.58705585 C25.8064516,8.4078881 25.784794,8.23462702 25.7532919,8.06451613 L27.4193548,8.06451613 L27.4193548,20.8724484 L26.1667559,20.245952 Z M20.8224389,27.4193548 L22.5806452,27.4193548 C23.0248236,27.4193548 23.3870968,27.7808405 23.3870968,28.2258065 C23.3870968,28.6707724 23.0248236,29.0322581 22.5806452,29.0322581 L20.386136,29.0322581 L20.8224389,27.4193548 Z M18.7161353,29.0322581 L15.7009986,29.0322581 L19.1063665,16.4322391 L21.8726373,17.3540669 L18.7161353,29.0322581 Z M10.2113785,31.097609 C9.88533266,30.824329 9.67741935,30.4258285 9.67741935,29.9773185 C9.67741935,29.58945 9.83453569,29.2098507 10.1097845,28.9346018 L15.5178931,23.5257056 L14.0298166,29.0322581 L13.7096774,29.0322581 C12.203881,29.0322581 10.9040291,29.8717868 10.2113785,31.097609 Z M21.3201708,8.24013992 C21.4757119,7.66207782 22.0041583,7.25806452 22.6030903,7.25806452 L22.8645571,7.25806452 C23.5977665,7.25806452 24.1935484,7.85384637 24.1935484,8.58705585 C24.1935484,8.70479456 24.1781911,8.82095827 24.1474767,8.93475927 L23.1594948,12.5885994 L20.3936177,11.6667717 L21.3201708,8.24013992 Z M19.972672,13.2257277 L22.738549,14.1475554 L22.2935831,15.7943234 L19.5273123,14.8724956 L19.972672,13.2257277 Z M4.03225806,1.61290323 L25,1.61290323 C26.3337166,1.61290323 27.4193548,2.69854143 27.4193548,4.03225806 L27.4193548,6.4516129 L24.8759608,6.4516129 C24.3490896,5.95466855 23.6434445,5.64516129 22.8645571,5.64516129 L22.6030903,5.64516129 C21.8356225,5.64516129 21.1276147,5.95073085 20.594443,6.4516129 L1.61290323,6.4516129 L1.61290323,4.03225806 C1.61290323,2.69854143 2.69854143,1.61290323 4.03225806,1.61290323 Z M25,48.3870968 L4.03225806,48.3870968 C2.69854143,48.3870968 1.61290323,47.3014586 1.61290323,45.9677419 L1.61290323,43.5483871 L27.4193548,43.5483871 L27.4193548,45.9677419 C27.4193548,47.3014586 26.3337166,48.3870968 25,48.3870968 Z M27.4193548,41.9354839 L1.61290323,41.9354839 L1.61290323,8.06451613 L19.6966356,8.06451613 L16.3629347,20.3999181 L14.1822077,22.5806452 L3.22580645,22.5806452 L3.22580645,24.1935484 L12.5693044,24.1935484 L10.9564012,25.8064516 L3.22580645,25.8064516 L3.22580645,27.4193548 L9.34428548,27.4193548 L8.96941149,27.7942288 C8.61777026,28.1458701 8.37402339,28.5719349 8.22596391,29.0322581 L3.22580645,29.0322581 L3.22580645,30.6451613 L8.14524002,30.6451613 C8.28306139,31.2740203 8.60792591,31.8339686 9.07573085,32.2580645 L3.22580645,32.2580645 L3.22580645,33.8709677 L9.90147742,33.8709677 C10.1814516,34.3509797 10.6961158,34.6774194 11.2903226,34.6774194 L12.5039377,34.6774194 L12.1991557,35.8055853 C12.1306389,36.0556326 12.0967742,36.3135553 12.0967742,36.5742345 C12.0967742,37.664598 12.7000378,38.6072959 13.5840631,39.1152659 L13.3304719,40.1272681 L14.8953346,40.5178931 L15.1457756,39.516129 L15.3001355,39.516129 C16.6267641,39.516129 17.7943076,38.6226531 18.140436,37.3420962 L18.7354303,35.1412865 C18.7598444,35.1507371 18.7846522,35.1574314 18.8090663,35.166882 L20.1089182,35.687059 C21.109501,36.0879222 22.1652123,36.2911101 23.2461252,36.2911101 L27.229949,36.2911101 C27.2937405,36.2911101 27.3563508,36.2812657 27.4201423,36.2796906 L27.4201423,41.9354839 L27.4193548,41.9354839 Z M15.0386688,37.9032258 C14.3054593,37.9032258 13.7096774,37.307444 13.7096774,36.5742345 C13.7096774,36.4564958 13.7250347,36.3403321 13.7557491,36.226531 L14.1743322,34.6774194 L16.2700038,34.6774194 C16.5732107,34.6774194 16.8732673,34.7049837 17.1709615,34.7443611 L16.5822675,36.921938 C16.4275139,37.4992125 15.8990675,37.9032258 15.3001355,37.9032258 L15.0386688,37.9032258 Z M34.0611612,33.0645161 C32.7581591,33.0645161 31.4524004,33.3724484 30.284857,33.9556294 C29.3401903,34.4273721 28.2836914,34.6774194 27.2291614,34.6774194 L23.2453377,34.6774194 C22.3719444,34.6774194 21.5178459,34.5128214 20.7070627,34.1887444 L19.4072108,33.6685673 C18.406628,33.2677041 17.3509167,33.0645161 16.2707913,33.0645161 L11.2903226,33.0645161 C11.2903226,31.7307995 12.3759608,30.6451613 13.7096774,30.6451613 L22.5806452,30.6451613 C23.9143618,30.6451613 25,29.5595231 25,28.2258065 C25,26.8920898 23.9143618,25.8064516 22.5806452,25.8064516 L21.2579542,25.8064516 L22.5629253,20.9783739 C23.5595704,21.0039693 24.5522776,21.2433846 25.4449659,21.6895319 L30.2836756,24.1088867 C31.4516129,24.6920677 32.7581591,25 34.0611612,25 L35.483871,25 L35.483871,33.0645161 L34.0611612,33.0645161 Z M48.3870968,34.6774194 L40.3225806,34.6774194 L40.3225806,31.4516129 L38.7096774,31.4516129 L38.7096774,34.6774194 L37.0967742,34.6774194 L37.0967742,23.3870968 L38.7096774,23.3870968 L38.7096774,29.8387097 L40.3225806,29.8387097 L40.3225806,23.3870968 L48.3870968,23.3870968 L48.3870968,34.6774194 Z" id="Shape"></path>
                                    <polygon id="Path" points="9.67741935 45.1612903 19.3548387 45.1612903 19.3548387 46.7741935 9.67741935 46.7741935"></polygon>
                                    <polygon id="Path" points="3.22580645 9.67741935 4.83870968 9.67741935 4.83870968 11.2903226 3.22580645 11.2903226"></polygon>
                                    <polygon id="Path" points="6.4516129 9.67741935 16.9354839 9.67741935 16.9354839 11.2903226 6.4516129 11.2903226"></polygon>
                                    <polygon id="Path" points="3.22580645 12.9032258 4.83870968 12.9032258 4.83870968 14.516129 3.22580645 14.516129"></polygon>
                                    <polygon id="Path" points="6.4516129 12.9032258 16.9354839 12.9032258 16.9354839 14.516129 6.4516129 14.516129"></polygon>
                                    <polygon id="Path" points="3.22580645 16.1290323 13.7096774 16.1290323 13.7096774 17.7419355 3.22580645 17.7419355"></polygon>
                                    <polygon id="Path" points="3.22580645 19.3548387 13.7096774 19.3548387 13.7096774 20.9677419 3.22580645 20.9677419"></polygon>
                                </g>
                            </g>
                        </g>
                    </g>
                </g>
            </g>
        </g>
    </g>
</svg>