<svg viewBox="0 0 461.99 193.82" xmlns="http://www.w3.org/2000/svg"><path d="m625.79 275.38a14.17 14.17 0 0 0 -5.65-7.16 16.42 16.42 0 0 0 -8.7-2.39l1.25-4.69a11.05 11.05 0 0 0 -.91-8.55 12 12 0 0 0 -7.74-5.88l-53-14.45a11.64 11.64 0 0 0 -3.27-.46h-.1a11.08 11.08 0 0 0 -5.75 1.74l-.18.1-.16.11-.32.24a10.62 10.62 0 0 0 -4.51 6.36l-13.21 49.81h-.35a18.77 18.77 0 0 0 -2.84.57c.12-.72.24-1.44.37-2.17a.86.86 0 0 1 .11-.24c.41-.72.84-1.43 1.27-2.14l.72-1.18a3.22 3.22 0 0 0 .34-3 3 3 0 0 0 -1.81-1.66c0-.22 0-.45 0-.67 0-2.07 0-4.22 0-6.36a46.92 46.92 0 0 0 -3.35-15.52c-.1-.25-.21-.49-.34-.77l-.17-.37a2.76 2.76 0 0 0 -2.43-1.64h-.06a2.79 2.79 0 0 0 -2.45 1.46l-3.26 6.08-4.71-11.62-1.29-3.19 5.43-1 1.45-.27 2.72-.51c2.48-.47 5-.93 7.43-1.38a4.18 4.18 0 0 0 3.11-2.44l5.73-12.52 1.61-3.52.52-1.13a2.75 2.75 0 0 0 .25-1.2 2.87 2.87 0 0 0 -1.24-2.32 2.94 2.94 0 0 0 -1.61-.5 2.45 2.45 0 0 0 -1 .19l-3.38 1.36-7.61 3.07-13.93 5.63-5.54 2.25-1.09-2.53q-2.71-6.27-5.41-12.53a4.46 4.46 0 0 0 -2.91-2.58 81.48 81.48 0 0 0 -14.44-3 79 79 0 0 0 -8.44-.47c-.56 0-1.12 0-1.68 0-1.3 0-2.59.12-3.84.22h-.12a4.3 4.3 0 0 0 -1.81-3.13 3.43 3.43 0 0 0 -2-.55c-2.73 0-13.57 3.1-17.31 4.2a5 5 0 0 0 -4.77 4.43 3.84 3.84 0 0 0 0 .48v.55.18l-.33.14c-1.93.81-3.92 1.65-5.86 2.59a78.72 78.72 0 0 0 -12.57 7.73v-12.06a7.29 7.29 0 0 0 -7.28-7.28h-219.74a7.29 7.29 0 0 0 -7.28 7.28v67.32l-.54.08a17.9 17.9 0 0 0 -15.05 17.71v65.42a17.9 17.9 0 0 0 15.05 17.71l116.19 17.2a17 17 0 0 0 5.07 0l116.15-17.2a17.9 17.9 0 0 0 15.05-17.71v-30.65a58.9 58.9 0 0 0 13.48 9.12c5.42 2.66 16.51 6.23 20.43 6.23a2.79 2.79 0 0 0 2.47-4.09l-.47-.87-.22-.41a61 61 0 0 0 12.61 1.35 59.15 59.15 0 0 0 29.8-8.3l-5.56 21a11.62 11.62 0 0 0 .55 8.47c1.84 4.2 5.82 5.28 7.73 5.79l53 14.47a13.15 13.15 0 0 0 3.68.53 10.59 10.59 0 0 0 5.44-1.55 10.94 10.94 0 0 0 3.41-2.87 11.14 11.14 0 0 0 2.05-4.08l3.8-14.32a12.91 12.91 0 0 0 2.2-.8 17.81 17.81 0 0 0 6.81-5.77 25.72 25.72 0 0 0 4.86-16.49q0-.32 0-.69l.38-.25a23.37 23.37 0 0 0 5.94-5.45c1.5-2 5.47-7.12 4.84-14.45-.14-1.51-1.13-9-7.67-13.59a86.33 86.33 0 0 0 9.8-6.14c8.06-5.88 13-12 14.53-18.19a17.36 17.36 0 0 0 -.37-10.27zm-114.14 59.62a2.64 2.64 0 0 0 -1.09-.69l-3.88-1.28a48.63 48.63 0 0 0 7-5.66z" fill="#ee4523" transform="translate(-164.76 -208.93)"/><path d="m79.41 93.8v-1.85h-1.85-17.96-1.85v1.85 21.75h-13.69v-21.75-1.85h-1.85-17.96-1.85v1.85 64.22 1.85h1.85 17.96 1.85v-1.85-22.98h13.69v22.98 1.85h1.85 17.96 1.85v-1.85z" fill="#0e1030"/><path d="m305.92 350.77v-32.06c0-12.82-9.49-19.06-29-19.06s-29 6.24-29 19.06v32.06c0 12.89 9.49 19.15 29 19.15s29-6.26 29-19.15zm-21.65-3.57c0 2.63-1.11 3.88-7.37 3.88s-7.36-1.25-7.36-3.88v-25.11c0-2.63 1.1-3.88 7.36-3.88s7.37 1.25 7.37 3.88z" fill="#0e1030" transform="translate(-164.76 -208.93)"/><path d="m309.38 316.64v6.77c0 9.48 2.75 14.37 9.2 16.34l13.34 4.25.33.11a24.8 24.8 0 0 1 5.08 1.89c.15.11.25.19.25 1.5v2.63c0 .76-.91 1.26-5.39 1.26h-18.92-1.85v18.54h1.84 19.22c17.7 0 26.67-5.71 26.67-17v-7.61c0-9.44-2.54-14-9.07-16.14l-13.44-4.51c-5.7-2-5.7-2-5.7-3.23v-2.07c0-.84.38-1.35 5.67-1.35 6.07 0 17.92-.27 18-.27l1.81-.05v-18h-20.4c-12.14-.05-26.64 2.9-26.64 16.94z" fill="#0e1030" transform="translate(-164.76 -208.93)"/><path d="m360.85 316.64v6.77c0 9.48 2.75 14.37 9.21 16.34l13.33 4.25.34.11a24.62 24.62 0 0 1 5.07 1.89c.16.11.26.19.26 1.5v2.63c0 .76-.92 1.26-5.39 1.26h-18.93-1.85v18.54h1.84 19.22c17.7 0 26.67-5.71 26.67-17v-7.61c0-9.44-2.54-14-9.07-16.14l-13.44-4.51c-5.69-2-5.69-2-5.69-3.23v-2.07c0-.84.38-1.35 5.67-1.35 6.06 0 17.91-.27 18-.27l1.81-.05v-18h-20.38c-12.16-.05-26.67 2.9-26.67 16.94z" fill="#0e1030" transform="translate(-164.76 -208.93)"/><path d="m423.12 326.8-1.12 2.34a2.76 2.76 0 0 1 -1.78 1.44v37.07a5.79 5.79 0 0 1 -4.77 5.79l-116.15 17.2a5.88 5.88 0 0 1 -1.53 0l-116.15-17.2a5.79 5.79 0 0 1 -4.77-5.79v-65.42a5.78 5.78 0 0 1 4.77-5.79l115-17c8.57 1 69.51 9.83 113.16 16.21a18 18 0 0 1 -2.46-5 27.1 27.1 0 0 1 -.73-3.1c-.08-.4-.16-.8-.25-1.2a2.67 2.67 0 0 1 -.06-.56v-1.57a1.62 1.62 0 0 1 0-.38v-.45c0-.38.09-.77.15-1.15a14.82 14.82 0 0 1 5.14-9.48c-.34-1.73-.7-3.52-1-5.3a112.84 112.84 0 0 1 -1.43-15.46 126.36 126.36 0 0 1 .64-16.54 5.89 5.89 0 0 1 2.22-4.06h.05v-14.28a4.43 4.43 0 0 0 -.09-.9 4.46 4.46 0 0 0 -1.9-2.83 4.44 4.44 0 0 0 -2.52-.77h-219.91a4.44 4.44 0 0 0 -2.52.77 4.68 4.68 0 0 0 -1.22 1.21 4.58 4.58 0 0 0 -.68 1.62 4.43 4.43 0 0 0 -.09.9v69.72l-2.9.43a14.44 14.44 0 0 0 -4.66 1.53c-.28.15-.55.31-.82.47a14.08 14.08 0 0 0 -3.59 3.07 15.13 15.13 0 0 0 -2.14 3.31 15.62 15.62 0 0 0 -.93 2.5 15.28 15.28 0 0 0 -.55 4.08v65.42a15 15 0 0 0 12.69 15l102.88 15.2 13.27 2a14.19 14.19 0 0 0 4.25 0l116.15-17.2a15 15 0 0 0 12.69-15v-33.34a62.56 62.56 0 0 1 -6.34-7.51z" fill="#0e1030" transform="translate(-164.76 -208.93)"/><path d="m42.88 71.21 11.05-1.59v-43.77h11.81v-10.47h-34.67v10.47h11.81z" fill="#fff"/><path d="m82.05 15.38h-11.05v51.6l11.03-1.68z" fill="#fff"/><path d="m135.48 44.55 2.27.09 10.48 15.86 12.82 1.75-13.76-23.99 12.75-22.88h-11.87l-9.85 17.68-2.84-.03v-17.65h-11.05v44.53h11.05z" fill="#fff"/><path d="m194.7 56.04-18.37-2.45v-8.32l17.38 1.14v-10.24l-17.38-1.15v-9.25h18.6v-10.39h-29.65v47.44l29.42 4.19z" fill="#fff"/><path d="m211.58 69.48 11.05 1.48v-45.11h11.8v-10.47h-34.66v10.47h11.81z" fill="#fff"/><path d="m269.6 270.61c.35 0 1.36.08 13.72-1.77v-10.21c-12.45 1.6-13.37 1.6-13.72 1.6-3 0-5.83-.3-5.83-4.65v-16.46c0-4.34 2.79-4.9 5.83-4.9h13.72v-10h-13.72c-10 0-16.7 3.17-16.7 12.61v21.41c-.02 9.52 6.71 12.37 16.7 12.37z" fill="#fff" transform="translate(-164.76 -208.93)"/><path d="m77.56 93.8h-17.96v23.6h-17.39v-23.6h-17.96v64.22h17.96v-24.83h17.39v24.83h17.96z" fill="#fff"/><path d="m304.08 350.77v-32.06c0-12.88-10.82-17.21-27.18-17.21s-27.17 4.33-27.17 17.21v32.06c0 13 10.81 17.3 27.17 17.3s27.18-4.32 27.18-17.3zm-18-3.57c0 5.17-4.33 5.73-9.22 5.73s-9.21-.56-9.21-5.73v-25.11c0-5.17 4.32-5.73 9.21-5.73s9.22.56 9.22 5.73z" fill="#fff" transform="translate(-164.76 -208.93)"/><path d="m311.23 316.64v6.77c0 10.06 3.29 13.16 7.9 14.57l13.35 4.24c6.48 2.06 6.95 2.16 6.95 5.26v2.63c0 2.82-3.19 3.11-7.24 3.11h-18.92v14.78h19.21c15.42 0 24.82-4.23 24.82-15.14v-7.61c0-9.87-3-12.79-7.81-14.39l-13.44-4.51c-6.21-2.16-7-2.44-7-5v-2.07c0-3 3-3.2 7.52-3.2 6.12 0 18-.27 18-.27v-14.3h-18.52c-14.67-.01-24.82 4.04-24.82 15.13z" fill="#fff" transform="translate(-164.76 -208.93)"/><path d="m362.7 316.64v6.77c0 10.06 3.29 13.16 7.9 14.57l13.4 4.24c6.49 2.06 7 2.16 7 5.26v2.63c0 2.82-3.2 3.11-7.24 3.11h-18.93v14.78h19.21c15.42 0 24.82-4.23 24.82-15.14v-7.61c0-9.87-3-12.79-7.8-14.39l-13.45-4.51c-6.2-2.16-6.95-2.44-6.95-5v-2.07c0-3 3-3.2 7.52-3.2 6.11 0 18-.27 18-.27v-14.3h-18.66c-14.66-.01-24.82 4.04-24.82 15.13z" fill="#fff" transform="translate(-164.76 -208.93)"/><path d="m509.81 243.75 10.13-1.88a1.48 1.48 0 0 0 .66-.29 1.46 1.46 0 0 0 .4-.58l7.32-16 .51-1.13v-.1c-3.65 1.47-7.3 2.93-10.94 4.41l-15.07 6.09-6.09 2.47-.37.13h-.09a.32.32 0 0 1 -.14 0 .31.31 0 0 1 -.18-.09l-.08-.08a4.4 4.4 0 0 1 -.22-.44q-3.62-8.36-7.22-16.71a1.7 1.7 0 0 0 -1.15-1 78.38 78.38 0 0 0 -13.89-2.86c-1.49-.16-3-.27-4.47-.35h-1.42c-1.27 0-2.54-.07-3.81 0-1.78 0-3.56.21-5.35.33a4.38 4.38 0 0 0 -.51 0 .72.72 0 0 1 -.21 0 .45.45 0 0 1 -.35-.14v-.05a.81.81 0 0 1 -.11-.45v-.31s0 0 0 0a.35.35 0 0 0 0-.06.16.16 0 0 1 0 .06.08.08 0 0 1 0-.06s0 0 0 0 0-.16 0-.32 0-.52 0-.76a3 3 0 0 0 -.21-1 1.44 1.44 0 0 0 -.47-.63.78.78 0 0 0 -.36-.06 5.93 5.93 0 0 0 -.64 0h-.15l-.75.12-.36.07-.75.15-.46.1-.8.18-.55.13-.85.21-.6.15-.87.22-.64.17-.89.23-.61.16-.91.24-.6.17-.86.23-.58.16-.79.22-.55.16-.67.19-.53.15-.56.16-.4.11-.71.21-.41.11-.19.06h-.1a2.23 2.23 0 0 0 -.36 0 2.74 2.74 0 0 0 -1.65.79 1.85 1.85 0 0 0 -.46 1.1c.05.66.07 1.32.17 2a.75.75 0 0 1 -.29.85 1.35 1.35 0 0 1 -.32.18c-2.42 1-4.87 2-7.23 3.16-1.33.65-2.63 1.33-3.91 2.06a72.78 72.78 0 0 0 -7.39 4.78q-1.79 1.29-3.51 2.69a3.05 3.05 0 0 0 -.8 1 3.25 3.25 0 0 0 -.34 1.22c-.41 4-.65 8-.68 12.08 0 1.33 0 2.66.05 4s.09 2.52.17 3.77c.16 2.52.39 5 .72 7.51.16 1.25.35 2.49.56 3.73.34 2 .76 4.06 1.16 6.08v.35a.88.88 0 0 1 0 .17 1.31 1.31 0 0 1 -.09.28 1.16 1.16 0 0 1 -.4.47 11.72 11.72 0 0 0 -4.81 8.25c-.08.49-.13 1-.19 1.49s0 1 0 1.56.23 1.13.34 1.7a23.65 23.65 0 0 0 .57 2.35 18.49 18.49 0 0 0 .76 2 12.85 12.85 0 0 0 2.28 3.45 11.27 11.27 0 0 0 1.58 1.41 14.87 14.87 0 0 0 1.95 1.18c.34.18.51.36.51.66a1.1 1.1 0 0 1 -.05.33c-.31 1.09-.58 2.18-.81 3.28a41 41 0 0 0 -.79 10 39.66 39.66 0 0 0 3.69 15c.09.18.2.36.35.64l1.63-3.31c.55-1.1 1.09-2.2 1.64-3.31q1.13 1.82 2.34 3.54a57 57 0 0 0 21.74 18.71l1.07.51.44.19.74.32.48.2.78.32.31.12 1 .39.49.18.88.32.38.14 1 .36h.14l1.28.43.35.11 1 .33.56.17.83.25.51.14.81.23.62.16.66.18.5.12.68.16.44.1.65.14.4.07.57.1h.37l.45.05a1.77 1.77 0 0 0 .32 0h.37l-1.82-3.39c-.61-1.14-1.22-2.29-1.86-3.47 1.36.43 2.72.79 4.07 1.12l1 .24c1.26.29 2.52.54 3.77.74l.27.05c1.33.21 2.65.36 4 .48l1 .08c1.18.08 2.35.13 3.52.14h.48c1.14 0 2.28-.05 3.41-.12l.91-.08c.83-.07 1.67-.15 2.5-.26l1.16-.17c.77-.12 1.55-.26 2.32-.41l1.09-.22c1-.22 1.94-.46 2.9-.73l.43-.11c1.1-.31 2.2-.67 3.29-1.06l1-.37c.78-.29 1.55-.6 2.33-.93l1.13-.5c.76-.34 1.51-.7 2.27-1.08l1-.5c1.06-.56 2.13-1.14 3.19-1.77v-.19l-9.62-3.16c1.28-.68 2.52-1.4 3.72-2.15a45.79 45.79 0 0 0 9.5-7.85 40 40 0 0 0 4.79-6.27 41.45 41.45 0 0 0 3.53-7.68c.08-.24.16-.49.24-.76.17-.54.33-1.13.5-1.76.32-1.27.63-2.68.9-4s.49-2.72.64-3.86c.07-.57.13-1.08.15-1.52a4.56 4.56 0 0 0 0-1.42l-4.26 3.3-4.31 3.43c.06-.34.1-.65.15-1s.07-.44.1-.64.05-.34.08-.5q1.05-6.33 2.12-12.67a3.35 3.35 0 0 1 .44-1.16c.64-1.12 1.33-2.23 2-3.34.22-.37.25-.49 0-.59l-.32-.09-.48-.13a2.77 2.77 0 0 0 -.48-.11.61.61 0 0 1 -.49-.24 1 1 0 0 1 -.11-.54c0-2.79.1-5.59 0-8.38a47 47 0 0 0 -.91-7.42 41.64 41.64 0 0 0 -2.17-7.17c-.06-.16-.13-.31-.21-.48l-.26-.57-6 11.24c-.33-.79-.63-1.53-.93-2.26-.16-.41-.33-.81-.49-1.21l-3.91-9.47-3.82-9.56-.15-.38c-.07-.16-.07-.27 0-.34a.42.42 0 0 1 .32-.15zm-25.69-5.57-1.95 2.59a4.9 4.9 0 0 1 -.3.51l-6.42 3.47-5.95 2.55-20.8 1.59-.74-.79c-.49-.49-.63-.49-1.17 0-.38.31-.72.65-1.07 1a2.25 2.25 0 0 1 -1.43-1.71l-4.06-16.94c-.11-.49 0-1 .42-1.15l21-5.43 17.82 1.66a2.19 2.19 0 0 1 1 1.09l4.64 10.2c-.32.42-.63.91-.99 1.36z" fill="#0e1030" transform="translate(-164.76 -208.93)"/><path d="m412.38 247.93s0 0 0 0 .01-.01 0 0z" fill="#fff" transform="translate(-164.76 -208.93)"/><path d="m514.57 285.75-.35-.06c-2.55-.32-5.09-.67-7.65-.95a71.69 71.69 0 0 0 -12.77-.43c-.85.06-.92.12-.91.95v7c0 .51-.16.76-.7.83-3.19.41-6.39.85-9.59 1.29a66.33 66.33 0 0 1 -9.85.72 5.29 5.29 0 0 1 -4-1.56 5.67 5.67 0 0 1 -1.36-3c-.08-.42-.26-.58-.68-.44-.87.29-1.77.5-2.61.86a109.57 109.57 0 0 0 -17.78 9.82 38.93 38.93 0 0 0 -6.45 5 5.06 5.06 0 0 0 -.46.65 5 5 0 0 0 .73.29 83.83 83.83 0 0 0 21.67 1.64 86.59 86.59 0 0 0 14.61-2.09 83.65 83.65 0 0 0 37.81-20.16 4.16 4.16 0 0 0 .34-.36z" fill="#7c5123" transform="translate(-164.76 -208.93)"/><path d="m453.14 317.1c3.68 3.44 7.93 4.76 12.89 3.49a33.8 33.8 0 0 0 17.45-11.09c.34-.4.66-.81 1-1.22a91.31 91.31 0 0 1 -16.53 3.52 86.82 86.82 0 0 1 -16.95.2 13.92 13.92 0 0 0 2.06 1.79 13.16 13.16 0 0 0 2.37 1.27c.82.35 1.71.54 2.64.83l-5.32.79c.25.19.25.32.39.42z" fill="#fff" transform="translate(-164.76 -208.93)"/><path d="m426 292.6a1.76 1.76 0 0 0 .55-1.55q-1.23-6.54-2.48-13.08a1.61 1.61 0 0 0 -.52-.86 6.24 6.24 0 0 0 -8.18.37 9.39 9.39 0 0 0 -2.66 6.91 12.13 12.13 0 0 0 2.74 8.14 6.77 6.77 0 0 0 10.55.07zm-7.44-5.4a1.21 1.21 0 0 1 .41-1.09 3.64 3.64 0 0 1 2.1-1.16c.65-.14.68-.21.44-.84-.83-2.2-2.21-2.54-3.93-.94-.57.53-1.05 1.15-1.62 1.79a6 6 0 0 1 0-1 4.84 4.84 0 0 1 1.11-2.43 2.8 2.8 0 0 1 3.61-.75 5.77 5.77 0 0 1 3.08 4.16 6.23 6.23 0 0 1 -.44 4.26 3 3 0 0 1 -1.56 1.46 4.35 4.35 0 0 0 .5-3.17c-.23-.92-.77-1.35-1.67-1.12a12.69 12.69 0 0 0 -2.04.83z" fill="#f8d4a0" transform="translate(-164.76 -208.93)"/><path d="m430.87 241.79a55.36 55.36 0 0 0 5.57 20.06l2.45-1.1a1 1 0 0 0 .61-.75 30.38 30.38 0 0 1 1.36-4.14 22.68 22.68 0 0 1 3.25-5.12 4.7 4.7 0 0 1 -2-2.89l-4.06-16.94a3 3 0 0 1 2-3.82l21.08-5.44a1.7 1.7 0 0 1 .46-.06h.23l17.91 1.67a3.92 3.92 0 0 1 2.73 2.37l4.81 10.59a26.19 26.19 0 0 1 4.45 1.94c.45.27.92.5 1.39.75l.1-.08c-.27-.67-.53-1.34-.79-2q-2.71-7.17-5.43-14.34a1.61 1.61 0 0 0 -1.13-1.1c-.52-.15-1-.34-1.54-.5a61.42 61.42 0 0 0 -21.49-2.89q-3.36.15-6.69.59a75 75 0 0 0 -12.09 2.82 85.63 85.63 0 0 0 -12.3 4.84c-.75 2.43-1.59 7.37-.88 15.54z" fill="#fff" transform="translate(-164.76 -208.93)"/><path d="m454.68 253.66 8.49-3.65-12.34 1 2.59 2.47a1 1 0 0 0 1.26.18z" fill="#fff" transform="translate(-164.76 -208.93)"/><path d="m514.32 266.47h-.18c-.09.14-.18.28-.26.43l-2.88 5.45-4.38 8.22c-.3.56-.26.67.28.72l7.72.74c.73.07.74 0 .79-.7a60.26 60.26 0 0 0 -.33-10.14c-.24-1.58-.52-3.19-.76-4.72z" fill="#7c5123" transform="translate(-164.76 -208.93)"/><path d="m514.62 290.62c-.23.18-.36.27-.47.37a90.22 90.22 0 0 1 -23 14.7 2.74 2.74 0 0 0 -1 .82 52.22 52.22 0 0 1 -14.26 13.1c-3.92 2.41-8 4.32-12.71 4.69a14.74 14.74 0 0 1 -9.6-2.22 18.9 18.9 0 0 1 -7.26-9 1.65 1.65 0 0 0 -1.52-1.18 24.52 24.52 0 0 1 -10.1-3.33c-.41-.23-.5-.47-.18-.85 1.27-1.52 2.48-3.09 3.81-4.54a42 42 0 0 1 6.7-5.85c.61-.44.6-.51 0-.94l-1.33-.91-7.55-5.2a.86.86 0 0 1 -.49-.88 12.55 12.55 0 0 0 -1.54-7.57 2.39 2.39 0 0 1 -.2-2.2 30 30 0 0 0 1.68-13.05c-.06-.63-.13-.68-.7-.43q-5.74 2.5-11.48 5c-.8.35-1.56.78-2.42 1.22a3.84 3.84 0 0 0 .46.23c1.58.62 3.15 1.26 4.75 1.83a1.39 1.39 0 0 1 1 1.42c.13 2.93.29 5.86.43 8.78q.3 6.12.59 12.22v1.34h-.23c-.17-.65-.33-1.3-.49-2s-.25-.67-.8-.35c-1.36.77-2.71 1.56-4.08 2.32a2 2 0 0 0 -1 1.33 50.12 50.12 0 0 0 -1.6 17.58c0 .37.12.74.22 1.27l2.7-4.65c.81 1.35 1.54 2.65 2.34 3.91a58.51 58.51 0 0 0 10.71 12.32c6.29 5.62 13.15 10.32 21.21 13.08a2.36 2.36 0 0 0 .48.05 2.52 2.52 0 0 0 -.05-.48c-.66-2-1.34-3.94-2-5.91-.09-.26-.15-.54-.24-.91a71.42 71.42 0 0 0 21.93 4.48 65.13 65.13 0 0 0 22.16-2.92l-9.9-3.37a55.9 55.9 0 0 0 13.48-7 47 47 0 0 0 10.67-10.59c2.69-3.7 6.89-11.78 6.93-13.35a32.7 32.7 0 0 1 -10.19 7.15 159.66 159.66 0 0 0 4.14-19.53zm-20.47 19.13.4-.58a8.85 8.85 0 0 1 -.73 3.22 22.62 22.62 0 0 1 -6.07 8.4 35.53 35.53 0 0 1 -10.15 6.72 14.93 14.93 0 0 1 -4.32 1.1c-.92.09-1.15-.2-.84-1.08a3.66 3.66 0 0 1 1.9-2c1.91-1 3.85-1.92 5.74-2.94a39.82 39.82 0 0 0 14.07-12.84z" fill="#7c5123" transform="translate(-164.76 -208.93)"/><path d="m498.55 252.59c-2.27-1.41-4.58-2.76-6.86-4.14a1.87 1.87 0 0 0 -1.64-.21l-40.8 12.57a2.66 2.66 0 0 0 -1.41 1 65 65 0 0 0 -5.43 8.74l-.33.55a7.7 7.7 0 0 1 -1.63-3.35l-.66-3.61c-.67 0-.83.14-.8.75 0 .36.08.72.1 1.09a31.55 31.55 0 0 1 -2 12.86 1.69 1.69 0 0 0 0 1.34 19.35 19.35 0 0 1 1.61 7.38 1.26 1.26 0 0 0 .62 1.07q4.06 2.91 8.11 5.84a1.21 1.21 0 0 0 1.52.07 87.32 87.32 0 0 1 16.82-8.15.83.83 0 0 0 .63-.92 30.67 30.67 0 0 1 .16-3.84 3.34 3.34 0 0 1 4.32-3 29.17 29.17 0 0 1 8.43 3.46c.83.47 1.62 1 2.42 1.5l-.08.12a44.66 44.66 0 0 0 -11.14-1.65c-.78 0-.86 0-.89.81a17.12 17.12 0 0 0 1.74 8.27 1 1 0 0 0 .89.61l1.56.11a51.47 51.47 0 0 0 9.45-.26c1.94-.24 3.87-.62 5.8-.94a.57.57 0 0 0 .53-.65c0-.59 0-1.18 0-1.77a69.76 69.76 0 0 0 -1.36-13.24 41.81 41.81 0 0 0 -9.44-20.21c-.23-.26-.45-.55-.67-.82a.29.29 0 0 1 .27 0c1.18 1 2.42 1.82 3.52 2.85a31.61 31.61 0 0 1 7.09 10.69 47.91 47.91 0 0 1 3.43 12.61c.11.81.13.83.92.82l8.39-.07a1.12 1.12 0 0 0 1.05-.63q2-3.42 4.1-6.82a1.33 1.33 0 0 0 .1-1.28q-3.79-9.27-7.6-18.52a2.38 2.38 0 0 0 -.84-1.03zm-42.66 17c.63-1.84-.32-3.36-2.66-4.16a3.4 3.4 0 0 1 3.07-.45 5.78 5.78 0 0 1 4.25 6.37 6.57 6.57 0 0 1 -1.73 3.93 4.44 4.44 0 0 1 -6.35.1 6 6 0 0 1 -1.89-4.57 3.26 3.26 0 0 0 3.7.6 3.05 3.05 0 0 0 1.61-1.82zm33.82-7a3.75 3.75 0 0 1 -.14-2.38c1.81 1.1 3.24 1 4-.42s.19-2.73-1.4-3.58a1.93 1.93 0 0 1 .46-.25c2.43-.41 4.69.2 5.94 3.19a5.14 5.14 0 0 1 -2.16 6.37 4.85 4.85 0 0 1 -6.7-2.93zm-25.15 11.41c.19-.07.39-.12.68-.21-.08.8-.13 1.51-.22 2.21a.59.59 0 0 1 -.3.36 63.55 63.55 0 0 0 -14.86 9.28s-.09.05-.24 0c.25-.49.46-1 .75-1.48a18.29 18.29 0 0 1 4.05-4.37 33.68 33.68 0 0 1 10.14-5.79zm38.68-4.38.17.15-4.74.4c-1.88.16-3.76.3-5.64.49a.9.9 0 0 1 -1.12-.64 10.41 10.41 0 0 0 -.59-1.32c-.14-.3-.09-.46.26-.5a26.14 26.14 0 0 1 11.66 1.42z" fill="#f8d4a0" transform="translate(-164.76 -208.93)"/><path d="m450.38 246.22c-.65-2.8-1-4.18-1.63-6.91l3.7-.54c.68 2.73 1 4.11 1.71 6.9a14.14 14.14 0 0 0 3.11-.55c-1.71-6.64-2.57-9.94-4.27-16.33a15.22 15.22 0 0 0 -3 .48c.59 2.29.89 3.45 1.48 5.8-1.46.23-2.2.34-3.66.55-.56-2.33-.84-3.48-1.41-5.74a19.07 19.07 0 0 0 -3.19.56c1.49 6.18 2.24 9.45 3.74 16.18a15.41 15.41 0 0 0 3.42-.4z" fill="#fff" transform="translate(-164.76 -208.93)"/><path d="m458.22 240.35c.93 3.48 3.13 4.31 5.9 3.69s4.05-2.1 3.05-5.36c-.94-3.05-1.41-4.58-2.35-7.65s-2.86-3.78-5.43-3.45-4.18 1.61-3.34 4.69 1.3 4.83 2.17 8.08zm2.09-9.59a1.64 1.64 0 0 1 2.11 1.36c.74 2.5 1.1 3.76 1.84 6.27.44 1.5-.29 1.82-1.19 2s-1.76.16-2.19-1.38c-.72-2.57-1.08-3.85-1.79-6.4-.41-1.44.33-1.73 1.22-1.85z" fill="#fff" transform="translate(-164.76 -208.93)"/><path d="m466.59 231.89c.71 2.27 1.44 2.9 2.34 3.15l2.29.67c1.07.3 1.19.33 1.47 1.13l.22.65c.28.83-.21 1-.87 1.17a17.72 17.72 0 0 1 -3.2.28 21.61 21.61 0 0 0 1.07 3.37 14.85 14.85 0 0 0 3.27-.42c2.23-.55 3.2-1.81 2.31-4.28-.23-.66-.35-1-.59-1.66-.75-2.11-1.41-2.66-2.28-3l-2.25-.74c-1-.36-1.22-.45-1.43-1.11l-.17-.51c-.27-.85.21-1 .93-1.06a9.81 9.81 0 0 1 2.89.13 19.22 19.22 0 0 0 -1-2.82 8.77 8.77 0 0 0 -2.95-.25c-2.12.16-3.34 1.22-2.55 3.74z" fill="#fff" transform="translate(-164.76 -208.93)"/><path d="m474.31 231c.75 2.09 1.44 2.68 2.26 2.92l2.11.65c1 .29 1.1.32 1.38 1l.23.58c.29.73-.14.92-.73 1a16.91 16.91 0 0 1 -2.89.22 20.7 20.7 0 0 0 1.12 3 13.73 13.73 0 0 0 2.94-.38c2-.48 2.82-1.56 1.91-3.73-.25-.59-.37-.88-.61-1.47-.78-1.88-1.4-2.39-2.2-2.68l-2.07-.74c-1-.35-1.13-.44-1.35-1l-.18-.47c-.28-.78.15-.89.8-.93a9.61 9.61 0 0 1 2.62.23 20 20 0 0 0 -1-2.58 8.25 8.25 0 0 0 -2.69-.37c-1.91 0-3 1-2.14 3.31z" fill="#fff" transform="translate(-164.76 -208.93)"/><path d="m487.33 239c-.63-.23-.79-.15-1.11.45s-.51.95-.78 1.41c-.39.66-.36.81.29 1.19l6.74 4 5.28 3.14a2.58 2.58 0 0 0 -.09-.32c-.11-.27-.21-.54-.33-.81a17 17 0 0 0 -10-9.06z" fill="#7c5123" transform="translate(-164.76 -208.93)"/><path d="m442.15 265.84c.16-.06.21-.07.22-.09l.85-1.61a65.12 65.12 0 0 1 6.65-10c.44-.56.44-.64-.07-1.11l-1.95-1.8c-.76-.7-.76-.69-1.41.13a19.81 19.81 0 0 0 -4.32 12.27c-.01.73.02 1.45.03 2.21z" fill="#7c5123" transform="translate(-164.76 -208.93)"/><path d="m453.49 265.3a3.34 3.34 0 0 1 3 3.18 3.39 3.39 0 0 1 -2.41 3.35 3.48 3.48 0 0 1 -3.46-.94 4.46 4.46 0 0 1 -.83-2.25 3.35 3.35 0 0 1 3.35-3.34z" fill="#fcfdff" transform="translate(-164.76 -208.93)"/><path d="m492.53 256.11a2.62 2.62 0 0 1 .41 4.8 2.57 2.57 0 0 1 -2.88-.23c-.19-.14-.34-.31-.51-.46-.83-1.51-.72-2.6.45-3.66a2.33 2.33 0 0 1 2.53-.45z" fill="#fcfdff" transform="translate(-164.76 -208.93)"/><path d="m487.54 286q-4.26-15.22-9.64-30.09a45.19 45.19 0 0 1 9.64 30.09z" fill="#efc49e" transform="translate(-164.76 -208.93)"/><path d="m451.29 286.35a12.13 12.13 0 0 1 2.1-1.89 49.3 49.3 0 0 1 8-5c.9-.45 1.84-.84 2.76-1.25a1 1 0 0 1 1.49.81 1.52 1.52 0 0 1 -1.11 1.84 61.46 61.46 0 0 0 -7.44 2.64 53.86 53.86 0 0 0 -5.44 2.69z" fill="#efc49e" transform="translate(-164.76 -208.93)"/><path d="m503.42 271.59a49.59 49.59 0 0 0 -6.51 1.39c-.51.15-1 .28-1.52.46-1 .36-2.15-.95-2.18-1.73 0-.2.08-.27.27-.31a18.7 18.7 0 0 1 2.67-.32 32.18 32.18 0 0 1 6.72.36 5 5 0 0 1 .55.15z" fill="#efc49e" transform="translate(-164.76 -208.93)"/><path d="m512 292.74a10 10 0 0 1 .92-.69 97.1 97.1 0 0 1 -4.58 17.5c0-.48 0-.95.06-1.42.1-1.11.19-2.22.28-3.34.13-1.77.31-3.55.46-5.32.08-.94.13-1.88.2-2.82 0-.44.07-.87.09-1.31 0-.17.06-.27-.11-.4 1.08-.85 1.58-1.34 2.68-2.2z" fill="#683302" transform="translate(-164.76 -208.93)"/><path d="m451.59 336.37a58.34 58.34 0 0 1 -26.78-25.64.06.06 0 0 1 .1-.07 186.12 186.12 0 0 0 26.74 25.61c.06.04 0 .13-.06.1z" fill="#683302" transform="translate(-164.76 -208.93)"/><path d="m490.05 336.79a49.54 49.54 0 0 1 -13.07 1 52.68 52.68 0 0 1 -12.7-2.09 47.81 47.81 0 0 1 -7.76-2.94c5.56.86 11.12 1.68 16.7 2.35s11.2 1.24 16.83 1.68z" fill="#683302" transform="translate(-164.76 -208.93)"/><path d="m502.18 321.43q6.4-5 12.6-10.2a50 50 0 0 1 -25.65 19.83c4.41-3.13 8.78-6.32 13.05-9.63z" fill="#683302" transform="translate(-164.76 -208.93)"/><path d="m507.15 289.53c-18.46 13.89-39.17 18.9-62 15.58 3.55-.18 7.12-.28 10.67-.58s7.14-.74 10.68-1.32 7-1.3 10.49-2.17 6.92-1.88 10.31-3 6.77-2.46 10.08-3.89 6.55-3.04 9.77-4.62z" fill="#683302" transform="translate(-164.76 -208.93)"/><path d="m244.89 161.11v-3h-.88v-.93h2.83v.93h-.88v3z" fill="#003" fill-rule="evenodd"/><g transform="translate(-164.76 -208.93)"><path d="m416.62 370h-1l-.23-1.69c0-.12 0-.26 0-.4s0-.31 0-.48a3.61 3.61 0 0 1 -.15.62v.12l-.64 1.83h-.72l-.53-1.83a1 1 0 0 1 0-.12 3.61 3.61 0 0 1 -.15-.62v.44s0 .29-.05.44l-.23 1.69h-1l.61-3.92h1.06l.59 2a.64.64 0 0 1 0 .07 2.8 2.8 0 0 1 .11.47c0-.07 0-.15 0-.24l.08-.3.6-2h1.03z" fill="#003" fill-rule="evenodd"/><path d="m590.61 311.19c1.2-6.88 5.41-30.69 7.09-35.14l.13-.35.2-.32a14.91 14.91 0 0 1 9.92-6.95l.83-.16a14.29 14.29 0 0 1 9.68 1.75 11.27 11.27 0 0 1 4.47 5.71 14.42 14.42 0 0 1 .29 8.53c-1.41 5.52-5.93 11.09-13.44 16.56a84.94 84.94 0 0 1 -14.83 8.6z" fill="#0e1030"/><path d="m547.59 234a8.34 8.34 0 0 0 -4.3 1.31l-.18.11-.16.12-.17.13a7.82 7.82 0 0 0 -3.38 4.75l-16 60.34-16 60.35a8.94 8.94 0 0 0 .42 6.51c1.29 2.93 4.15 3.71 5.85 4.17l26.55 7.24 26.54 7.24a10.1 10.1 0 0 0 2.89.42 7.65 7.65 0 0 0 4-1.17 8.22 8.22 0 0 0 2.6-2.16 8.37 8.37 0 0 0 1.52-3l32-120.69a8.22 8.22 0 0 0 -.67-6.32 9.21 9.21 0 0 0 -2.49-2.88 9 9 0 0 0 -3.43-1.6l-53.08-14.48a9.2 9.2 0 0 0 -2.5-.35z" fill="#0e1030"/><path d="m547.62 238.45a5.1 5.1 0 0 1 1.34.19l53.09 14.49a4.66 4.66 0 0 1 1.87.81 4.61 4.61 0 0 1 1.37 1.54 3.54 3.54 0 0 1 .48 1.48 3.75 3.75 0 0 1 -.19 1.56l-32 120.69a4.11 4.11 0 0 1 -.8 1.52 3.89 3.89 0 0 1 -1.35 1 3.37 3.37 0 0 1 -1.85.55 6.69 6.69 0 0 1 -1.72-.26l-53.09-14.49c-1.42-.39-2.58-.73-3-1.72a4.56 4.56 0 0 1 -.18-3.55l32-120.69a3.8 3.8 0 0 1 1.94-2.46 3.92 3.92 0 0 1 2.12-.68z" fill="#2a2a49"/><path d="m517.55 359c.38.87 1.39 1.17 2.62 1.51l46.51 12.68a3.5 3.5 0 0 0 3.12-.25 3.36 3.36 0 0 0 1.2-.94 3.53 3.53 0 0 0 .69-1.33l28-105.72a3.27 3.27 0 0 0 .17-1.35 3.42 3.42 0 0 0 -.41-1.3 4.34 4.34 0 0 0 -1.21-1.35 4.29 4.29 0 0 0 -1.64-.71l-46.5-12.68a3.49 3.49 0 0 0 -1.57-.15 3.55 3.55 0 0 0 -1.47.58 3.37 3.37 0 0 0 -1.68 2.16q-14 52.85-28 105.72a3.9 3.9 0 0 0 .18 3.09z" fill="#fe5000"/><path d="m565.75 324.3a3.09 3.09 0 0 1 1.09.54 3.15 3.15 0 0 1 .81.93 3.2 3.2 0 0 1 .4 1.16 3.24 3.24 0 0 1 -.08 1.24 3.14 3.14 0 0 1 -1.43 1.93 3.1 3.1 0 0 1 -2.36.33 3.23 3.23 0 0 1 -1.1-.54 3.15 3.15 0 0 1 -.81-.93 3.31 3.31 0 0 1 -.4-1.17 3.22 3.22 0 0 1 1.52-3.16 3.09 3.09 0 0 1 2.36-.33z" fill="#fff"/><path d="m571.57 269.94a1.15 1.15 0 0 1 1 1.12l-2.29-.6a1 1 0 0 1 1.29-.52z" fill="#00001f"/><path d="m517.55 359c.38.86 1.39 1.16 2.63 1.5l46.47 12.69a3.57 3.57 0 0 0 3.12-.25 3.41 3.41 0 0 0 1.23-.94 3.45 3.45 0 0 0 .69-1.33q14-52.86 28-105.72a3.09 3.09 0 0 0 .16-1.35 3.15 3.15 0 0 0 -.41-1.3 4.24 4.24 0 0 0 -2.84-2.06l-46.5-12.68a3.36 3.36 0 0 0 -1.57-.14 3.3 3.3 0 0 0 -1.47.58 3.41 3.41 0 0 0 -1.68 2.15l-28 105.72a4 4 0 0 0 -.2 1.57 4.11 4.11 0 0 0 .37 1.56z" fill="#ee4523"/><path d="m565.14 344.2-27.37-7.28a6.24 6.24 0 0 0 -7.63 4.55 6.38 6.38 0 0 0 4.47 7.77l27.39 7.27a6.25 6.25 0 0 0 7.63-4.55 6.37 6.37 0 0 0 -4.49-7.76z" fill="#00001f"/><path d="m567.84 250.24 12 3.3a2.08 2.08 0 0 0 1.58-.22 2.12 2.12 0 0 0 .76-2.88 2.11 2.11 0 0 0 -1.26-1l-12-3.29a2 2 0 0 0 -1.58.21 2.16 2.16 0 0 0 -1 1.28 2.21 2.21 0 0 0 .21 1.61 2.13 2.13 0 0 0 1.29.99z" fill="#00001f"/><path d="m543.88 305.86c-.91-.44-1.37-.17-1.58.85s-.61 2.29-.91 3.44c-.14.51-.35.8-.95.64a.71.71 0 0 1 -.58-1q.75-2.71 1.48-5.45c.13-.48.39-.72.91-.58s.69.09.81-.37-.11-.66-.47-.79c-.55-.18-.65-.54-.49-1.06s.42-.7.92-.58.69.06.81-.4-.14-.64-.5-.75c-.58-.17-.62-.56-.46-1.07s.53-.56 1-.43c1.8.51 3.6 1 5.4 1.5a.75.75 0 0 1 .65 1 .56.56 0 0 0 .49.68.49.49 0 0 0 .63-.39c.19-.67.64-.6 1.15-.46l5.2 1.45c.48.13.85.31.71.92s-.36.82-.94.67a.6.6 0 0 0 -.83.54c-.1.59-.62 1.19-.19 1.78a.48.48 0 0 0 .9-.12c.29-1 .9-.77 1.56-.57a2.83 2.83 0 0 0 .5.13c.41.07.89.41 1.14-.25s-.24-.71-.63-.86-.45-.55-.34-.95c.19-.71.37-1.42.57-2.12.37-1.37.37-1.37 1.76-1l.1.23c-.29 1-.57 2.09-.85 3.13-.1.35-.18.71.27.89a.58.58 0 0 0 .82-.4c.25-.64.7-.54 1.19-.37s.47.61.37 1-.14.62-.24.92c-.22.64 0 1 .65 1.14 1.17.3 2.34.62 3.5 1 .71.22 1 0 1.17-.72.06-.34.19-.67.27-1s.29-.69.79-.54.84.28.74.91-.64 1.31-.27 1.91 1.12.46 1.69.67.69.44.57.94-.29.74-.83.74c-.75 0-1.66 1.64-1.24 2.23.27.36.81.56 1 0 .31-1 .94-.8 1.63-.59a4.1 4.1 0 0 0 .5.14c.38.07.82.38 1.07-.21s-.13-.75-.56-.91a.66.66 0 0 1 -.41-.92c.26-.95.52-1.89.77-2.84.14-.51.44-.63.93-.51s.74.44.57 1c-.11.37-.18.75-.3 1.12s-.07.82.45 1 .63.56.48 1.07q-.3 1.06-.57 2.13c-.19.68-.29 1.44-1.33 1.09-.33-.11-.49.16-.57.47a.53.53 0 0 0 .35.66c.34.16.8.26.69.77a4.78 4.78 0 0 1 -.75 2.25c-.22.25-.59.09-.88 0a.51.51 0 0 1 -.36-.66c.19-.6 0-.92-.61-1.1s-.46-.53-.35-.94.25-.95.37-1.42a.49.49 0 0 0 -.32-.67c-.34-.12-.65-.08-.76.3-.28 1-.54 2-.79 2.93-.06.21 0 .48.21.54 1 .32.71 1 .52 1.69-.39 1.43-.38 1.41 1 1.84.45.14 1.21.05 1.17.78a3.73 3.73 0 0 1 -.72 2.25c-.22.26-.59.07-.88 0a.54.54 0 0 1 -.36-.66c0-.33.24-.75-.21-.92a3 3 0 0 0 -1.88-.41c-.53.16-.58.73 0 1a.91.91 0 0 1 .57 1.16c-.14.59.38.66.77.76 2 .53 1.83.48 1.32 2.4-.26 1-.55 1.95-.79 2.93-.16.64-.49.86-1.13.68-2.67-.76-5.34-1.49-8-2.23-.5-.14-.81-.39-.64-1s-.33-.86-.81-.92-1.26-.8-1.69.18a.81.81 0 0 1 -1.15.52c-1.29-.38-2.6-.74-3.9-1.09-.57-.16-.8-.45-.61-1.07s.57-.59 1.05-.46l2.4.67c.4.11.76.14.92-.37a.6.6 0 0 0 -.47-.87c-.54-.13-.6-.5-.48-1a.67.67 0 0 1 .92-.56c.39.11.69 0 .78-.44s-.2-.67-.56-.72c-.74-.1-1.65-1-2.11.45-.14.42-.59.26-.91.16a.59.59 0 0 1 -.49-.78c.1-.4.13-.79-.4-.89s-.68.35-.79.75c-.34 1.18-.67 2.36-1 3.54-.18.73-.54 1-1.28.74s-1.66-.49-2.49-.71a.72.72 0 0 1 -.57-1c.52-1.85 1-3.71 1.52-5.57.11-.43.36-.66.82-.55s.83.25.72.82-.11.86.48.94.58-.39.7-.74a8.12 8.12 0 0 0 .22-.81c.14-.62.39-1 1.14-.83s.84-.43.67-.79c-.32-.67-1.14-.53-1.73-.75-.41-.15-.67.06-.78.46-.18.64-.58.69-1.13.49s-.47-.6-.36-1c0-.17.09-.34.14-.5.37-1.42.37-1.42-1.07-1.83-.2-.06-.4-.13-.6-.18a.62.62 0 0 1 -.53-.84c.11-.44.25-.81.82-.7.37.07.77.2.93-.35s-.19-.67-.56-.81c-.2-.08-.52-.25-.45-.38.66-1.26-1.75-1.53-.88-2.89a5.49 5.49 0 0 0 .49-1.7c.18-.71.33-1.41 1.35-1.09.33.1.48-.19.54-.49a.49.49 0 0 0 -.38-.64.79.79 0 0 1 -.62-1.1.51.51 0 0 0 -.45-.69c-.39-.09-.59.12-.68.46a19.55 19.55 0 0 0 -.58 2.12c-.19 1-.64 1.43-1.65 1-.09 0-.2 0-.3-.08-.94-.43-1.43-.1-1.52.91zm15.12 4.14c.08-.73.06-1.51 1.2-1.3a.5.5 0 0 0 .47-.79c-.42-.62-1.2-.62-1.86-.72s-.58.46-.71.84-.35 1.05-.52 1.57c-.66-.12-1.3-.26-1.54.67-.1.38-.47.35-.79.26s-.79-.19-.71-.62c.32-1.61-1-1.2-1.76-1.55a.46.46 0 0 0 -.67.3.56.56 0 0 0 .28.79c.27.13.76.22.69.53-.3 1.42.77 1.41 1.58 1.62a.9.9 0 0 1 .74 1.31c-.21.7-.36 1.43-.59 2.12s-.09 1.22.74 1.35c.24 0 .47.13.7.19s.75.23 1-.29 0-.8-.47-.95c-.18-.06-.46-.19-.49-.33a4.89 4.89 0 0 1 .46-2.22c.17-.57.65-.38 1-.34a.51.51 0 0 0 .6-.43c.08-.31 0-.58-.31-.67-1.14-.32-.73-1-.44-1.71a2.74 2.74 0 0 1 1.4.37c-.1.66-.27 1.32.66 1.55.37.1.35.47.28.79s0 .69.41.8.59-.09.7-.43a.75.75 0 0 1 1-.57c.44.09.75 0 .81-.53s-.3-.57-.63-.67zm5.94 7.62c-2.19-.59-1.9-.79-2.51 1.47s-.77 1.88 1.4 2.48 1.93.73 2.53-1.47.69-1.88-1.36-2.49zm-.81-4.74c0 .44-.58 1 .12 1.36s.87-.2 1.08-.7.52-.29.81-.21.7.21.61.59c-.34 1.48.89 1.19 1.58 1.47s.9-.08.95-.62.85-1.34-.09-1.82c-.56-.28-.72-.57-.6-1.13a.52.52 0 0 0 -.45-.69c-.26-.07-.53 0-.6.25-.28 1.22-1.09.81-1.78.56-.91-.34-1.55-.3-1.61.93zm-12.35-6.48c2 .57 2.4.35 2.52-1.39 0-.36-.05-.61-.42-.72s-.58 0-.66.31c-.22.9-.81.76-1.44.57-.37-.1-.73-.2-1.1-.27s-.58.13-.66.48a.48.48 0 0 0 .37.63c.48.13.95.25 1.41.38zm18.36 21.73c.06-.22.11-.39.15-.56.09-.37.23-.76-.26-1a.61.61 0 0 0 -.95.44c-.14.5-.48.51-.89.42a.51.51 0 0 0 -.65.34c-.09.23-.19.52 0 .69a3.37 3.37 0 0 0 1.93.61c.64.05.53-.63.69-.95zm-2.37-2.33c.07-.24.14-.47.19-.7a.52.52 0 0 0 -.33-.67c-.28-.1-.6-.1-.7.22-.23.71-.69.85-1.35.74-.27 0-.42.19-.48.45a.51.51 0 0 0 .12.56 1.49 1.49 0 0 0 2.57-.61zm-22.88-22.8c.29 0 .78.43 1.1-.08a3.32 3.32 0 0 0 .49-1.89c0-.28-.27-.37-.52-.42s-.45 0-.5.24a.91.91 0 0 1 -1.29.77c-.33-.09-.49.17-.57.47a.5.5 0 0 0 .36.65z" fill="#fff"/><path d="m561.58 300.19c.22-.6.37-1.15-.49-1.39-.4-.11-.49-.44-.39-.84s.08-.7-.38-.81-.68.22-.79.61c-.23.81-.45 1.62-.67 2.42-.15.56-.43.82-1.06.64s-.7-.58-.55-1.12.33-1.21.49-1.82c.37-1.36.37-1.36-.93-1.74-.23-.07-.47-.13-.69-.21a.61.61 0 0 1 -.47-.8c.1-.4.15-.86.74-.82.38 0 .78.08.92-.43s-.24-.66-.6-.8-.36-.53-.27-.88.19-.72.67-.61a.75.75 0 0 0 1-.56c.19-.6.64-.52 1.1-.37s.56.55.45 1-.25.95-.36 1.42a.54.54 0 0 0 .43.71c.32.08.58 0 .65-.33.2-.92.79-.8 1.43-.59.36.12.73.22 1.1.32s.56.45.44.89-.23.75-.75.65-.81-.25-1 .29-.56 1.24-.36 1.91c.13.45 1 .44 1.13 0 .26-.84.78-.73 1.38-.56l.6.17c.4.08.85.28 1.06-.28s-.2-.72-.61-.86-.41-.58-.3-1 .36-.67.84-.53.74.19 1.1.3c.54.18 1 .25 1.21-.48.15-.55.56-.53 1-.39s.59.35.48.78-.22.92-.86.75-.82.27-.88.74-.75 1.3.1 1.77c.62.34.58.75.43 1.3-.46 1.64-.89 3.3-1.35 4.95-.17.58-.17 1 .53 1.21s.46.58.34 1a.58.58 0 0 1 -.77.49c-.41-.1-.87-.21-.73-.79s0-.93-.61-1.09c-.43-.11-.47-.47-.37-.84s.23-.95.36-1.42.08-.62-.33-.73-.63-.16-.75.28-.43.81-1.06.64-.68-.55-.6-1.1c.11-.77-.65-.54-1-.82zm2.82-1.92c-.47-.13-.93-.27-1.4-.39a.52.52 0 0 0 -.72.38.52.52 0 0 0 .38.73l2.79.77a.51.51 0 0 0 .69-.43c.1-.4-.1-.6-.44-.7s-.87-.24-1.3-.36z" fill="#fff"/><path d="m548.18 298.13c-1.3-.36-2.6-.74-3.91-1.08-.64-.16-.83-.49-.65-1.14q1.11-4 2.19-8.08c.16-.59.48-.79 1.07-.62l8.1 2.26a.71.71 0 0 1 .57 1c-.75 2.73-1.5 5.45-2.22 8.19-.16.6-.46.78-1.06.61-1.36-.39-2.73-.76-4.09-1.14zm-1.92-5.92c-.24.88-.46 1.76-.72 2.62-.18.59 0 .92.57 1.08 1.71.45 3.4.92 5.09 1.42.63.18.88-.08 1-.65.44-1.69.89-3.37 1.37-5 .17-.59 0-.91-.58-1.08q-2.55-.68-5.09-1.41c-.62-.19-.88.06-1 .64-.19.78-.42 1.58-.64 2.38z" fill="#fff"/><path d="m572.77 305c-1.3-.37-2.59-.75-3.9-1.08-.63-.17-.84-.47-.66-1.13q1.14-4 2.2-8.08c.18-.68.55-.79 1.16-.61 2.62.74 5.26 1.47 7.89 2.19.63.17.85.5.67 1.15q-1.12 4-2.2 8.08c-.18.68-.56.77-1.16.59-1.33-.41-2.67-.76-4-1.11zm2.34-8.26c-.87-.24-1.73-.47-2.59-.73-.56-.17-.84 0-1 .57-.45 1.72-.91 3.44-1.4 5.15-.17.6 0 .9.61 1.06q2.55.68 5.09 1.41c.56.16.83 0 1-.58q.67-2.58 1.39-5.14c.18-.61 0-.91-.6-1.06-.84-.22-1.67-.42-2.5-.7z" fill="#fff"/><path d="m547.67 319.48c-.34 1.28-.72 2.56-1 3.85-.18.81-.58 1-1.34.76-2.52-.74-5.06-1.44-7.59-2.12-.75-.2-1.05-.51-.81-1.33q1.1-3.88 2.11-7.78c.19-.7.48-1 1.25-.76q3.88 1.13 7.8 2.16c.75.2.91.57.69 1.29-.42 1.3-.78 2.62-1.11 3.93zm-5.86 2c.87.24 1.74.46 2.6.73.58.18.9 0 1.06-.58.44-1.72.91-3.44 1.39-5.14.18-.64-.07-.89-.64-1q-2.51-.68-5-1.39c-.58-.17-.9 0-1.06.58-.44 1.72-.9 3.44-1.39 5.14-.18.64.06.9.64 1 .81.18 1.59.41 2.4.63z" fill="#fff"/><path d="m544.09 305.74c.63.19 1.26.38 1.89.55.44.12.78.3.67.86s-.31.88-.91.72-.81.17-.93.67-.23.81-.34 1.21-.49.62-1 .49a.67.67 0 0 1 -.54-.93c.31-1.15.61-2.3.91-3.45z" fill="#fff"/><path d="m556.24 298.91c-.25.46 0 1.47-1.2 1.13-.44-.14-.63-.38-.5-.85s.23-.87.35-1.31.3-.92 1-.75.71.64.54 1.2c-.08.16-.12.33-.19.58z" fill="#fff"/><path d="m547.47 292.71c.7-2.46.29-2.24 2.69-1.57s2.28.2 1.57 2.83c-.56 2.1-.57 2.1-2.61 1.53h-.1c-2.52-.73-2.13-.5-1.55-2.79z" fill="#fff"/><path d="m574.67 298c2.47.73 2.24.29 1.56 2.82-.6 2.2-.19 2.23-2.66 1.54s-2.24-.41-1.58-2.86.47-2.12 2.68-1.5z" fill="#fff"/><path d="m542.25 320.21c-2.35-.69-2.16-.29-1.51-2.66s.2-2.35 2.86-1.62c2 .56 2 .56 1.47 2.58v.11c-.74 2.61-.48 2.2-2.82 1.59z" fill="#fff"/><path d="m555.88 264.67a.18.18 0 0 1 0 .16l-.42 1.62a.3.3 0 0 1 -.09.13.3.3 0 0 1 -.16 0l-2.06-.56a.08.08 0 0 0 -.1.07l-2.45 9.38a.2.2 0 0 1 -.25.14l-1.92-.51a.22.22 0 0 1 -.13-.1.29.29 0 0 1 0-.16l2.45-9.38a.08.08 0 0 0 -.06-.1l-2-.53a.21.21 0 0 1 -.15-.26l.46-1.57a.22.22 0 0 1 .1-.13.16.16 0 0 1 .15 0l6.52 1.75a.18.18 0 0 1 .11.05z" fill="#fff"/><path d="m554.1 276.57a.18.18 0 0 1 0-.16l2.9-11.28a.26.26 0 0 1 .1-.13.24.24 0 0 1 .15 0l1.92.52a.19.19 0 0 1 .13.1.2.2 0 0 1 0 .15l-2.9 11.23a.23.23 0 0 1 -.1.12.16.16 0 0 1 -.15 0l-1.93-.51a.23.23 0 0 1 -.12-.04z" fill="#fff"/><path d="m558.74 277.07a3.39 3.39 0 0 1 -.27-2.64l1.41-5.41a3.27 3.27 0 0 1 1.51-2.13 3.81 3.81 0 0 1 4.77 1.28 3.27 3.27 0 0 1 .28 2.61l-.05.19a.16.16 0 0 1 -.09.12.22.22 0 0 1 -.16 0l-1.94-.44a.17.17 0 0 1 -.15-.23l.11-.44a1.11 1.11 0 0 0 -.06-.85.91.91 0 0 0 -.63-.49.9.9 0 0 0 -.77.11 1.17 1.17 0 0 0 -.46.72l-1.51 5.75a1.16 1.16 0 0 0 .07.85 1 1 0 0 0 1.39.38 1.14 1.14 0 0 0 .47-.71l.12-.45a.18.18 0 0 1 .09-.13.22.22 0 0 1 .16 0l1.9.6a.2.2 0 0 1 .12.1.18.18 0 0 1 0 .16v.16a3.28 3.28 0 0 1 -1.53 2.15 3.34 3.34 0 0 1 -2.62.26 3.4 3.4 0 0 1 -2.16-1.52z" fill="#fff"/><path d="m565.52 279.64a.23.23 0 0 1 0-.16l3-11.28a.18.18 0 0 1 .09-.13.18.18 0 0 1 .16 0l1.92.51a.22.22 0 0 1 .13.1.29.29 0 0 1 0 .16l-1.1 4.2v.09s.05 0 .07 0l3.24-3.71a.26.26 0 0 1 .27-.08l2 .54a.2.2 0 0 1 .14.1.2.2 0 0 1 -.05.18l-3.69 4.15a.26.26 0 0 0 0 .1l.93 7a.12.12 0 0 1 0 .1c0 .09-.09.12-.2.09l-2-.55a.21.21 0 0 1 -.19-.21l-.57-4.83s0-.06 0-.06h-.08l-.7.74a.22.22 0 0 0 -.06.1l-.88 3.35a.18.18 0 0 1 -.09.13.22.22 0 0 1 -.16 0l-1.92-.52a.16.16 0 0 1 -.26-.11z" fill="#fff"/><path d="m582 273.73a.18.18 0 0 1 -.16 0l-3.44-.92a.07.07 0 0 0 -.1.06l-.69 2.64a.08.08 0 0 0 .06.1l2 .53a.22.22 0 0 1 .13.1.2.2 0 0 1 0 .15l-.42 1.62a.22.22 0 0 1 -.1.13.16.16 0 0 1 -.15 0l-2-.53a.08.08 0 0 0 -.1.06l-.69 2.66a.07.07 0 0 0 .06.1l3.44.92a.23.23 0 0 1 .12.1.18.18 0 0 1 0 .16l-.42 1.62a.19.19 0 0 1 -.1.12.16.16 0 0 1 -.15 0l-5.64-1.51a.22.22 0 0 1 -.13-.1.2.2 0 0 1 0-.15l2.94-11.29a.23.23 0 0 1 .1-.12.16.16 0 0 1 .15 0l5.65 1.51a.23.23 0 0 1 .12.1.16.16 0 0 1 0 .15l-.42 1.62a.21.21 0 0 1 -.06.17z" fill="#fff"/><path d="m590.28 273.91a.16.16 0 0 1 0 .15l-.42 1.62a.22.22 0 0 1 -.1.13.16.16 0 0 1 -.15 0l-2.06-.55a.07.07 0 0 0 -.1.06l-2.45 9.4a.18.18 0 0 1 -.09.13.22.22 0 0 1 -.16 0l-1.92-.52a.19.19 0 0 1 -.13-.1.19.19 0 0 1 0-.15l2.45-9.38a.09.09 0 0 0 -.06-.11l-2-.53a.18.18 0 0 1 -.09-.06.18.18 0 0 1 0-.16l.42-1.62a.22.22 0 0 1 .1-.13.19.19 0 0 1 .15 0l6.52 1.75a.23.23 0 0 1 .09.07z" fill="#fff"/><path d="m517.69 325c-1.72-.63-5.85-5-7.42-10.35-1.86-6.3 0-14.12 4.32-18.2a15.91 15.91 0 0 1 8.76-4.06 7.83 7.83 0 0 1 2.46.1l3.26.73-.94 3.78c-.89 3.57-2.07 8.22-3.22 12.71s-2.33 9.19-3.22 12.72l-.92 3.69z" fill="#0e1030"/><path d="m513.5 312.66c1.22 4.26 4.49 7.44 5 7.63 1.65-6.58 4.35-17 6-23.63-1.68-.39-5.5.59-8 2.9-3.1 2.98-4.23 8.82-3 13.1z" fill="#f8d4a0"/><path d="m591.9 339.68a9.52 9.52 0 0 0 -4.35-2.76 9.08 9.08 0 0 0 -4.09-.21l-.43.08-3.72.86-1-3.73a20.86 20.86 0 0 1 -.48-9.53 22.74 22.74 0 0 1 4.38-9.62 14.29 14.29 0 0 1 8.42-5.48 10.76 10.76 0 0 1 1.5-.17 12.73 12.73 0 0 1 7.31 2.1c6.08 3.78 7 10.59 7.09 11.92.54 6.2-2.82 10.57-4.25 12.44a20.64 20.64 0 0 1 -5.21 4.78l-2.84 1.82z" fill="#0e1030"/><path d="m581.92 332.5a13 13 0 0 1 6.51.39 13.73 13.73 0 0 1 6.09 4.1 16.56 16.56 0 0 0 4.29-3.7c1.35-1.65 4-4.85 3.7-9.46 0-.45-.43-6-4.91-8.95a8.86 8.86 0 0 0 -5-1.65c-5.49.07-9.71 6.34-10.86 11.61a16.9 16.9 0 0 0 .18 7.66z" fill="#f8d4a0"/><path d="m581 364.37a9.73 9.73 0 0 1 -1.07-.06 11.59 11.59 0 0 1 -10.39-11.31 15.4 15.4 0 0 1 .8-5.41 28.41 28.41 0 0 1 6.06-10.24 20.51 20.51 0 0 1 3.63-3.06 11.4 11.4 0 0 1 4.21-1.66 7.69 7.69 0 0 1 1.27-.11 7 7 0 0 1 2.42.44 11.47 11.47 0 0 1 7.17 8.76 14.44 14.44 0 0 1 .2 2.1 22.88 22.88 0 0 1 -4.3 14.73 15 15 0 0 1 -5.72 4.84 9.79 9.79 0 0 1 -4.28.98z" fill="#0e1030"/><path d="m591.32 344a10.3 10.3 0 0 0 -.15-1.56 7.22 7.22 0 0 0 -4.52-5.61 3 3 0 0 0 -1.69-.18 7 7 0 0 0 -2.72 1.06 15.88 15.88 0 0 0 -2.91 2.45 24.14 24.14 0 0 0 -5.18 8.77 11.15 11.15 0 0 0 -.58 3.94 7.57 7.57 0 0 0 6.8 7.36 5.85 5.85 0 0 0 3.19-.54 11.06 11.06 0 0 0 4.19-3.55 18.91 18.91 0 0 0 3.57-12.14z" fill="#f8d4a0"/><path d="m597.82 303.71c5.38-2.36 18.71-10.15 21.27-20.18 1.13-4.43-.74-7.6-2.8-9.14-3.18-2.37-9.23-2.23-10.81 1.94-1.81 4.76-6.78 24-7.66 27.38z" fill="#f8d4a0"/></g></svg>